<?xml version="1.0" encoding="UTF-8" standalone="no"?>
<svg
   xmlns:vectornator="http://vectornator.io"
   xmlns:dc="http://purl.org/dc/elements/1.1/"
   xmlns:cc="http://creativecommons.org/ns#"
   xmlns:rdf="http://www.w3.org/1999/02/22-rdf-syntax-ns#"
   xmlns:svg="http://www.w3.org/2000/svg"
   xmlns="http://www.w3.org/2000/svg"
   xmlns:sodipodi="http://sodipodi.sourceforge.net/DTD/sodipodi-0.dtd"
   xmlns:inkscape="http://www.inkscape.org/namespaces/inkscape"
   height="264.32907"
   style="clip-rule:evenodd;fill-rule:evenodd;stroke-linecap:round;stroke-linejoin:round"
   xml:space="preserve"
   width="262.20535"
   version="1.1"
   viewBox="0 0 262.20535 264.32908"
   id="svg434"
   sodipodi:docname="corropeek-flip.svg"
   inkscape:version="1.0.2 (e86c870879, 2021-01-15, custom)"><sodipodi:namedview
   pagecolor="#ffffff"
   bordercolor="#666666"
   borderopacity="1"
   objecttolerance="10"
   gridtolerance="10"
   guidetolerance="10"
   inkscape:pageopacity="0"
   inkscape:pageshadow="2"
   inkscape:window-width="2560"
   inkscape:window-height="1359"
   id="namedview436"
   showgrid="false"
   fit-margin-top="0"
   fit-margin-left="0"
   fit-margin-right="0"
   fit-margin-bottom="0"
   inkscape:zoom="2.4019484"
   inkscape:cx="71.011539"
   inkscape:cy="147.76957"
   inkscape:window-x="2560"
   inkscape:window-y="240"
   inkscape:window-maximized="1"
   inkscape:current-layer="g1689"
   inkscape:document-rotation="0" />
<metadata
   id="metadata2">
<vectornator:setting
   key="DimensionsVisible"
   value="1" />
<vectornator:setting
   key="PencilOnly"
   value="1" />
<vectornator:setting
   key="SnapToPoints"
   value="0" />
<vectornator:setting
   key="OutlineMode"
   value="0" />
<vectornator:setting
   key="CMYKEnabledKey"
   value="0" />
<vectornator:setting
   key="RulersVisible"
   value="1" />
<vectornator:setting
   key="SnapToEdges"
   value="0" />
<vectornator:setting
   key="GuidesVisible"
   value="1" />
<vectornator:setting
   key="DisplayWhiteBackground"
   value="0" />
<vectornator:setting
   key="doHistoryDisabled"
   value="0" />
<vectornator:setting
   key="SnapToGuides"
   value="1" />
<vectornator:setting
   key="TimeLapseWatermarkDisabled"
   value="0" />
<vectornator:setting
   key="Units"
   value="Millimeters" />
<vectornator:setting
   key="DynamicGuides"
   value="0" />
<vectornator:setting
   key="IsolateActiveLayer"
   value="0" />
<vectornator:setting
   key="SnapToGrid"
   value="0" />
<rdf:RDF><cc:Work
     rdf:about=""><dc:format>image/svg+xml</dc:format><dc:type
       rdf:resource="http://purl.org/dc/dcmitype/StillImage" /><dc:title></dc:title></cc:Work></rdf:RDF></metadata>
<defs
   id="defs4">






















































































































































































































<clipPath
   clipPathUnits="userSpaceOnUse"
   id="clipPath1699"><rect
     style="fill:none;fill-rule:nonzero;stroke:#000000;stroke-width:2.50221;stroke-miterlimit:5.84615"
     id="rect1701"
     width="278.75317"
     height="275.27429"
     x="528.91418"
     y="34.963627" /></clipPath></defs>

<g
   id="g1689"
   clip-path="url(#clipPath1699)"
   transform="translate(-545.46199,-34.963627)"><g
     id="g1276"
     transform="matrix(-1,0,0,1,1353.3136,0)"><path
       d="m 685.725,217.894 c -4.193,2.248 -5.716,-5.158 -1.05,-5.644 1.031,-0.576 1.91,-1.359 2.804,-2.12 6.695,-6.348 12.732,-13.351 18.799,-20.289 1.57,-1.781 3.157,-3.548 4.773,-5.287 7.67,-7.266 14.136,-15.657 19.955,-24.448 0.551,-0.835 1.099,-1.671 1.636,-2.515 -0.077,-3.983 6.5,-4.659 5.705,-0.431 -14.892,22.144 -29.613,46.122 -52.622,60.734"
       opacity="1"
       fill="#9c3737"
       id="path6"
       style="fill-rule:nonzero" /><path
       d="m 676.555,216.643 c -3.655,1.966 -5.622,-4.708 -1.431,-5.081 0.778,-0.536 1.476,-1.172 2.188,-1.791 5.472,-5.023 10.607,-10.399 15.751,-15.753 7.718,-8.144 15.857,-15.941 22.518,-24.991 0.657,-0.934 1.297,-1.88 1.9,-2.849 0.144,-3.998 6.689,-3.993 5.572,0.054 -12.538,19.191 -28.849,35.909 -46.498,50.411"
       opacity="1"
       fill="#9c3737"
       id="path8"
       style="fill-rule:nonzero" /><path
       d="m 664.622,216.669 c -1.684,1.784 -4.985,0.036 -4.452,-2.359 9.134,-12.539 24.51,-20.062 35.677,-30.783 1.993,-1.8 3.851,-3.744 5.694,-5.695 0.725,-0.79 1.439,-1.591 2.129,-2.412 0.2,-4.333 7.643,-4.535 6.106,-0.076 -12.654,16.171 -30.062,27.65 -45.154,41.325"
       opacity="1"
       fill="#9c3737"
       id="path10"
       style="fill-rule:nonzero" /><path
       d="m 661.667,209.528 c -5.313,1.118 -3.088,-7.073 1.538,-6.2 3.52,-3.245 6.67,-6.869 10.093,-10.215 4.637,-4.589 9.439,-9.015 14.42,-13.229 2.017,-1.761 4.001,-3.57 5.813,-5.545 0.989,-1.032 1.968,-2.075 3,-3.064 3.108,-5.96 9.134,2.003 2.699,4.05 -1.167,1.18 -2.304,2.389 -3.448,3.591 -2.666,2.811 -5.074,5.85 -7.697,8.7 -8.151,7.898 -16.174,16.773 -26.418,21.912"
       opacity="1"
       fill="#9c3737"
       id="path12"
       style="fill-rule:nonzero" /><path
       d="m 658.012,203.677 c -4.046,1.482 -4.432,-5.127 -0.375,-5.278 1.07,-0.827 2.115,-1.687 3.159,-2.548 2.43,-2.03 4.849,-4.074 7.26,-6.127 4.739,-3.799 9.007,-8.173 13.943,-11.721 2.166,-1.532 4.305,-3.109 6.309,-4.85 3.278,-7.909 11.38,1.146 3.166,3.588 -1.409,1.298 -2.794,2.621 -4.169,3.954 -3.147,3.287 -6.695,6.131 -10.191,9.028 -6.082,4.989 -12.178,10.169 -19.102,13.954"
       opacity="1"
       fill="#9c3737"
       id="path14"
       style="fill-rule:nonzero" /><path
       d="m 649.332,199.018 c -3.969,2.686 -6.251,-4.792 -1.417,-5.395 0.821,-0.551 1.634,-1.115 2.445,-1.681 1.263,-0.886 2.522,-1.78 3.779,-2.676 2.622,-1.885 5.221,-3.802 7.811,-5.731 5.442,-4.169 11.076,-8.079 16.555,-12.198 2.486,-1.853 4.653,-4.07 6.911,-6.18 1.071,-0.966 2.157,-1.924 3.347,-2.743 2.858,-4.602 8.361,1.011 3.734,3.827 -0.513,0.767 -1.114,1.464 -1.74,2.139 -1.42,1.473 -2.992,2.791 -4.59,4.065 -2.975,2.416 -5.985,4.79 -9.006,7.148 -3.901,2.969 -7.958,5.726 -12.087,8.365 -5.256,3.657 -10.977,6.744 -15.742,11.06"
       opacity="1"
       fill="#9c3737"
       id="path16"
       style="fill-rule:nonzero" /><path
       d="m 648.063,190.602 c -4.391,3.562 -6.883,-5.561 -0.931,-5.874 1.29,-0.856 2.617,-1.652 3.929,-2.474 1.897,-1.173 3.798,-2.339 5.7,-3.502 2.709,-1.673 5.399,-3.374 8.084,-5.083 1.098,-0.702 2.195,-1.404 3.293,-2.105 6.828,-4.426 13.268,-9.445 19.328,-14.869 0.643,-0.616 1.275,-1.244 1.865,-1.911 0.561,-4.069 7.209,-3.212 5.485,0.715 -12.389,15.436 -31.695,23.084 -46.753,35.103"
       opacity="1"
       fill="#9c3737"
       id="path18"
       style="fill-rule:nonzero" /><path
       d="m 685.467,205.528 c -3.177,3.179 -6.379,-3.268 -2.192,-4.816 0.486,-0.574 0.973,-1.149 1.459,-1.724 0.649,-0.766 1.298,-1.532 1.947,-2.298 9.635,-8.534 16.987,-21.335 27.461,-28.487 5.891,0.912 -0.679,8.771 -2.996,9.557 -8.642,9.18 -17.772,17.921 -25.679,27.768"
       opacity="1"
       fill="#9c3737"
       id="path20"
       style="fill-rule:nonzero" /><path
       d="m 686.457,193.363 c -3.096,2.954 -6.205,-3.128 -2.238,-4.629 0.833,-0.917 1.687,-1.813 2.566,-2.687 0.879,-0.89 1.819,-1.715 2.706,-2.598 2.472,-1.687 3.851,-5.003 6.668,-6.18 9.659,2.697 -8.379,12.998 -9.702,16.094"
       opacity="1"
       fill="#9c3737"
       id="path22"
       style="fill-rule:nonzero" /><path
       d="m 690.809,219.042 c -3.161,2.895 -6.652,-3.171 -2.645,-4.743 0.777,-0.678 1.553,-1.356 2.33,-2.034 0.979,-0.872 1.947,-1.756 2.908,-2.648 1.666,-1.559 3.312,-3.14 4.928,-4.752 4.024,-4.016 7.874,-8.204 11.909,-12.211 1.764,-1.822 3.466,-3.709 5.011,-5.722 0.8,-1.009 1.599,-2.019 2.386,-3.038 1.241,-5.343 8.585,-1.105 4.304,2.25 -0.666,0.878 -1.349,1.743 -2.031,2.609 -1.504,1.915 -3.018,3.826 -4.691,5.599 -2.677,2.844 -5.479,5.568 -8.16,8.41 -5.233,5.609 -10.93,10.754 -16.249,16.28"
       opacity="1"
       fill="#9c3737"
       id="path24"
       style="fill-rule:nonzero" /><path
       d="m 690.812,205.102 c -5.178,2.316 -4.477,-7.08 0.883,-6.405 1.003,-0.693 2.007,-1.386 2.99,-2.107 6.171,-2.036 9.158,-11.894 15.821,-11.952 3.388,1.302 0.562,5.888 -1.837,6.555 -5.5,5.186 -11.564,9.734 -17.857,13.909"
       opacity="1"
       fill="#9c3737"
       id="path26"
       style="fill-rule:nonzero" /><path
       d="m 698.135,219.971 c -4.709,2.107 -5.271,-5.767 -0.522,-6.198 0.818,-0.753 1.605,-1.538 2.387,-2.329 1.776,-1.824 3.514,-3.685 5.239,-5.558 3.587,-3.937 7.129,-7.922 10.982,-11.604 1.9,-1.78 3.785,-3.577 5.579,-5.464 0.746,-0.8 1.481,-1.609 2.16,-2.467 1.957,-5.894 9.11,0.181 3.628,3.118 -1.192,1.451 -2.412,2.878 -3.634,4.304 -2.581,3.006 -5.184,5.994 -7.804,8.967 -5.712,5.95 -10.639,13.205 -18.015,17.231"
       opacity="1"
       fill="#9c3737"
       id="path28"
       style="fill-rule:nonzero" /><path
       d="m 708.846,219.973 c -4.551,2.758 -5.902,-5.177 -1.303,-6.347 0.565,-0.547 1.131,-1.093 1.696,-1.64 0.782,-0.743 1.564,-1.486 2.345,-2.23 0.999,-0.939 1.998,-1.879 2.996,-2.818 2.987,-2.849 6.038,-5.649 8.713,-8.801 1.301,-1.507 2.576,-3.037 3.808,-4.601 0.62,-0.77 1.158,-1.599 1.75,-2.39 1.961,-5.54 8.614,0.443 3.487,3.338 -1.004,1.447 -2.101,2.824 -3.226,4.176 -2.074,2.571 -4.332,4.981 -6.577,7.399 -4.642,4.511 -8.114,10.474 -13.689,13.914"
       opacity="1"
       fill="#9c3737"
       id="path30"
       style="fill-rule:nonzero" /><path
       d="m 723.01,208.957 c -5.25,1.511 -3.597,-7.014 1.293,-6.166 4.008,-0.906 5.05,-5.793 8.626,-6.775 7.932,3.437 -6.819,11.7 -9.919,12.941"
       opacity="1"
       fill="#9c3737"
       id="path32"
       style="fill-rule:nonzero" /><path
       d="m 713.321,224.195 c -3.528,3.204 -6.412,-3.868 -1.879,-5.192 0.777,-0.835 1.544,-1.68 2.3,-2.534 5.921,-5.257 10.562,-15.223 18.551,-17.511 7.887,5.943 -12.583,12.045 -12.769,18.104 -0.709,0.859 -1.427,1.711 -2.152,2.556 -1.329,1.545 -2.7,3.052 -4.051,4.577"
       opacity="1"
       fill="#9c3737"
       id="path34"
       style="fill-rule:nonzero" /><path
       d="m 720.246,219.508 c -3.149,2.437 -5.762,-3.416 -1.971,-4.577 0.837,-0.691 1.673,-1.382 2.51,-2.073 1.004,-0.843 2.01,-1.688 2.963,-2.589 3.1,-1.455 3.009,-6.207 6.218,-7.233 9.132,2.768 -7.411,14.571 -9.72,16.472"
       opacity="1"
       fill="#9c3737"
       id="path36"
       style="fill-rule:nonzero" /><path
       d="m 653.551,176.457 c 9.566,0.136 -6.23,13.867 -2.061,-1.699 5.197,-6.078 13.046,-8.995 19.643,-13.243 3,-1.71 6.083,-3.269 9.088,-4.97 1.49,-0.836 2.966,-1.696 4.431,-2.574 4.496,-7.19 11.049,2.935 2.481,4.09 -2.058,1.236 -4.142,2.432 -6.247,3.588 -3.82,2.037 -7.618,4.121 -11.279,6.437 -5.409,3.12 -9.227,8.498 -14.304,11.888 -1.264,-0.086 -4.156,-3.345 -1.752,-3.517"
       opacity="1"
       fill="#9c3737"
       id="path38"
       style="fill-rule:nonzero" /><path
       d="m 639.66,177.605 c -4.663,1.847 -4.436,-6.251 0.45,-5.72 1.216,-0.674 2.432,-1.348 3.647,-2.024 1.709,-0.952 3.417,-1.906 5.123,-2.865 5.423,-3.02 10.845,-6.046 16.33,-8.955 2.71,-1.422 5.415,-2.855 8.108,-4.308 1.431,-0.776 2.86,-1.553 4.304,-2.305 4.035,-4.346 8.041,3.681 2.189,4.254 -0.834,0.436 -1.664,0.881 -2.493,1.326 -1.857,1.011 -3.72,2.01 -5.587,3.002 -3.835,2.023 -7.671,4.046 -11.466,6.143 -6.887,3.785 -13.724,7.658 -20.605,11.452"
       opacity="1"
       fill="#9c3737"
       id="path40"
       style="fill-rule:nonzero" /><path
       d="m 641.693,165.709 c -5.766,1.134 -3.414,-8.141 2.036,-6.16 1.427,-0.517 2.831,-1.092 4.241,-1.653 4.384,-1.722 8.671,-3.673 13.008,-5.505 2.099,-0.893 4.196,-1.789 6.291,-2.69 1.059,-0.458 2.119,-0.916 3.172,-1.387 4.025,-3.912 7.54,3.97 1.939,4.375 -1.554,0.693 -3.117,1.364 -4.681,2.035 -3.027,1.304 -6.068,2.576 -9.093,3.885 -5.554,2.567 -11.364,4.53 -16.913,7.1"
       opacity="1"
       fill="#9c3737"
       id="path42"
       style="fill-rule:nonzero" /><path
       d="m 635.768,160.559 c -1.752,1.374 -4.469,-0.668 -3.634,-2.733 12.362,-8.925 29.835,-12.069 43.963,-17.796 5.203,2.057 -2.097,8.231 -5.251,6.955 -11.617,4.639 -24.004,7.785 -35.078,13.574"
       opacity="1"
       fill="#9c3737"
       id="path44"
       style="fill-rule:nonzero" /><path
       d="m 632.332,155.757 c -2.035,2.239 -5.848,-0.772 -4.138,-3.27 9.861,-8.402 23.874,-10.82 35.561,-15.856 4.452,1.02 0.634,6.986 -2.874,6.272 -9.099,5.021 -21.231,5.067 -28.549,12.854"
       opacity="1"
       fill="#9c3737"
       id="path46"
       style="fill-rule:nonzero" /><path
       d="m 633.782,140.054 c -0.526,-1.5 -3.029,-3.852 -1.578,-4.501 9.981,-4.465 20.719,-7.556 31.569,-8.916 1.859,-0.233 -0.468,4.278 -2.088,5.22 -4.191,2.435 -9.301,2.732 -13.951,4.099 -4.651,1.366 -9.301,2.732 -13.952,4.098"
       opacity="1"
       fill="#9c3737"
       id="path48"
       style="fill-rule:nonzero" /><path
       d="m 615.551,137.401 c -4.882,0.161 -2.196,-7.134 2.129,-5.188 1.008,-0.169 2.003,-0.4 3.001,-0.617 1.67,-0.364 3.34,-0.728 5.01,-1.092 4.356,-0.96 8.687,-2.028 13.012,-3.12 2.094,-0.524 4.172,-1.116 6.245,-1.721 1.158,-0.343 2.317,-0.686 3.475,-1.028 5.41,-3.164 6.073,6.518 -0.156,5.036 -1.278,0.38 -2.557,0.756 -3.839,1.123 -3.166,0.914 -6.369,1.688 -9.568,2.478 -6.409,1.488 -12.799,3.134 -19.309,4.129"
       opacity="1"
       fill="#9c3737"
       id="path50"
       style="fill-rule:nonzero" /><path
       d="m 621.975,128.963 c -5.6,0.341 -1.735,-8.181 3.035,-5.636 0.92,-0.218 1.84,-0.436 2.759,-0.654 8.964,-0.508 18.807,-6.617 27.614,-4.777 3.384,3.393 -3.8,6.363 -6.301,5.325 -9.094,1.634 -18.15,3.466 -27.107,5.742"
       opacity="1"
       fill="#9c3737"
       id="path52"
       style="fill-rule:nonzero" /><path
       d="m 618.717,118.97 c -4.378,0.834 -3.942,-6.44 0.445,-5.437 0.977,-0.145 1.953,-0.302 2.924,-0.483 7.636,0.725 16.414,-4.834 23.72,-2.467 2.568,2.557 -1.746,5.597 -4.353,4.733 -7.542,1.495 -15.412,1.105 -22.736,3.654"
       opacity="1"
       fill="#9c3737"
       id="path54"
       style="fill-rule:nonzero" /><path
       d="m 612.177,115.215 c -5.788,0.134 -2.03,-8.541 2.972,-5.696 1.049,-0.176 2.093,-0.38 3.135,-0.594 7.995,0.547 17.513,-6.442 25.212,-3.539 2.753,3.235 -3.328,5.799 -5.781,4.948 -8.578,1.262 -17.113,2.82 -25.538,4.881"
       opacity="1"
       fill="#9c3737"
       id="path56"
       style="fill-rule:nonzero" /><path
       d="m 617.814,106.176 c -2.264,1.348 -4.763,-2.028 -2.811,-3.799 7.581,-4.0443 17.163,-4.7738 25.61,-4.6615 5.794,10.0375 -19.448,2.8575 -22.799,8.4605"
       opacity="1"
       fill="#9c3737"
       id="path58"
       style="fill-rule:nonzero" /><path
       d="m 610.741,99.7791 c -0.376,-1.7223 -2.804,-4.6168 -1.129,-5.1668 7.354,-2.4148 19.347,-8.8102 23.129,-2.0574 4.809,8.5851 -15.394,3.6859 -22,7.2242"
       opacity="1"
       fill="#9c3737"
       id="path60"
       style="fill-rule:nonzero" /><path
       d="m 606.738,91.546 c -5.523,0.1049 -2.196,-8.2509 2.662,-5.579 0.951,-0.0979 1.902,-0.2079 2.851,-0.3281 8.416,1.005 17.619,-4.2471 25.602,-2.6256 3.01,2.8291 -2.541,6.2488 -5.166,5.3497 -8.633,1.2281 -17.435,1.0684 -25.949,3.183"
       opacity="1"
       fill="#9c3737"
       id="path62"
       style="fill-rule:nonzero" /><path
       d="m 609.478,80.3945 c -8.458,-0.8263 3.075,-12.005 7.1,-8.8134 1.249,-0.0593 2.509,-0.1577 3.755,0.0024 1.342,0.1316 2.684,0.2615 4.027,0.3917 1.924,0.2106 3.856,0.3588 5.792,0.3954 3.229,0.9866 7.339,-1.7402 10.299,0.2673 3.398,4.4952 -6.129,5.8478 -8.308,4.6093 -7.83,-0.1479 -14.803,6.3215 -22.665,3.1473"
       opacity="1"
       fill="#9c3737"
       id="path64"
       style="fill-rule:nonzero" /><path
       d="m 605.39,72.2412 c -5.867,-1.8425 0.911,-8.4369 4.977,-5.5581 11.748,0.4173 25.386,-2.7375 36.596,0.159 3.005,4.7976 -6.812,5.3965 -8.884,4.3603 -10.895,0.0993 -21.882,1.2697 -32.689,1.0388"
       opacity="1"
       fill="#9c3737"
       id="path66"
       style="fill-rule:nonzero" /><path
       d="m 607.9,64.1529 c -4.506,0.1817 -3.087,-6.6221 1.105,-5.6734 12.215,-2.3049 26.004,-1.6595 38.079,0.9033 3.048,3.5054 -3.839,6.0381 -6.302,3.8414 -8.445,-0.642 -16.862,0.4184 -25.255,1.1146 -2.545,0.0695 -5.085,-0.1212 -7.627,-0.1859"
       opacity="1"
       fill="#9c3737"
       id="path68"
       style="fill-rule:nonzero" /><path
       d="m 606.584,56.7965 c -2.592,-0.0035 -4.022,-3.5258 -2.161,-5.3322 12.893,-4.2364 29.471,0.9556 42.694,1.1623 2.816,3.4036 -3.679,5.8664 -6.149,4.2565 -8.332,0.0752 -16.721,-0.9703 -24.974,0.6764 -1.584,0.1488 -3.171,0.263 -4.764,0.2382 -1.625,0.0733 -3.105,-0.6283 -4.646,-1.0012"
       opacity="1"
       fill="#9c3737"
       id="path70"
       style="fill-rule:nonzero" /><path
       d="m 613.463,49.2229 c -4.998,-1.1905 -0.3,-7.7742 3.59,-4.8345 0.933,0.0291 1.866,0.0277 2.8,0.0081 10.981,1.0244 24.601,-2.8084 34.746,1.7853 2.442,5.0932 -7.447,4.5631 -9.284,3.2391 -10.618,-0.8945 -21.309,1.7124 -31.852,-0.198"
       opacity="1"
       fill="#9c3737"
       id="path72"
       style="fill-rule:nonzero" /><path
       d="m 670.968,180.508 c 4.089,-0.637 6.245,2.407 3.088,4.656 -1.539,1.097 -4.042,-3.895 -2.555,-5.061 6.885,-5.397 18.581,-18.6 23.615,-11.447 5.019,7.132 -11.792,13.099 -19.053,17.929 -4.307,2.865 -5.129,-2.148 -5.095,-6.077"
       opacity="1"
       fill="#9c3737"
       id="path74"
       style="fill-rule:nonzero" /><path
       d="m 650.176,179.942 c -3.291,1.845 -5.01,-3.241 -2.137,-4.855 6.979,-9.54 17.944,-20.91 29.905,-23.009 3.864,2.002 -1.246,7.087 -1.837,9.088 -7.114,7.494 -14.95,17.677 -25.931,18.776"
       opacity="1"
       fill="#9c3737"
       id="path76"
       style="fill-rule:nonzero" /><path
       d="m 634.618,174.766 c 4.612,5.123 -0.171,-0.104 2.894,-3.562 9.658,-10.895 23.057,-30.123 36.358,-24.204 11.832,5.266 -16.134,20.514 -26.118,28.762 -4.651,3.843 -14.01,10.341 -13.134,-0.996"
       opacity="1"
       fill="#9c3737"
       id="path78"
       style="fill-rule:nonzero" /><path
       d="m 626.673,159.771 c -3.583,-6.151 6.347,-3.135 7.076,-6.118 1.161,-0.731 2.32,-1.463 3.48,-2.197 6.183,-3.864 12.536,-7.459 19.109,-10.616 1.178,-0.659 2.358,-1.35 3.361,-2.264 2.866,-4.705 8.219,1.774 3.09,3.818 -0.653,0.632 -1.332,1.238 -2.02,1.833 -1.465,1.252 -2.979,2.447 -4.505,3.624 -2.758,2.125 -5.561,4.19 -8.382,6.23 -4.482,3.062 -9.213,5.973 -14.417,7.617 -2.412,0.683 -5.337,0.327 -6.792,-1.927"
       opacity="1"
       fill="#9c3737"
       id="path80"
       style="fill-rule:nonzero" /><path
       d="m 624.925,155.841 c -4.877,1.664 -4.713,-6.701 0.43,-5.825 0.705,-0.296 1.393,-0.627 2.067,-0.988 1.097,-0.594 2.119,-1.313 3.139,-2.029 6.626,-5.128 13.945,-9.25 20.49,-14.522 0.811,-3.55 8.304,-4.757 7.163,-0.035 -9.839,9.149 -21.482,16.872 -33.289,23.399"
       opacity="1"
       fill="#9c3737"
       id="path82"
       style="fill-rule:nonzero" /><path
       d="m 650.177,162.616 c -1.779,4.35 -7.34,-0.799 -3.72,-3.789 0.561,-1.017 1.375,-1.865 2.21,-2.66 0.966,-0.884 1.95,-1.747 2.943,-2.6 1.502,-1.057 2.653,-2.588 4.21,-3.562 9.278,0.553 -4.319,10.597 -5.643,12.611"
       opacity="1"
       fill="#9c3737"
       id="path84"
       style="fill-rule:nonzero" /><path
       d="m 638.47,154.784 c -5.213,2.64 -4.525,-6.564 -0.307,-7.406 0.779,-0.936 1.624,-1.809 2.533,-2.619 0.955,-0.798 1.964,-1.521 3.022,-2.175 0.947,-0.616 1.896,-1.228 2.85,-1.833 1.459,-0.928 2.946,-1.81 4.406,-2.735 2.311,-0.58 2.748,-6.479 6.234,-4.604 5.703,9.091 -12.375,18.723 -18.738,21.372"
       opacity="1"
       fill="#9c3737"
       id="path86"
       style="fill-rule:nonzero" /><path
       d="m 624.705,156.792 c -1.046,2.126 -4.575,1.575 -4.921,-0.769 4.105,-15.638 23.802,-21.994 33.839,-33.484 3.738,-0.954 4.017,4.882 0.633,5.76 -0.84,0.856 -1.691,1.699 -2.548,2.537 -8.924,8.729 -18.277,17.032 -27.003,25.956"
       opacity="1"
       fill="#9c3737"
       id="path88"
       style="fill-rule:nonzero" /><path
       d="m 615.572,154.837 c -4.273,3.256 -6.618,-5.115 -1.354,-6.02 0.773,-0.725 1.545,-1.45 2.318,-2.175 1.03,-0.966 2.06,-1.933 3.09,-2.899 9.229,-7.436 16.52,-18.749 26.968,-24.521 9.438,5.054 -12.994,13.227 -13.338,18.261 -0.731,0.733 -1.462,1.467 -2.192,2.201 -0.802,0.797 -1.605,1.594 -2.407,2.391 -0.874,0.861 -1.747,1.721 -2.621,2.582 -1.957,1.917 -3.92,3.828 -5.887,5.735 -1.526,1.482 -3.052,2.963 -4.577,4.445"
       opacity="1"
       fill="#9c3737"
       id="path90"
       style="fill-rule:nonzero" /><path
       d="m 628.299,145.004 c -4.437,3.546 -6.743,-5.318 -1.365,-6.395 6.488,-4.672 12.068,-13.582 19.8,-16.115 8.379,6.841 -15.605,13.476 -15.892,19.925 -0.847,0.862 -1.695,1.724 -2.543,2.585"
       opacity="1"
       fill="#9c3737"
       id="path92"
       style="fill-rule:nonzero" /><path
       d="m 616.739,145.466 c -4.574,3.462 -6.522,-5.381 -1.449,-6.664 8.21,-10.571 19.87,-19.049 31.733,-24.855 6.02,1.56 -2.048,8.978 -4.605,8.962 -8.637,7.432 -16.908,15.276 -25.679,22.557"
       opacity="1"
       fill="#9c3737"
       id="path94"
       style="fill-rule:nonzero" /><path
       d="m 610.936,132.07 c -2.729,1.446 -4.892,-3.144 -2.04,-4.329 5.223,-7.688 15.264,-10.62 23.595,-13.857 3.719,0.139 6.812,-5.156 10.58,-3.735 4.225,3.428 -4.432,7.179 -6.203,7.987 -8.352,4.721 -15.965,13.552 -25.932,13.934"
       opacity="1"
       fill="#9c3737"
       id="path96"
       style="fill-rule:nonzero" /><path
       d="m 613.927,123.521 c -5.292,1.821 -3.867,-7.154 1.209,-6.351 1.567,-0.949 3.137,-1.896 4.707,-2.841 7.115,-1.334 13.243,-11.615 20.93,-10.628 5.428,7.19 -14.551,8.159 -15.15,12.872 -1.071,0.675 -2.141,1.349 -3.212,2.024 -1.561,0.972 -3.124,1.941 -4.703,2.884 -1.211,0.77 -2.513,1.373 -3.781,2.04"
       opacity="1"
       fill="#9c3737"
       id="path98"
       style="fill-rule:nonzero" /><path
       d="m 616.713,114.247 c -5.017,1.66 -4.624,-6.825 0.556,-6.054 1.175,-0.508 2.343,-1.033 3.499,-1.585 5.553,-1.667 10.572,-7.7605 16.585,-7.5411 3.628,1.5941 0.017,6.2671 -2.937,6.0001 -5.689,3.456 -11.629,6.462 -17.703,9.18"
       opacity="1"
       fill="#9c3737"
       id="path100"
       style="fill-rule:nonzero" /><path
       d="m 619.167,118.199 c -4.435,1.27 -4.472,-6.308 0.15,-5.461 0.756,-0.201 1.486,-0.492 2.183,-0.844 2.757,-0.804 4.82,-3.72 7.747,-3.897 7.323,4.021 -7.576,9.498 -10.08,10.202"
       opacity="1"
       fill="#9c3737"
       id="path102"
       style="fill-rule:nonzero" /><path
       d="m 611.68,90.1497 c -4.71,1.1373 -4.164,-6.7371 0.62,-5.5795 0.96,-0.2349 1.908,-0.5161 2.846,-0.8265 6.397,-0.4647 12.808,-6.508 19.199,-5.273 4.96,9.5578 -18.89,6.5933 -22.665,11.679"
       opacity="1"
       fill="#9c3737"
       id="path104"
       style="fill-rule:nonzero" /><path
       d="m 621.741,102.709 c -4.546,1.326 -4.511,-6.3368 0.201,-5.6175 1.106,-0.3378 2.212,-0.6763 3.314,-1.0255 1.758,-0.3199 3.389,-1.5778 5.218,-1.4399 6.684,3.7132 -6.307,8.4999 -8.733,8.0829"
       opacity="1"
       fill="#9c3737"
       id="path106"
       style="fill-rule:nonzero" /><path
       d="m 609.861,65.3098 c 1.057,5.6415 -5.329,6.4203 -3.19,1.2113 4.242,-10.3315 21.086,-0.2148 30.498,-3.8273 4.363,-1.6747 -9.021,2.4487 -13.532,3.6731 -4.51,1.2243 -8.871,4.0306 -13.531,3.673 -1.574,-0.1208 -0.163,-3.1534 -0.245,-4.7301"
       opacity="1"
       fill="#9c3737"
       id="path108"
       style="fill-rule:nonzero" /><path
       d="m 651.594,48.101 c 3.534,0.599 2.163,6.1594 -1.236,5.2627 -12.005,0.345 -27.32,-1.1146 -36.612,-9.6987 -2.063,-4.9454 5.364,-6.0784 8.446,-4.3855 10.079,1.4713 20.662,3.3321 29.402,8.8215"
       opacity="1"
       fill="#9c3737"
       id="path110"
       style="fill-rule:nonzero" /><path
       d="m 652.523,40.1368 c 6.983,2.9715 -1.164,11.3903 -6.322,6.6371 -1.903,-0.3033 -3.796,-0.657 -5.681,-1.0526 -7.064,-1.7253 -14.531,-3.2193 -20.541,-7.5574 -7.359,-5.1626 -0.328,-12.2459 6.948,-7.6102 1.794,0.5971 3.581,1.2146 5.368,1.8319 1.823,0.6318 3.646,1.2671 5.468,1.9039 4.999,1.7451 9.877,3.8067 14.76,5.8473"
       opacity="1"
       fill="#9c3737"
       id="path112"
       style="fill-rule:nonzero" /><path
       d="m 648.406,33.7101 c 3.585,1.0889 1.043,6.0306 -2.14,4.7164 -6.492,0.7223 -13.597,-0.438 -18.552,-4.8685 -4.331,-11.7084 18.988,-4.1999 20.692,0.1521"
       opacity="1"
       fill="#9c3737"
       id="path114"
       style="fill-rule:nonzero" /><path
       d="m 656.394,29.3611 c 6.453,1.9763 0.635,10.9614 -4.588,6.8641 -0.931,-0.1939 -1.862,-0.3878 -2.793,-0.5818 -1.241,-0.2585 -2.482,-0.5171 -3.724,-0.7757 -3.154,-0.9793 -6.848,-0.889 -9.589,-2.9346 -7.888,-4.4078 0.443,-10.9164 6.469,-6.4641 1.703,0.4592 3.405,0.9239 5.106,1.3891 3.04,0.8343 6.079,1.6687 9.119,2.503"
       opacity="1"
       fill="#9c3737"
       id="path116"
       style="fill-rule:nonzero" /><path
       d="m 664.764,24.4385 c 5.771,0.575 2.304,8.5338 -2.655,6.8081 -1.886,0.5124 -3.871,0.5576 -5.804,0.3532 -1.565,-0.1923 -3.103,-0.5164 -4.625,-0.9211 -2.153,-0.5806 -4.268,-1.3216 -6.277,-2.2935 -1.751,-1.183 -3.892,-1.7621 -5.567,-3.0476 -3.709,-4.5395 4.732,-7.2037 7.696,-4.13 5.751,1.0404 11.549,1.8404 17.232,3.2309"
       opacity="1"
       fill="#9c3737"
       id="path118"
       style="fill-rule:nonzero" /><path
       d="m 667.998,23.9012 c 7.296,0.8465 -2.426,10.6679 -6.203,5.8508 -1.057,-0.3786 -2.106,-0.778 -3.156,-1.1776 -1.737,-0.6686 -3.47,-1.3472 -5.202,-2.0285 -2.607,-1.1676 -5.448,-1.9462 -7.81,-3.6002 -1.067,-0.8134 -1.971,-1.8231 -2.757,-2.9059 -5.783,-3.0464 -1.011,-10.60692 4.182,-6.6356 1.769,0.4027 3.575,0.8774 5.112,1.8792 1.694,0.9284 3.43,1.7748 5.159,2.6347 3.577,2.021 7.755,3.0647 10.675,5.9831"
       opacity="1"
       fill="#9c3737"
       id="path120"
       style="fill-rule:nonzero" /><path
       d="m 806.519,171.953 c -1.676,-2.803 3.004,-5.097 4.353,-2.192 8.149,9.344 11.964,24.399 9.521,36.697 -1.734,2.198 -4.219,0.045 -5.125,-1.71 -8.899,-7.775 -6.813,-22.062 -8.749,-32.795"
       opacity="1"
       fill="#9c3737"
       id="path122"
       style="fill-rule:nonzero" /><path
       d="m 812.217,165.078 c -1.779,-1.596 -0.25,-4.869 2.116,-4.525 13.735,7.676 15.066,26.971 17.932,40.883 -1.284,4.847 -7.058,-0.009 -6.438,-3.339 -6.337,-10.157 -10.2,-21.722 -13.61,-33.019"
       opacity="1"
       fill="#9c3737"
       id="path124"
       style="fill-rule:nonzero" /><path
       d="m 828.205,207.578 c -0.63,4.176 -6.547,1.677 -5.052,-1.996 -0.081,-1.091 -0.174,-2.181 -0.275,-3.27 -0.115,-1.205 -0.227,-2.41 -0.374,-3.611 -0.361,-2.783 -0.627,-5.607 -1.54,-8.278 -0.449,-1.229 -0.908,-2.47 -1.591,-3.593 -4.446,-3.206 2.074,-8.057 4.236,-3.015 0.842,0.885 1.525,1.905 2.173,2.936 1.911,2.862 2.778,6.264 3.225,9.636 0.596,3.741 0.213,7.561 -0.802,11.191"
       opacity="1"
       fill="#9c3737"
       id="path126"
       style="fill-rule:nonzero" /><path
       d="m 819.317,184.756 c 2.409,3.325 -3.435,5.612 -4.851,2.004 -1.108,-0.871 -1.973,-2.037 -2.519,-3.334 -0.517,-1.362 -0.946,-2.759 -1.263,-4.182 -0.321,-1.558 -0.624,-3.119 -0.886,-4.688 -0.076,-1.441 -0.899,-2.759 -0.896,-4.201 6.016,-8.226 7.765,12.355 10.415,14.401"
       opacity="1"
       fill="#9c3737"
       id="path128"
       style="fill-rule:nonzero" /><path
       d="m 727.313,226.731 c -7.959,4.737 -4.515,-14.469 0.052,-13.629 0.786,-0.658 1.602,-1.276 2.46,-1.836 1.289,-0.7 2.52,-1.501 3.708,-2.359 2.213,-1.123 3.635,-3.504 5.899,-4.481 4.579,-0.637 2.767,6.183 0.674,7.718 -2.571,5.928 -4.717,14.829 -12.793,14.587"
       opacity="1"
       fill="#9c3737"
       id="path130"
       style="fill-rule:nonzero" /><path
       d="m 680.067,199.476 c -9.923,-0.186 4.35,-11.71 8.256,-12.475 8.169,2.202 -5.184,12.075 -8.256,12.475"
       opacity="1"
       fill="#9c3737"
       id="path132"
       style="fill-rule:nonzero" /><path
       d="m 699.592,215.028 c -5.702,2.445 -4.879,-6.733 -0.536,-7.872 0.972,-0.804 2.002,-1.535 3.046,-2.242 1.34,-0.921 2.748,-1.736 4.093,-2.649 2.285,-0.899 3.748,-3.631 6.256,-4.003 4.629,0.342 1.506,6.864 -1.572,7.291 -3.759,3.076 -6.012,8.775 -11.287,9.475"
       opacity="1"
       fill="#9c3737"
       id="path134"
       style="fill-rule:nonzero" /><path
       d="m 706.014,216.281 c -4.982,2.744 -5.766,-6.521 -0.084,-6.348 0.821,-0.575 1.627,-1.17 2.421,-1.782 3.399,-1.766 5.492,-6.069 9.249,-7.165 9.057,4.032 -10.672,12.456 -11.586,15.295"
       opacity="1"
       fill="#9c3737"
       id="path136"
       style="fill-rule:nonzero" /><path
       d="m 704.079,244.909 c 3.585,-3.131 3.728,6.534 -1.589,4.239 -0.972,0.081 -0.574,-1.296 -0.262,-1.63 7.421,-11.019 16.655,-20.725 23.651,-32.055 -0.172,-0.367 5.93,-12.43 7.514,-6.866 -9.74,13.788 -17.642,29.417 -29.566,41.401 -2.046,-0.372 -0.556,-3.808 0.252,-5.089"
       opacity="1"
       fill="#9c3737"
       id="path138"
       style="fill-rule:nonzero" /><path
       d="m 714.231,249.161 c -8.266,1.185 7.49,-14.279 6.098,-15.515 3.627,-6.067 7.032,-12.256 10.206,-18.576 -1.084,-2.239 3.731,-5.841 3.92,-2.423 -5.947,12.574 -11.68,25.42 -20.224,36.514"
       opacity="1"
       fill="#9c3737"
       id="path140"
       style="fill-rule:nonzero" /><path
       d="m 685.37,257.328 c -9.344,-0.548 14.113,-16.559 12.29,-19.485 4.895,-6.66 9.74,-13.362 14.55,-20.081 -1.038,-2.27 3.935,-5.736 3.967,-2.279 -6.492,16.255 -18.036,30.073 -30.807,41.845"
       opacity="1"
       fill="#9c3737"
       id="path142"
       style="fill-rule:nonzero" /><path
       d="m 670.463,247.597 c -0.846,0.962 -2.606,0.144 -2.414,-1.123 11.864,-14.526 27.906,-25.738 38.914,-41.146 5.335,-0.43 -2.529,8.541 -3.437,8.339 -10.216,12.071 -21.664,23 -33.063,33.93"
       opacity="1"
       fill="#9c3737"
       id="path144"
       style="fill-rule:nonzero" /><path
       d="m 660.045,240.074 c -5.148,-4.391 11.312,-2.892 10.14,-7.312 0.629,-0.557 1.258,-1.115 1.888,-1.673 0.951,-0.845 1.902,-1.692 2.85,-2.542 5.218,-4.748 10.331,-9.612 15.529,-14.383 -0.117,-1.513 7.422,-9.018 7.028,-3.74 -11.918,9.985 -20.901,28.628 -37.435,29.65"
       opacity="1"
       fill="#9c3737"
       id="path146"
       style="fill-rule:nonzero" /><path
       d="m 649.318,236.251 c -0.946,0.827 -2.499,-0.35 -1.957,-1.484 14.605,-12.167 29.958,-23.798 44.193,-36.462 5.15,0.446 -3.583,7.707 -4.454,7.306 -12.5,10.326 -24.97,20.699 -37.782,30.64"
       opacity="1"
       fill="#9c3737"
       id="path148"
       style="fill-rule:nonzero" /><path
       d="m 612.123,234.309 c -1.329,0.835 -2.852,-1.154 -1.699,-2.218 19.152,-11.689 36.078,-26.685 54.572,-39.327 5.883,1.398 -6.923,8.147 -6.982,8.046 -15.265,11.187 -29.839,23.452 -45.891,33.499"
       opacity="1"
       fill="#9c3737"
       id="path150"
       style="fill-rule:nonzero" /><path
       d="m 637.53,230.699 c -2.99,0.533 -1.775,-4.314 1.078,-3.178 4.279,-2.474 7.795,-6.031 11.634,-9.101 6.047,-5.008 12.063,-10.051 17.909,-15.294 -0.226,-2.398 5.654,-4.158 4.675,-0.885 -11.389,9.825 -22.3,20.944 -35.296,28.458"
       opacity="1"
       fill="#9c3737"
       id="path152"
       style="fill-rule:nonzero" /><path
       d="m 660.097,272.552 c -3.262,1.311 -2.337,-4.312 0.506,-4.247 6.277,-6.147 12.948,-11.933 18.356,-18.903 1.197,-1.431 2.395,-2.861 3.592,-4.292 1.151,-1.384 2.302,-2.769 3.454,-4.153 6.853,-8.311 13.738,-16.609 20.107,-25.303 0.394,-0.533 0.789,-1.065 1.183,-1.598 -0.992,-2.752 5.284,-5.373 4.397,-1.767 -16.124,20.844 -29.234,45.331 -51.595,60.263"
       opacity="1"
       fill="#9c3737"
       id="path154"
       style="fill-rule:nonzero" /><path
       d="m 697.764,287.032 c -2.396,2.401 -3.966,-3.07 -0.929,-3.879 0.465,-0.758 0.93,-1.516 1.395,-2.274 6.141,-10.07 12.479,-20.019 18.595,-30.105 1.065,-1.789 2.129,-3.579 3.194,-5.368 0.911,-1.583 1.821,-3.165 2.732,-4.747 0.757,-1.375 1.515,-2.75 2.272,-4.125 2.138,0.812 6.204,-20.17 9.769,-13.242 -10.869,22.03 -21.665,44.416 -37.028,63.74"
       opacity="1"
       fill="#9c3737"
       id="path156"
       style="fill-rule:nonzero" /><path
       d="m 722.145,298.807 c -3.153,2.426 -2.962,-5.033 0.284,-4.876 0.474,-0.736 0.948,-1.472 1.422,-2.208 9.005,-13.69 17,-28.049 23.418,-43.139 6.06,-14.199 12.243,-28.429 16.453,-43.311 -1.458,-0.019 2.472,-14.692 5.008,-8.962 -9.536,36.446 -24.933,71.586 -46.585,102.496"
       opacity="1"
       fill="#9c3737"
       id="path158"
       style="fill-rule:nonzero" /><path
       d="m 571.558,189.741 c 2.783,-1.632 2.834,4.915 -0.364,1.518 0.13,-0.829 1.004,-1.06 1.559,-1.548 22.991,-10.435 46.452,-20.073 68.182,-33.067 4.213,-2.516 8.365,-5.146 12.303,-8.077 1.982,-1.438 3.801,-3.077 5.613,-4.718 0.711,-0.669 1.417,-1.344 2.072,-2.068 1.856,-5.587 6.817,1.282 0.915,2.721 -1.529,1.514 -3.161,2.918 -4.797,4.313 -26.251,17.869 -54.258,35.214 -85.063,43.617 -1.562,-0.171 -0.29,-1.789 -0.42,-2.691"
       opacity="1"
       fill="#9c3737"
       id="path160"
       style="fill-rule:nonzero" /><path
       d="m 567.468,171.054 c -6.159,-2.758 9.97,-6.42 9.964,-5.262 20.478,-6.381 40.524,-14.059 60.293,-22.364 6.359,-2.73 12.81,-5.381 18.672,-9.101 0.664,-0.443 1.328,-0.885 1.929,-1.413 1.315,-3.865 5.478,0.454 1.619,1.935 -28.754,16.244 -60.735,27.256 -92.477,36.205"
       opacity="1"
       fill="#9c3737"
       id="path162"
       style="fill-rule:nonzero" /><path
       d="m 600.614,197.215 c -8.994,-3.083 17.463,-10.92 16.312,-12.246 5.077,-2.893 10.171,-5.756 15.238,-8.666 1.372,-0.795 2.745,-1.589 4.102,-2.409 2.812,-4.756 6.826,1.679 1.317,2.175 -1.366,0.831 -2.745,1.639 -4.123,2.449 -2.396,1.396 -4.799,2.782 -7.203,4.166 -2.67,1.535 -5.343,3.066 -8.019,4.593 -5.869,3.323 -11.71,6.695 -17.624,9.938"
       opacity="1"
       fill="#9c3737"
       id="path164"
       style="fill-rule:nonzero" /><path
       d="m 557.806,133.358 c -3.748,-0.962 1.222,-5.499 3.517,-2.903 0.857,-0.119 1.714,-0.237 2.571,-0.356 12.519,-2.407 24.893,-5.524 37.246,-8.659 11.522,-3.048 23.112,-5.915 34.417,-9.713 0.541,-0.207 1.082,-0.414 1.622,-0.621 0.924,-2.817 6.134,-0.978 3.644,1.072 -26.568,10.234 -54.52,19.271 -83.017,21.18"
       opacity="1"
       fill="#9c3737"
       id="path166"
       style="fill-rule:nonzero" /><path
       d="m 554.062,67.6485 c -1.332,-0.0242 -1.821,-1.9977 -0.653,-2.6398 19.311,-0.5101 38.814,3.1638 58.188,3.1251 3.318,0.0584 6.638,0.0751 9.956,-0.0066 1.651,-0.0542 3.302,-0.114 4.951,-0.1973 0.971,-0.0581 1.941,-0.1153 2.908,-0.2223 3.55,-2.3533 4.378,3.7244 0.273,2.5247 -25.211,2.3188 -50.534,0.0939 -75.623,-2.5838"
       opacity="1"
       fill="#9c3737"
       id="path168"
       style="fill-rule:nonzero" /><path
       d="m 558.594,50.1358 c 1.046,-4.4598 4.43,2.4584 6.189,1.1105 16.212,1.5722 32.475,3.1907 48.807,3.1143 6.252,0.1352 12.514,-0.0437 18.741,-0.6292 2.635,-0.2869 5.269,-0.5783 7.901,-0.8947 1.591,-0.3075 3.257,-0.2826 4.82,-0.7515 5.612,-4.9926 7.789,4.3269 0.513,2.486 -1.633,0.4767 -3.363,0.4822 -5.026,0.7867 -4.188,0.4803 -8.371,1.0368 -12.584,1.2647 -4.778,0.3015 -9.569,0.3816 -14.356,0.279 -3.178,-0.0387 -6.357,-0.0927 -9.535,-0.1636 -4.549,-0.0859 -9.093,-0.3057 -13.642,-0.3954 -9.153,-2.9563 -26.95,5.4274 -31.828,-6.2068"
       opacity="1"
       fill="#9c3737"
       id="path170"
       style="fill-rule:nonzero" /><path
       d="m 564.296,37.9035 c -2.469,-1.3835 1.324,-4.0431 2.724,-1.6554 0.757,0.076 1.515,0.1519 2.272,0.2279 11.959,0.5463 23.945,0.0983 35.898,0.8385 14.996,0.3089 29.989,0.6667 44.988,0.5669 0.31,-2.1704 10.547,-0.043 6.74,2.7144 -30.81,-0.1355 -62.069,0.1261 -92.622,-2.6923"
       opacity="1"
       fill="#9c3737"
       id="path172"
       style="fill-rule:nonzero" /><path
       d="m 729.568,206.349 c -24.508,-6.836 -40.713,-17.716 -57.899,-36.055 -4.702,-5.017 -9.321,-10.082 -13.984,-15.119 -6.761,-7.304 -14.868,-13.349 -19.804,-22.181 -6.174,-11.048 -11.891,-24.809 -14.054,-37.3234 -5.277,-30.5379 11.606,-64.7635 38.456,-80.1506 9.573,-5.4856 20.653,-5.86005 31.392,-5.98035 49.0773,-12.5537344 98.46119,5.016099 119.95982,25.382348 15.29486,18.214831 8.79378,36.868387 11.34778,52.749787 1.184,7.3617 2.36718,14.584495 3.39118,21.983495 1.665,12.036 -0.96778,26.22972 -3.50878,38.37472 -1.759,8.409 -5.658,16.29 -8.644,24.297 -3.524,9.454 -7.034,21.161 -15.405,27.689 -5.485,4.277 -12.377,6.392 -18.725,8.957 -3.458,1.397 -15.811,0.363 -19.514,1.108"
       opacity="1"
       fill="#9c3737"
       id="path175"
       style="fill-rule:nonzero"
       sodipodi:nodetypes="ccccccccscccccc" /><path
       d="m 562.721,76.6108 c -3.065,-1.2163 0.167,-5.4625 2.493,-3.1012 0.983,0.3711 1.967,0.7422 2.95,1.1133 11.933,2.446 24.135,3.3411 36.265,4.2306 11.489,0.5554 22.999,0.064 34.481,-0.459 2.01,-2.6056 8.515,0.7847 4.874,3.0185 -26.981,1.8662 -54.727,1.8705 -81.063,-4.8022"
       opacity="1"
       fill="#9c3737"
       id="path185"
       style="fill-rule:nonzero" /><path
       d="m 576.011,53.7516 c -3.862,-2.228 2.493,-6.2 4.476,-2.3067 0.705,0.2766 1.41,0.5532 2.115,0.8297 13.364,3.8087 27.009,6.6895 40.735,8.8382 11.561,1.4018 23.226,1.7632 34.862,1.6765 1.225,-0.0729 2.451,-0.1437 3.677,-0.2089 1.979,-2.7174 9.246,0.8133 5.306,3.1428 -30.791,2.1823 -61.87,-2.4955 -91.171,-11.9716"
       opacity="1"
       fill="#9c3737"
       id="path187"
       style="fill-rule:nonzero" /><path
       d="m 673.578,45.0199 c 4.109,0.807 -0.606,6.2531 -3.45,3.3678 -1.138,-0.0123 -2.276,-0.0247 -3.413,-0.037 -3.202,-0.0096 -6.403,-0.0904 -9.603,-0.2088 -6.062,-0.2473 -12.117,-0.6566 -18.164,-1.1385 -5.043,-0.3827 -10.086,-0.7724 -15.126,-1.2008 -4.85,-0.3642 -9.678,-0.9916 -14.469,-1.8245 -3.094,-0.5726 -6.188,-1.1447 -9.278,-1.7382 -8.447,2.5098 -6.159,-8.9066 0.637,-3.3446 1.815,0.3484 3.632,0.6894 5.449,1.0293 3.641,0.717 7.304,1.3199 10.986,1.7842 18.753,1.834 37.573,3.3787 56.431,3.3111"
       opacity="1"
       fill="#9c3737"
       id="path189"
       style="fill-rule:nonzero" /><path
       d="m 664.813,71.4441 c 1.674,-0.1562 2.438,2.3396 0.961,3.1456 -26.127,3.359 -52.329,-2.3984 -78.102,-6.2116 -3.478,-2.569 3.463,-5.409 5.232,-2.6231 10.105,1.4507 20.25,2.6055 30.4,3.694 13.797,1.3063 27.634,2.6741 41.509,1.9951"
       opacity="1"
       fill="#9c3737"
       id="path191"
       style="fill-rule:nonzero" /><path
       d="m 573.931,142.028 c -4.145,0.281 -1.659,-6.113 2.018,-4.262 0.936,-0.187 1.871,-0.374 2.807,-0.561 11.741,-2.149 23.234,-5.489 34.513,-9.361 10.868,-4.027 21.522,-8.718 31.604,-14.454 0.67,-0.38 1.34,-0.759 2.01,-1.139 0.517,-3.658 8.7,-3.304 5.88,0.429 -23.974,15.041 -51.254,23.73 -78.832,29.348"
       opacity="1"
       fill="#9c3737"
       id="path193"
       style="fill-rule:nonzero" /><path
       d="m 579.61,131.748 c -3.522,-0.917 0.15,-5.512 2.746,-3.088 0.795,-0.026 1.59,-0.052 2.385,-0.077 12.543,-0.957 25.197,-1.953 37.367,-5.329 12.192,-3.265 23.989,-7.893 35.363,-13.341 0.698,-0.328 1.396,-0.656 2.094,-0.984 1.01,-3.09 7.728,-2.123 5.284,1.113 -26.178,13.665 -55.531,22.496 -85.239,21.706"
       opacity="1"
       fill="#9c3737"
       id="path195"
       style="fill-rule:nonzero" /><path
       d="m 576.192,140.849 c -3.405,-0.606 -0.447,-5.346 2.273,-3.269 0.688,0.043 1.375,0.086 2.063,0.129 0.917,0.057 1.833,0.115 2.75,0.172 10.458,0.084 20.941,-1.023 31.221,-2.918 13.058,-2.588 25.931,-6.063 38.58,-10.206 0.834,-0.273 1.668,-0.545 2.502,-0.817 0.626,-0.208 1.251,-0.415 1.877,-0.622 1.66,-2.876 7.173,-0.331 4.269,2.066 -27.433,9.339 -56.258,17.634 -85.535,15.465"
       opacity="1"
       fill="#9c3737"
       id="path197"
       style="fill-rule:nonzero" /><path
       d="m 592.938,151.482 c -4.159,-0.089 -1.103,-6.246 2.398,-4.067 0.951,-0.104 1.903,-0.207 2.854,-0.31 8.116,-0.734 16.064,-2.664 24.028,-4.302 3.226,-0.726 6.451,-1.453 9.677,-2.179 2.671,-0.618 5.342,-1.236 8.014,-1.853 l 6.351,-1.527 c 1.563,-0.401 3.126,-0.801 4.689,-1.202 2.289,1.699 15.33983,-9.97553 12.87083,-0.97753 -25.004,8.331 -44.80683,12.65153 -70.88183,16.41753"
       opacity="1"
       fill="#9c3737"
       id="path199"
       style="fill-rule:nonzero"
       sodipodi:nodetypes="cccccccccc" /><path
       d="m 611.262,171.473 c -3.022,-0.351 0.486,-4.329 2.466,-2.641 5.89,-1.652 11.65,-3.746 17.318,-6.04 1.604,-0.652 3.203,-1.315 4.798,-1.986 1.663,-0.704 3.322,-1.417 4.977,-2.138 1.669,-0.733 3.335,-1.474 4.996,-2.224 0.771,-0.356 1.542,-0.711 2.313,-1.067 4.295,2.258 17.558,-15.282 19.787,-8.028 -17.671,10.198 -36.748,19.209 -56.655,24.124"
       opacity="1"
       fill="#9c3737"
       id="path201"
       style="fill-rule:nonzero" /><path
       d="m 616.787,191.456 c -3.398,0.082 -0.066,-5.025 2.45,-3.108 9.554,-3.052 18.99,-6.473 28.383,-9.985 12.461,-5.119 24.486,-11.285 36.21,-17.905 0.202,0.108 8.252,-7.753 7.993,-2.895 -22.631,15.696 -48.915,25.616 -75.036,33.893"
       opacity="1"
       fill="#9c3737"
       id="path203"
       style="fill-rule:nonzero" /><path
       d="m 638.072,208.962 c -3.427,-0.104 0.752,-4.943 2.813,-3.164 6.099,-2.378 12.125,-4.946 18.076,-7.672 1.813,-0.847 3.622,-1.702 5.426,-2.569 8.463,-3.952 16.653,-8.497 24.316,-13.846 -0.082,-1.17 6.824,-5.372 6.113,-1.517 -17.226,12.484 -36.454,22.275 -56.744,28.768"
       opacity="1"
       fill="#9c3737"
       id="path205"
       style="fill-rule:nonzero" /><path
       d="m 606.546,181.97 c -1.35,0.219 -1.678,-1.991 -0.322,-2.172 22.018,-5.999 42.249,-17.814 63.24,-26.704 5.247,3.527 -11.787,5.818 -11.108,7.517 -17.151,7.17 -33.458,17.779 -51.81,21.359"
       opacity="1"
       fill="#9c3737"
       id="path207"
       style="fill-rule:nonzero" /><path
       d="m 587.683,171.23 c -2.853,0.014 -0.299,-4.171 1.905,-2.689 0.97,-0.307 1.94,-0.614 2.911,-0.921 12.467,-4.232 24.968,-8.399 37.234,-13.191 8.118,-3.502 16.002,-7.511 23.907,-11.461 -0.026,-2.641 7.264,-2.915 4.895,-0.031 -17.214,9.068 -34.957,17.127 -53.611,22.806 -5.761,1.752 -11.316,4.297 -17.241,5.487"
       opacity="1"
       fill="#9c3737"
       id="path209"
       style="fill-rule:nonzero" /><path
       d="m 618.452,200.062 c -3.518,-0.13 0.433,-5.189 2.813,-3.094 1.042,-0.353 2.085,-0.706 3.127,-1.058 12.185,-4.584 24.337,-9.297 36.226,-14.608 10.432,-5.267 20.148,-11.837 29.837,-18.338 -0.492,-0.807 8.609,-7.29 7.639,-2.559 -18.977,13.502 -38.938,25.876 -61.219,33.222 -6.107,2.199 -11.999,5.228 -18.423,6.435"
       opacity="1"
       fill="#9c3737"
       id="path211"
       style="fill-rule:nonzero" /><path
       d="m 633.248,203.974 c -3.07,0.152 -0.568,-4.588 1.937,-2.962 0.838,-0.197 1.676,-0.393 2.515,-0.59 10.376,-2.154 20.257,-6.157 29.725,-10.845 8.315,-4.006 16.125,-9.021 23.616,-14.398 -0.524,-2.76 6.685,-4.088 4.711,-0.88 -18.293,14.345 -39.75,24.755 -62.504,29.675"
       opacity="1"
       fill="#9c3737"
       id="path213"
       style="fill-rule:nonzero" /><path
       d="m 662.094,214.187 c 2.901,-1.506 2.33,4.962 -1.328,1.835 9.278,-13.341 27.509,-20.622 38.26,-33.615 2.362,-2.322 -0.37678,-3.5726 1.73622,-6.1256 0.69,-0.855 0.84584,-3.47562 1.45684,-4.38762 -0.391,-5.093 10.31337,-2.34178 6.36937,0.77022 -0.749,1.39 -2.2422,3.36026 -3.2332,4.58226 -1.531,1.866 -1.03123,2.89374 -2.67523,4.65774 -1.406,1.485 -2.826,2.955 -4.255,4.417 -2.668,2.794 -5.507,5.419 -8.398,7.978 -2.451,2.151 -4.941,4.256 -7.453,6.335 -2.286,1.874 -4.59,3.725 -6.928,5.534 -2.55,2.007 -5.234,3.831 -7.878,5.708 -1.994,-0.173 -6.192,7.17 -5.674,2.311"
       opacity="1"
       fill="#9c3737"
       id="path215"
       style="fill-rule:nonzero"
       sodipodi:nodetypes="cccccccccccccc" /><path
       d="m 679.039,220.621 c -2.862,0.521 -1.239,-4.019 1.228,-3.197 5.935,-3.575 11.601,-7.581 17.258,-11.576 5.328,-3.951 10.529,-8.074 15.682,-12.25 0.029,-2.021 4.845,-3.277 3.937,-0.527 -12.187,9.727 -24.042,20.745 -38.105,27.55"
       opacity="1"
       fill="#9c3737"
       id="path217"
       style="fill-rule:nonzero" /><path
       d="m 695.092,230.341 c -2.822,0.99 -1.907,-4.074 0.908,-3.302 0.705,-0.394 1.411,-0.787 2.117,-1.181 7.891,-4.28 15.365,-9.283 22.618,-14.561 6.748,-5.025 13.557,-10.038 19.612,-15.901 0.675,-0.668 1.345,-1.339 1.99,-2.036 0.933,-4.941 6.333,-0.661 1.623,1.475 -14.389,14.174 -31.434,25.435 -48.868,35.506"
       opacity="1"
       fill="#9c3737"
       id="path219"
       style="fill-rule:nonzero" /><path
       d="m 709.594,238.558 c -3.185,1.29 -1.775,-4.935 1.308,-3.865 7.554,-4.91 14.694,-10.42 21.171,-16.687 7.086,-6.7 13.99,-13.612 20.479,-20.896 -1.047,-2.599 5.921,-5.54 4.573,-1.896 -14.197,16.103 -29.492,31.524 -47.531,43.344"
       opacity="1"
       fill="#9c3737"
       id="path221"
       style="fill-rule:nonzero" /><path
       d="m 691.486,223.187 c -3.571,1.665 -3.764,-4.855 0.236,-4.387 0.739,-0.402 1.477,-0.805 2.216,-1.207 0.984,-0.537 1.968,-1.073 2.953,-1.61 2.897,-1.642 5.713,-3.428 8.429,-5.354 7.592,-5.453 14.948,-11.219 22.307,-16.979 -0.759,-2.586 6.626,-4.385 4.92,-1.072 -13.35,10.647 -27.023,20.885 -41.061,30.609"
       opacity="1"
       fill="#9c3737"
       id="path223"
       style="fill-rule:nonzero" /><path
       d="m 671.647,215.604 c -8.039,-4.196 19.82,-8.149 18.866,-11.395 1.12,-0.56 2.24,-1.121 3.36,-1.681 1.237,-0.627 2.474,-1.254 3.711,-1.881 1.136,-0.598 2.273,-1.196 3.41,-1.794 2.685,2.404 18.268,-16.736 18.41,-8.637 -14.894,10.268 -31.432,17.732 -47.757,25.388"
       opacity="1"
       fill="#9c3737"
       id="path225"
       style="fill-rule:nonzero" /><path
       d="m 652.312,213.549 c -1.351,0.616 -2.416,-1.537 -1.106,-2.235 18.572,-7.337 37.188,-14.612 55.638,-22.239 4.671,2.038 -6.747,5.734 -6.989,5.231 -15.838,6.439 -31.713,12.785 -47.543,19.243"
       opacity="1"
       fill="#9c3737"
       id="path227"
       style="fill-rule:nonzero" /><path
       d="m 627.66,207.205 c -2.131,0.534 -1.687,-3.001 0.445,-2.502 0.8,-0.292 1.6,-0.584 2.4,-0.876 9.563,-3.599 19.29,-6.794 28.668,-10.867 8.665,-3.847 16.976,-8.418 25.41,-12.731 0.1,-2.055 6.701,-3.209 4.924,-0.145 -19.672,11.074 -40.414,20.032 -61.847,27.121"
       opacity="1"
       fill="#9c3737"
       id="path229"
       style="fill-rule:nonzero" /><path
       d="m 623.651,200.109 c -3.347,0.032 0.425,-4.869 2.602,-3.129 0.675,-0.237 1.35,-0.474 2.025,-0.711 9.541,-3.345 19.087,-6.821 27.872,-11.899 2.131,-1.189 4.232,-2.427 6.291,-3.736 4.85,-3.418 10.499,-6.735 13.04,-12.367 -4.323,-8.31 7.551,-3.886 0.434,3.628 -13.382,15.175 -33.622,21.857 -52.264,28.214"
       opacity="1"
       fill="#9c3737"
       id="path231"
       style="fill-rule:nonzero" /><path
       d="m 664.413,235.266 c -3.392,2.173 -3.185,-4.911 0.321,-4.804 4.113,-4.791 7.929,-9.831 11.418,-15.093 0.8,-1.2 1.6,-2.401 2.399,-3.601 4.538,-6.863 8.776,-13.917 12.986,-20.985 -1.563,-1.841 4.418,-6.976 4.313,-3.13 -9.33,16.512 -17.513,34.35 -31.437,47.613"
       opacity="1"
       fill="#9c3737"
       id="path233"
       style="fill-rule:nonzero" /><path
       d="m 684.52,231.898 c -0.842,1.207 -2.823,-0.129 -2.019,-1.362 10.796,-14.898 18.657,-31.807 26.239,-48.522 4.423,-1.827 -0.199,7.695 -1.031,7.683 -6.788,14.53 -14.13,28.946 -23.189,42.201"
       opacity="1"
       fill="#9c3737"
       id="path235"
       style="fill-rule:nonzero" /><path
       d="m 694.238,230.585 c -2.604,2.412 -3.007,-4.626 0.087,-4.429 0.438,-0.733 0.877,-1.467 1.315,-2.2 5.248,-7.331 8.304,-16.721 14.1,-23.551 4.163,0.003 -2.177,7.26 -2.074,7.261 -4.436,7.663 -8.853,15.338 -13.428,22.919"
       opacity="1"
       fill="#9c3737"
       id="path237"
       style="fill-rule:nonzero" /><path
       d="m 705.82,230.698 c -8.186,0.87 8.962,-15.007 7.129,-17.26 2.231,-4.182 4.538,-8.325 6.684,-12.553 0.66,-1.311 1.314,-2.627 1.924,-3.962 0.406,-0.858 0.814,-1.715 1.229,-2.568 0.61,-5.617 6.359,-0.549 1.43,2.092 -0.866,1.807 -1.703,3.627 -2.566,5.435 -1.516,3.206 -3.039,6.409 -4.564,9.612 -3.224,6.688 -6.145,13.689 -11.266,19.204"
       opacity="1"
       fill="#9c3737"
       id="path239"
       style="fill-rule:nonzero" /><path
       d="m 717.554,231.032 c -6.227,1.686 4.577,-11.608 4.579,-10.975 2.224,-3.59 4.366,-7.23 6.551,-10.843 0.468,-0.777 0.936,-1.553 1.403,-2.33 -0.653,-4.915 6.386,-3.521 2.751,-0.302 -0.761,1.256 -1.518,2.514 -2.276,3.772 -1.47,2.444 -2.939,4.889 -4.407,7.334 -2.71,4.548 -5.572,9.002 -8.601,13.344"
       opacity="1"
       fill="#9c3737"
       id="path241"
       style="fill-rule:nonzero" /><path
       d="m 705.802,209.482 c -7.48,0.146 8.282,-14.014 10.104,-15.927 2.148,0.156 0.639,3.273 -0.606,3.61 -3.085,4.166 -5.966,8.504 -9.498,12.317"
       opacity="1"
       fill="#9c3737"
       id="path243"
       style="fill-rule:nonzero" /><path
       d="m 651.874,223.155 c 2.935,-1.473 1.155,5.103 0.248,0.099 12.353,-10.031 24.868,-20.051 36.848,-30.596 2.128,0.931 11.022,-16.221 12.074,-9.279 -14.326,15.207 -30.384,29.082 -46.801,41.915 -1.122,0.491 -2.519,0.731 -3.642,0.105 -0.638,-0.916 0.863,-1.541 1.273,-2.244"
       opacity="1"
       fill="#9c3737"
       id="path245"
       style="fill-rule:nonzero" /><path
       d="m 645.468,215.201 c -3.668,-3.904 8.877,-1.676 7.935,-5.559 0.565,-0.438 1.13,-0.876 1.695,-1.314 0.608,-0.492 1.216,-0.984 1.825,-1.476 1.361,-1.128 2.706,-2.275 4.041,-3.435 1.477,-1.303 2.949,-2.611 4.416,-3.926 7.782,-6.995 15.378,-14.192 22.929,-21.435 -0.866,-2.014 6.23,-5.544 5.218,-1.838 -14.464,12.333 -26.174,27.969 -42.23,38.323 -1.789,0.912 -3.898,1.493 -5.829,0.66"
       opacity="1"
       fill="#9c3737"
       id="path247"
       style="fill-rule:nonzero" /><path
       d="m 638.642,207.458 c -3.931,-0.318 1.318,-5.381 3.206,-4.072 7.908,-4.952 15.739,-10.051 23.212,-15.645 0.767,-0.585 1.535,-1.169 2.302,-1.754 0.701,-0.554 1.403,-1.107 2.104,-1.66 0.636,-0.522 1.271,-1.043 1.907,-1.565 3.219,1.739 14.005,-19.509 15.393,-11.761 -13.98,14.282 -29.776,28.595 -48.124,36.457"
       opacity="1"
       fill="#9c3737"
       id="path249"
       style="fill-rule:nonzero" /><path
       d="m 633.642,203.189 c -0.858,0.724 -2.205,-0.406 -1.639,-1.376 11.451,-10.28 24.973,-18.036 36.474,-28.288 2.935,1.145 11.596,-17.216 13.211,-10.186 -13.862,15.603 -31.216,27.692 -48.046,39.85"
       opacity="1"
       fill="#9c3737"
       id="path251"
       style="fill-rule:nonzero" /><path
       d="m 624.232,197.025 c -2.635,-0.258 -0.62,-3.399 1.209,-3.221 6.586,-4.991 13.231,-9.924 19.622,-15.173 1.159,-0.926 2.315,-1.857 3.482,-2.774 5.737,-4.988 11.252,-10.232 16.592,-15.642 -0.477,-2.53 5.535,-3.834 4.165,-0.857 -14.865,11.756 -26.703,31.925 -45.07,37.667"
       opacity="1"
       fill="#9c3737"
       id="path253"
       style="fill-rule:nonzero" /><path
       d="m 624.022,190.11 c -9.154,-1.616 14.873,-13.232 14.017,-15.505 0.883,-0.827 1.766,-1.653 2.649,-2.48 0.849,-0.821 1.698,-1.642 2.547,-2.463 0.815,-0.816 1.63,-1.632 2.446,-2.447 2.556,1.637 10.908,-18.191 13.021,-11.163 -10.118,12.706 -21.273,24.743 -34.68,34.058"
       opacity="1"
       fill="#9c3737"
       id="path255"
       style="fill-rule:nonzero" /><path
       d="m 620.402,185.635 c -1.429,1.356 -3.071,-1.361 -1.288,-2.172 12.341,-13.218 28.71,-21.627 42.342,-33.352 1.576,1.345 12.19,-15.489 13.29,-8.578 -16.668,16.489 -37.021,28.494 -54.344,44.102"
       opacity="1"
       fill="#9c3737"
       id="path257"
       style="fill-rule:nonzero" /><path
       d="m 621.247,176.985 c -1.128,0.673 -2.262,-1.13 -1.166,-1.854 12.45,-8.132 23.213,-18.725 35.661,-26.944 -0.388,-0.495 8.353,-7.486 7.834,-2.772 -14.092,10.488 -27.449,22.179 -42.329,31.57"
       opacity="1"
       fill="#9c3737"
       id="path259"
       style="fill-rule:nonzero" /><path
       d="m 616.075,172.302 c -0.447,0.852 -1.871,0.617 -2.019,-0.334 7.569,-18.609 29.053,-25.944 45.575,-34.434 3.349,-1.585 2.675,3.794 -0.688,2.539 -0.712,0.271 -1.417,0.559 -2.12,0.852 -6.156,2.958 -11.911,6.675 -17.652,10.354 -8.744,5.717 -18.172,11.36 -23.096,21.023"
       opacity="1"
       fill="#9c3737"
       id="path261"
       style="fill-rule:nonzero" /><path
       d="m 608.488,166.963 c -2.046,2.606 -3.879,-2.939 -0.851,-3.692 8.876,-10.664 21.797,-16.736 33.077,-24.421 0.447,0.171 9.356,-8.91 9.197,-3.638 -13.546,10.685 -30.123,18.798 -41.423,31.751"
       opacity="1"
       fill="#9c3737"
       id="path263"
       style="fill-rule:nonzero" /><path
       d="m 607.481,180.695 c -1.151,1.139 -2.709,-1.009 -1.299,-1.799 12.306,-10.912 26.235,-19.901 40.816,-27.436 6.167,4.675 -15.763,8.154 -17.093,12.275 -7.54,5.545 -15.608,10.51 -22.424,16.96"
       opacity="1"
       fill="#9c3737"
       id="path265"
       style="fill-rule:nonzero" /><path
       d="m 641.632,179.256 c -0.82,0.795 -2.254,-0.286 -1.715,-1.293 13.013,-11.734 27.919,-21.219 42.545,-30.83 7.664,3.366 -18.586,10.815 -17.265,14.045 -8.074,5.725 -16.081,11.593 -23.565,18.078"
       opacity="1"
       fill="#9c3737"
       id="path267"
       style="fill-rule:nonzero" /><path
       d="m 651.736,181.175 c -7.446,-2.554 15.793,-10.023 13.817,-11.928 5.09,-3.574 10.188,-7.137 15.232,-10.775 1.559,-1.141 3.118,-2.285 4.668,-3.439 1.861,-6.038 8.508,-0.702 2.403,0.945 -1.321,0.995 -2.653,1.977 -3.985,2.957 -2.577,1.91 -5.203,3.754 -7.817,5.613 -3.076,2.173 -6.158,4.338 -9.242,6.5 -5.01,3.389 -9.835,7.09 -15.076,10.127"
       opacity="1"
       fill="#9c3737"
       id="path269"
       style="fill-rule:nonzero" /><path
       d="m 649.11,187.306 c -0.986,0.803 -2.363,-0.712 -1.469,-1.616 14.196,-10.341 28.89,-20.055 43.294,-30.081 4.921,1.574 -6.202,6.777 -6.369,7.002 -11.691,8.417 -23.884,16.113 -35.456,24.695"
       opacity="1"
       fill="#9c3737"
       id="path271"
       style="fill-rule:nonzero" /><path
       d="m 651.565,189.251 c -0.98,0.456 -2.123,-0.661 -1.688,-1.651 13.947,-9.646 29.437,-17.774 43.947,-26.672 4.454,1.551 -5.358,6.477 -5.527,6.637 -11.621,8.093 -23.259,16.968 -36.732,21.686"
       opacity="1"
       fill="#9c3737"
       id="path273"
       style="fill-rule:nonzero" /><path
       d="m 658.937,195.427 c -1.011,0.736 -2.302,-0.802 -1.401,-1.67 12.163,-7.96 24.487,-15.794 35.815,-24.916 4.557,0.815 -3.9,6.627 -4.645,6.474 -9.44,7.381 -19.832,13.435 -29.769,20.112"
       opacity="1"
       fill="#9c3737"
       id="path275"
       style="fill-rule:nonzero" /><path
       d="m 726.841,233.457 c -2.882,1.593 -1.955,-4.501 0.674,-4.077 0.488,-0.554 0.976,-1.109 1.465,-1.663 5.967,-6.888 11.783,-13.907 17.598,-20.924 0.638,-0.792 1.277,-1.584 1.915,-2.375 4.313,-5.252 8.128,-10.874 11.998,-16.451 -0.596,-1.915 3.919,-4.775 3.786,-1.743 -11.899,16.11 -21.896,34.295 -37.436,47.233"
       opacity="1"
       fill="#9c3737"
       id="path277"
       style="fill-rule:nonzero" /><path
       d="m 742.595,241.986 c -4.258,0.369 1.174,-5.824 1.673,-6.069 4.665,-8.523 9.036,-17.208 13.934,-25.604 3.86,-6.921 7.679,-13.891 10.758,-21.202 -1.433,-2.113 3.391,-5.446 3.366,-2.323 -8.579,18.738 -14.537,40.93 -29.731,55.198"
       opacity="1"
       fill="#9c3737"
       id="path279"
       style="fill-rule:nonzero" /><path
       d="m 751.596,244.272 c -2.523,1.821 -2.914,-3.422 -0.169,-3.672 4.367,-6.072 8.581,-12.258 12.598,-18.567 3.943,-6.394 7.198,-13.175 10.73,-19.796 -0.996,-1.918 3.593,-5.329 3.674,-2.223 -8.001,15.253 -15.108,31.395 -26.833,44.258"
       opacity="1"
       fill="#9c3737"
       id="path281"
       style="fill-rule:nonzero" /><path
       d="m 762.845,248.153 c -4.067,0.99 0.093,-5.961 1.061,-6.069 4.613,-7.856 9.318,-15.664 13.555,-23.733 3.599,-6.813 6.697,-13.873 9.79,-20.925 -1.463,-1.878 3.367,-6.417 3.595,-2.938 -8.796,17.897 -14.515,39.031 -28.001,53.665"
       opacity="1"
       fill="#9c3737"
       id="path283"
       style="fill-rule:nonzero" /><path
       d="m 740.204,242.84 c -0.644,1.284 -2.757,0.325 -2.214,-1.005 7.68,-13.654 16.128,-27.004 25.75,-39.368 2.806,-1.034 1.541,4.121 -0.508,4.102 -4.033,5.58 -7.749,11.383 -11.721,17.008 -4.136,6.199 -7.632,12.788 -11.307,19.263"
       opacity="1"
       fill="#9c3737"
       id="path285"
       style="fill-rule:nonzero" /><path
       d="m 732.941,232.19 c -8.38,-1.643 14.007,-11.368 11.919,-15.452 0.69,-0.969 1.38,-1.939 2.069,-2.908 3.426,-4.953 6.873,-9.906 9.843,-15.15 0.981,0.106 4.795,-14.975 7.39,-9.482 -7.973,15.8 -16.55,32.388 -31.221,42.992"
       opacity="1"
       fill="#9c3737"
       id="path287"
       style="fill-rule:nonzero" /><path
       d="m 771.347,239.619 c -1.819,3.073 -4.397,-2.978 -1.316,-4.022 2.031,-7.153 3.963,-14.333 5.836,-21.528 0.865,-3.538 1.836,-7.154 1.89,-10.809 -0.113,-1.654 -0.255,-3.318 -0.673,-4.928 -4.504,-3.867 2.896,-6.621 2.137,-0.576 0.39,1.309 0.645,2.653 0.857,4 0.531,2.383 0.483,4.827 0.163,7.234 -0.416,1.959 -0.97,3.883 -1.508,5.811 -0.467,1.563 -0.933,3.127 -1.399,4.69 -1.104,3.541 -2.204,7.084 -3.289,10.631 -0.981,3.142 -1.897,6.304 -2.698,9.497"
       opacity="1"
       fill="#9c3737"
       id="path289"
       style="fill-rule:nonzero" /><path
       d="m 792.418,226.604 c -6.427,5.89 -2.023,-21.527 -2.923,-21.493 0.009,-3.162 0.038,-6.327 -0.098,-9.488 -0.087,-2.819 -0.17,-5.638 -0.245,-8.457 -4.201,-7.446 6.051,-7.627 2.25,-0.097 0.065,2.062 0.226,4.12 0.445,6.17 0.819,5.499 1.106,11.055 1.123,16.612 -0.314,5.551 0.661,11.28 -0.552,16.753"
       opacity="1"
       fill="#9c3737"
       id="path291"
       style="fill-rule:nonzero" /><path
       d="m 712.441,260.67 c -0.912,1.988 -3.312,-0.473 -1.794,-1.89 3.436,-12.738 13.795,-22.282 19.457,-34.032 1.87,-3.185 3.702,-6.391 5.492,-9.621 0.8,-1.434 1.6,-2.868 2.4,-4.302 0.702,-1.266 1.404,-2.533 2.106,-3.8 4.541,-7.664 8.19,-15.79 11.289,-24.131 -1.097,-0.841 2.018,-8.045 3.664,-4.649 -8.971,29.902 -26.209,56.347 -42.614,82.425"
       opacity="1"
       fill="#9c3737"
       id="path293"
       style="fill-rule:nonzero" /><path
       d="m 741.449,255.441 c -0.598,1.1 -2.457,0.505 -2.303,-0.738 5.515,-11.197 13.035,-21.397 18.631,-32.582 2.887,0.505 6.173,-23.539 10.418,-16.752 -7.984,17.141 -16.016,34.441 -26.746,50.072"
       opacity="1"
       fill="#9c3737"
       id="path295"
       style="fill-rule:nonzero" /><path
       d="m 594.45,130.183 c 3.421,0.781 -2.01,5.215 -2.558,0.717 10.842,-10.485 28.256,-13.746 41.929,-20.585 4.472,2.519 -6.665,5.021 -7.647,5.446 -10.807,4.909 -22.12,9.013 -32.254,15.245 -0.922,0.047 -0.418,-1.248 0.53,-0.823"
       opacity="1"
       fill="#9c3737"
       id="path297"
       style="fill-rule:nonzero" /><path
       d="m 648.362,106.832 c -6.756,-2.716 11.492,-5.348 0,0"
       opacity="1"
       fill="#9c3737"
       id="path299"
       style="fill-rule:nonzero" /><path
       d="m 579.36,120.592 c -3.845,-0.833 2.006,-5.27 3.833,-3.307 8.282,-2.6 16.55,-5.256 24.716,-8.204 8.734,-3.121 17.479,-6.233 26.004,-9.8951 -0.072,-2.1463 7.202,-3.1322 5.122,-0.0543 -18.84,9.3984 -38.745,18.4574 -59.675,21.4604"
       opacity="1"
       fill="#9c3737"
       id="path301"
       style="fill-rule:nonzero" /><path
       d="m 588.406,110.841 c -3.064,-0.017 -0.403,-4.408 1.963,-2.918 6.659,-2.069 13.269,-4.297 19.861,-6.571 7.807,-2.6951 15.422,-5.9015 23.151,-8.8067 0.505,-2.0909 6.625,-2.2552 4.518,0.4479 -15.81,7.6938 -32.615,13.0318 -49.493,17.8478"
       opacity="1"
       fill="#9c3737"
       id="path303"
       style="fill-rule:nonzero" /><path
       d="m 583.126,100.116 c -1.232,0.456 -2.017,-1.5246 -0.807,-2.0363 14.878,-4.7165 30.335,-7.5812 45.408,-11.4958 3.732,2.4792 -6.259,4.5686 -6.487,3.9269 -12.575,3.728 -25.465,6.2285 -38.114,9.6052"
       opacity="1"
       fill="#9c3737"
       id="path305"
       style="fill-rule:nonzero" /><path
       d="m 582.065,88.4458 c -2.741,-0.6774 0.717,-4.0788 2.475,-2.1138 0.6,-0.0339 1.2,-0.0677 1.8,-0.1016 6.479,-0.626 12.962,-1.3096 19.402,-2.2493 7.665,-1.3981 15.199,-3.3896 22.738,-5.3312 0.889,-2.2948 5.897,-0.7815 3.529,1.1016 -16.114,5.1897 -33.004,8.3455 -49.944,8.6943"
       opacity="1"
       fill="#9c3737"
       id="path307"
       style="fill-rule:nonzero" /><path
       d="m 594.021,74.2923 c -6.135,-4.4805 14.865,-4.0873 14.032,-5.4186 4.715,-1.2579 9.472,-2.3467 14.241,-3.3756 1.489,-0.334 2.98,-0.6657 4.466,-1.0153 3.802,-4.3196 7.49,2.4796 1.714,1.9395 -1.278,0.4337 -2.544,0.903 -3.808,1.3757 -2.318,0.829 -4.674,1.5489 -7.043,2.214 -2.94,0.7581 -5.925,1.3224 -8.911,1.8644 -4.893,0.8303 -9.779,1.7075 -14.691,2.4159"
       opacity="1"
       fill="#9c3737"
       id="path309"
       style="fill-rule:nonzero" /><path
       d="m 586.657,59.0511 c 3.487,1.029 -2.744,5.3318 -0.933,-0.0156 16.373,-2.1042 32.528,-5.8154 48.811,-8.5293 4.255,2.8039 -7.455,4.2267 -7.629,3.5786 -13.531,2.5782 -27.045,5.6604 -40.785,6.822 -1.444,-0.2008 0.206,-1.3101 0.536,-1.8557"
       opacity="1"
       fill="#9c3737"
       id="path311"
       style="fill-rule:nonzero" /><path
       d="m 571.001,132.068 c -1.4,0.73 -2.495,-1.621 -1.034,-2.222 15.925,-8.603 33.324,-13.64 50.067,-20.301 0.815,0.685 13.393,-7.882 11.606,-2.099 -20.258,8.077 -40.858,15.382 -60.639,24.622"
       opacity="1"
       fill="#9c3737"
       id="path313"
       style="fill-rule:nonzero" /><path
       d="m 589.434,141.943 c -3.361,0.186 0.315,-5.126 2.606,-3.182 8.873,-2.983 17.695,-6.121 26.482,-9.346 8.013,-2.905 15.732,-6.531 23.503,-10.013 0.118,-2.481 6.976,-2.494 4.687,0.229 -18.454,8.984 -37.81,15.885 -57.278,22.312"
       opacity="1"
       fill="#9c3737"
       id="path315"
       style="fill-rule:nonzero" /><path
       d="m 601.085,152.284 c -3.703,0.5 -0.152,-5.589 2.552,-3.752 5.778,-2.809 11.397,-5.929 17.06,-8.958 5.292,-2.896 10.609,-5.76 15.754,-8.914 1.649,-1.005 3.309,-1.994 4.93,-3.046 2.648,-6.337 9.19,-0.151 2.335,1.066 -1.284,0.891 -2.604,1.727 -3.943,2.533 -2.808,1.705 -5.608,3.425 -8.475,5.031 -3.159,1.796 -6.334,3.563 -9.515,5.32 -6.859,3.641 -13.53,7.695 -20.698,10.72"
       opacity="1"
       fill="#9c3737"
       id="path317"
       style="fill-rule:nonzero" /><path
       d="m 578.371,107.598 c -9.161,-6.92 31.489,-8.1294 32.067,-11.3515 8.072,-2.1256 16.036,-4.674 23.765,-7.833 -0.207,-2.3515 8.066,-3.028 5.547,0.0788 -19.73,8.5004 -40.498,14.2247 -61.379,19.1057"
       opacity="1"
       fill="#9c3737"
       id="path319"
       style="fill-rule:nonzero" /><path
       d="m 569.859,83.5515 c -6.181,-6.3487 19.75,-1.5721 20.169,-4.3425 15.479,-1.9398 30.999,-3.6029 46.388,-6.1966 0.809,0.4794 11.554,-4.3965 9.822,0.3362 -25.15,4.9387 -50.871,7.5025 -76.379,10.2029"
       opacity="1"
       fill="#9c3737"
       id="path321"
       style="fill-rule:nonzero" /><path
       d="m 578.804,57.1463 c -3.975,-6.5844 14.545,2.0738 15.813,-1.0339 1.09,-0.0441 2.18,-0.0881 3.27,-0.1321 16.172,-0.8415 32.34,-1.7886 48.537,-2.0222 0.596,1.4512 13.85,-3.0522 11.588,1.9732 -26.307,-0.9743 -53.044,5.1762 -79.208,1.215"
       opacity="1"
       fill="#9c3737"
       id="path323"
       style="fill-rule:nonzero" /><path
       d="m 588.27,43.416 c -1.321,-0.2586 -0.902,-2.4107 0.419,-2.1534 22.974,2.246 46.295,0.9028 69.376,2.4613 3.382,5.1099 -11.102,0.6279 -12.366,1.7358 -19.079,-1.7799 -38.563,1.0001 -57.429,-2.0437"
       opacity="1"
       fill="#9c3737"
       id="path325"
       style="fill-rule:nonzero" /><path
       d="m 601.95,33.4755 c -3.443,2.9236 -2.469,-6.8978 1.576,-5.3516 21.001,-1.0261 42.238,1.0623 63.271,1.5762 2.992,4.6762 -10.136,0.7992 -10.445,1.7257 -17.138,-0.3472 -34.256,-1.6946 -51.398,-1.498 -1.923,-0.0152 -2.384,2.1464 -3.004,3.5477"
       opacity="1"
       fill="#9c3737"
       id="path327"
       style="fill-rule:nonzero" /><path
       d="m 663.103,40.3829 c 5.122,0.6174 0.663,8.4271 -3.148,4.018 -1.806,-0.4047 -3.637,-0.6732 -5.466,-0.9481 -3.188,-0.4351 -6.383,-0.8084 -9.579,-1.1677 -15.187,-1.9506 -30.746,-2.1521 -45.652,-5.829 -2.311,-7.0826 16.908,4.2492 18.128,0.7973 10.993,1.3676 22.062,2.0131 33.049,3.4567 4.197,0.3206 8.598,1.1737 12.668,-0.3272"
       opacity="1"
       fill="#9c3737"
       id="path329"
       style="fill-rule:nonzero" /><path
       d="m 648.471,49.592 c 3.017,1.2914 -1.791,4.4331 -3.374,2.0978 -8.763,-0.9308 -17.481,-2.2381 -26.221,-3.3592 -7.802,-1.08 -15.632,-1.9343 -23.446,-2.9194 -1.646,1.6531 -6.053,-1.8957 -3.078,-2.7568 18.574,3.2481 37.784,2.3122 56.119,6.9376"
       opacity="1"
       fill="#9c3737"
       id="path331"
       style="fill-rule:nonzero" /><path
       d="m 642.523,57.0653 c 1.409,-0.1699 1.579,2.1542 0.161,2.1916 -17.066,1.6576 -33.651,-4.513 -49.932,-8.8183 -2.803,-2.9485 5.341,-2.8581 5.702,-0.712 5.954,1.5279 12.02,2.5741 17.988,4.044 8.62,1.486 17.293,3.4416 26.081,3.2947"
       opacity="1"
       fill="#9c3737"
       id="path333"
       style="fill-rule:nonzero" /><path
       d="m 550.014,114.618 c 3.358,0.043 -0.195,5.103 -2.329,2.513 -0.167,-1.44 1,-3.059 2.555,-2.905 28.686,-0.525 56.495,-8.063 84.581,-13.063 1.488,2.003 19.923,-8.4036 17.252,-1.4752 -33.596,6.9862 -66.843,18.3232 -101.565,17.2312 -2.412,0.641 -3.648,-2.894 -0.494,-2.301"
       opacity="1"
       fill="#9c3737"
       id="path335"
       style="fill-rule:nonzero" /><path
       d="m 546.623,84.9065 c -1.171,0.1511 -1.637,-1.6604 -0.539,-2.0931 30.4,-0.546 60.814,-2.7086 91.204,-4.576 1.638,3.5508 24.089,-7.6303 21.289,-0.0191 -37.175,4.0257 -74.567,7.2868 -111.954,6.6882"
       opacity="1"
       fill="#9c3737"
       id="path337"
       style="fill-rule:nonzero" /><path
       d="m 552.877,100.375 c -3.248,-0.185 -0.033,-4.7615 2.349,-3.0451 0.606,-0.1214 1.213,-0.2427 1.82,-0.364 1.306,-0.2024 2.613,-0.4048 3.919,-0.6072 15.029,-2.2205 30.158,-3.7644 45.121,-6.417 11.424,-2.3586 22.825,-4.8284 34.209,-7.3759 0.546,-1.2543 8.272,-2.5091 5.937,0.7663 -30.594,8.2559 -61.718,14.3607 -93.355,17.0429"
       opacity="1"
       fill="#9c3737"
       id="path339"
       style="fill-rule:nonzero" /><path
       d="m 570.777,157.291 c -3.383,0.358 -0.469,-4.917 2.088,-3.528 1.013,-0.359 2.027,-0.718 3.04,-1.076 10.943,-3.745 21.992,-7.173 32.93,-10.933 15.765,-5.578 30.977,-12.584 46.115,-19.656 0.641,0.678 10.828,-8.163 10.299,-2.755 -30.149,15.643 -62.052,27.845 -94.472,37.948"
       opacity="1"
       fill="#9c3737"
       id="path341"
       style="fill-rule:nonzero" /><path
       d="m 588.33,185.566 c -2.674,0.702 -1.374,-3.816 1.083,-2.985 0.724,-0.339 1.447,-0.678 2.171,-1.016 1.173,-0.542 2.346,-1.084 3.52,-1.626 12.248,-5.724 24.693,-11.053 36.698,-17.284 10.078,-5.301 19.942,-11.012 29.51,-17.187 -0.487,-1.614 7.859,-5.83 6.365,-1.678 -20.442,15.089 -42.949,27.127 -66.666,36.24 -4.221,1.855 -8.569,3.441 -12.681,5.536"
       opacity="1"
       fill="#9c3737"
       id="path343"
       style="fill-rule:nonzero" /><path
       d="m 608.814,204.281 c 5.697,2.391 -8.618,5.373 -3.357,-1.193 25.784,-13.726 53.175,-25.537 75.69,-44.525 6.031,3.327 -11.947,9.264 -12.251,12.091 -18.952,14.412 -40.261,25.17 -62.108,34.222 -1.14,-0.298 1.333,-0.645 2.026,-0.595"
       opacity="1"
       fill="#9c3737"
       id="path345"
       style="fill-rule:nonzero" /><path
       d="m 624.06,230.957 c -0.939,0.651 -2.177,-0.649 -1.482,-1.554 21.13,-14.59 42.985,-28.41 62.551,-45.14 4.731,-3.963 9.268,-8.155 13.271,-12.865 -0.285,-1.831 3.87,-3.883 3.688,-1.195 -21.976,24.652 -48.499,45.739 -78.028,60.754"
       opacity="1"
       fill="#9c3737"
       id="path347"
       style="fill-rule:nonzero" /><path
       d="m 653.768,245.8 c -3.012,1.981 -2.149,-5.182 0.745,-4.539 11.268,-13.379 26.687,-22.425 39.498,-34.217 5.454,-4.803 10.476,-10.17 14.838,-15.984 -1.374,-1.706 4.895,-6.777 4.748,-2.96 -15.474,23.474 -40.737,37.725 -59.829,57.7"
       opacity="1"
       fill="#9c3737"
       id="path349"
       style="fill-rule:nonzero" /><path
       d="m 671.055,257.759 c -4.434,-0.429 3.631,-6.412 4.02,-5.245 9.946,-7.694 19.23,-16.225 27.534,-25.674 8.309,-9.148 16.228,-18.655 23.628,-28.554 0.67,-0.905 1.338,-1.811 1.996,-2.725 -0.755,-2.534 4.395,-4.085 3.451,-1.182 -17.139,23.63 -34.902,48.635 -60.629,63.38"
       opacity="1"
       fill="#9c3737"
       id="path351"
       style="fill-rule:nonzero" /><path
       d="m 693.931,267.132 c -2.546,1.956 -2.639,-3.965 0.039,-3.973 8.318,-11.216 19.573,-19.883 28.656,-30.467 1.205,-1.326 2.411,-2.652 3.616,-3.978 1.144,-1.302 2.288,-2.604 3.432,-3.905 1.083,-1.278 2.166,-2.556 3.249,-3.834 2.957,1.84 9.105,-18.665 12.063,-12.004 -14.274,21.674 -32.666,40.046 -51.055,58.161"
       opacity="1"
       fill="#9c3737"
       id="path353"
       style="fill-rule:nonzero" /><path
       d="m 677.108,32.9219 c 3.851,2.759 -5.379,4.7219 -6.09,1.9547 -1.436,-0.2941 -2.873,-0.5883 -4.309,-0.8824 -1.982,-0.4267 -3.965,-0.8535 -5.947,-1.2802 -2.527,-0.5592 -5.055,-1.1185 -7.582,-1.6778 -2.029,-0.4706 -4.058,-0.9412 -6.087,-1.4118 -4.486,-0.9641 -8.904,-2.252 -13.06,-4.2168 -2.207,-0.9562 -4.384,-1.9779 -6.571,-2.977 -1.011,-0.4666 -2.022,-0.9342 -3.03,-1.4072 -5.289,0.2794 -2.805,-6.1915 0.906,-2.4146 1.765,0.5273 3.545,1.0003 5.324,1.4725 15.322,4.7921 31.685,6.5905 46.446,12.8406"
       opacity="1"
       fill="#9c3737"
       id="path355"
       style="fill-rule:nonzero" /><path
       d="m 668.635,19.2397 c 2.874,1.4035 -0.817,4.8321 -2.828,2.5421 -9.799,-1.778 -18.038,-7.9379 -27.123,-11.3605 -1.621,-3.55881 6.666,-1.50218 6.873,-0.53876 7.906,2.57666 15.457,6.06546 23.078,9.35716"
       opacity="1"
       fill="#9c3737"
       id="path357"
       style="fill-rule:nonzero" /><path
       d="m 789.17,196.779 c -4.305,3.311 -0.834,-9.481 2.617,-3.763 -5.978,20.262 -10.411,41.374 -17.286,61.549 0.328,0.227 -0.88,11.198 -3.677,7.188 5.252,-23.091 4.679,-50.463 18.486,-69.68 1.327,1.294 0.472,3.27 -0.14,4.706"
       opacity="1"
       fill="#9c3737"
       id="path359"
       style="fill-rule:nonzero" /><path
       d="m 794.013,178.223 c 2.267,-4.554 4.861,5.865 4.168,6.323 7.026,17.371 10.942,35.889 15.427,54.036 0.447,1.547 0.951,3.075 1.464,4.601 0.363,1.037 0.726,2.074 1.09,3.11 -2.684,1.952 11.292,14.467 4.541,14.141 -12.448,-25.702 -22.263,-54 -26.69,-82.211"
       opacity="1"
       fill="#9c3737"
       id="path361"
       style="fill-rule:nonzero" /><path
       d="m 799.924,166.703 c -0.592,-0.999 0.84,-2.143 1.684,-1.345 11.768,23.061 21.917,47.686 27.073,73.244 -2.484,1.631 8.333,11.519 2.463,10.851 -11.347,-26.745 -18.489,-56.162 -31.22,-82.75"
       opacity="1"
       fill="#9c3737"
       id="path363"
       style="fill-rule:nonzero" /><path
       d="m 792.869,191.046 c -0.384,-2.513 3.78,-2.287 3.257,0.214 -2.753,26.076 -5.838,52.508 -12.039,78.096 -6.589,2.312 3.763,-14.793 1.288,-15.746 3.197,-20.685 7.001,-41.726 7.494,-62.564"
       opacity="1"
       fill="#9c3737"
       id="path365"
       style="fill-rule:nonzero" /><path
       d="m 751.914,275.183 c -7.766,0.661 8.822,-12.853 6.822,-14.686 0.657,-1.339 1.313,-2.678 1.97,-4.018 0.774,-1.648 1.549,-3.297 2.323,-4.945 0.893,-1.957 1.786,-3.914 2.678,-5.871 0.745,-1.645 1.489,-3.29 2.234,-4.935 1.054,-2.35 2.106,-4.701 3.134,-7.063 4.09,-9.827 7.45,-19.946 10.604,-30.107 0.168,-0.537 0.335,-1.073 0.503,-1.61 -1.529,-2.273 3.152,-5.263 2.998,-2.154 -8.407,26.07 -16.937,53.069 -33.266,75.389"
       opacity="1"
       fill="#9c3737"
       id="path367"
       style="fill-rule:nonzero" /><path
       d="m 736.961,268.559 c -3.155,1.302 -1.348,-4.573 0.719,-4.371 5.91,-9.992 11.539,-20.15 17.091,-30.344 4.201,-7.935 8.327,-15.924 11.741,-24.236 -1.497,-1.293 3.515,-8.039 4.236,-4.101 -9.84,21.621 -18.238,44.875 -33.787,63.052"
       opacity="1"
       fill="#9c3737"
       id="path369"
       style="fill-rule:nonzero" /><path
       d="m 719.787,261.558 c -6.317,-0.544 8.485,-9.175 6.773,-9.097 1.19,-1.477 2.38,-2.955 3.57,-4.432 1.447,-1.881 2.895,-3.762 4.342,-5.642 1.261,-1.685 2.523,-3.37 3.785,-5.055 1.076,-1.489 2.152,-2.979 3.227,-4.468 4.783,-6.815 9.098,-13.951 13.117,-21.241 -1.178,-2.374 3.992,-5.029 3.475,-1.87 -10.535,18.591 -21.767,38.069 -38.289,51.805"
       opacity="1"
       fill="#9c3737"
       id="path371"
       style="fill-rule:nonzero" /><path
       d="m 707.931,272.189 c -2.465,1.79 -2.952,-3.32 -0.159,-3.532 3.405,-4.946 6.373,-10.176 9.499,-15.298 1.783,-2.934 3.576,-5.862 5.404,-8.768 1.15,-1.798 2.304,-3.594 3.526,-5.344 5.79,-8.731 10.936,-17.867 15.501,-27.292 0.17,-0.826 3.062,-7.972 4.881,-4.625 -11.085,22.456 -23.301,44.961 -38.652,64.859"
       opacity="1"
       fill="#9c3737"
       id="path373"
       style="fill-rule:nonzero" /><path
       d="m 725.546,275.322 c -4.009,1.043 -0.104,-5.784 1.214,-5.649 5.916,-10.944 11.499,-22.065 17.176,-33.134 4.503,-8.977 9.028,-17.948 13.21,-27.079 -1.273,-1.141 3.626,-8.842 4.534,-4.635 -11.7,23.545 -21.786,48.685 -36.134,70.497"
       opacity="1"
       fill="#9c3737"
       id="path375"
       style="fill-rule:nonzero" /><path
       d="m 747.64,269.173 c -1.11,1.935 -3.355,-0.909 -1.487,-2.105 0.351,-0.82 0.703,-1.64 1.055,-2.46 2.819,-6.516 5.618,-13.042 8.145,-19.679 1.625,-4.223 3.206,-8.463 4.757,-12.715 1.105,-3.011 2.21,-6.023 3.303,-9.038 0.423,-1.195 0.867,-2.383 1.262,-3.588 -0.093,-4.773 5.646,-1.005 1.697,1.842 -0.744,2.12 -1.501,4.235 -2.257,6.351 -0.626,1.743 -1.251,3.486 -1.877,5.228 -2.198,6.223 -4.497,12.412 -6.97,18.531 -2.378,5.948 -5.078,11.759 -7.628,17.633"
       opacity="1"
       fill="#9c3737"
       id="path377"
       style="fill-rule:nonzero" /><path
       d="m 755.473,274.691 c -2.3,3.159 -5.147,-2.719 -1.588,-4.091 0.41,-0.975 0.821,-1.951 1.231,-2.927 5.436,-13.848 10.918,-27.693 15.641,-41.805 3.889,-11.868 6.893,-24 9.439,-36.22 0.224,-1 0.451,-2 0.686,-2.997 -1.761,-2.159 2.907,-5.814 2.97,-2.562 -6.486,31.041 -16.101,61.358 -28.379,90.602"
       opacity="1"
       fill="#9c3737"
       id="path379"
       style="fill-rule:nonzero" /><path
       d="m 785.666,264.316 c -1.191,3.06 -4.452,-2.219 -1.804,-3.543 0.084,-0.731 0.169,-1.462 0.253,-2.194 2.388,-14.431 6.12,-28.608 8.509,-43.044 0.224,-1.3 0.448,-2.599 0.671,-3.899 0.206,-1.265 0.411,-2.53 0.617,-3.795 0.171,-1.205 0.342,-2.41 0.513,-3.615 0.136,-1.146 0.273,-2.292 0.409,-3.438 3.569,-0.675 -3.457,-21.562 3.111,-18.124 0.493,27.742 -8.71,54.389 -12.279,81.652"
       opacity="1"
       fill="#9c3737"
       id="path381"
       style="fill-rule:nonzero" /><path
       d="m 798.02,255.344 c -0.577,2.536 -3.891,-0.351 -2.093,-2.125 0.034,-0.669 0.068,-1.338 0.102,-2.008 0.045,-0.892 0.09,-1.784 0.136,-2.677 0.829,-13.684 2.232,-27.328 2.907,-41.022 0.05,-1.527 0.1,-3.054 0.15,-4.581 -0.014,-1.007 -0.029,-2.013 -0.043,-3.02 -0.024,-0.954 -0.048,-1.908 -0.072,-2.861 -0.034,-0.901 -0.068,-1.802 -0.101,-2.703 3.068,-0.939 -5.85,-19.397 0.71,-16.755 1.855,14.525 2.237,29.299 0.69,43.902 -0.437,5.632 -0.87,11.264 -1.29,16.898 -0.442,5.645 -0.798,11.297 -1.096,16.952"
       opacity="1"
       fill="#9c3737"
       id="path383"
       style="fill-rule:nonzero" /><path
       d="m 822.13,245.391 c -1.009,2.833 -4.217,-1.505 -1.862,-3.006 0.071,-0.612 0.143,-1.224 0.214,-1.836 0.053,-1.21 0.105,-2.42 0.157,-3.63 0.175,-13.24 0.409,-26.507 -0.457,-39.728 -1.028,-10.167 -3.201,-20.161 -5.398,-30.126 2.418,-1.019 -9.34,-17.658 -2.515,-15.44 6.289,17.993 11.708,36.821 11.354,56.05 -0.026,2.523 -0.052,5.045 -0.077,7.567 -0.073,3.016 -0.146,6.032 -0.219,9.047 -0.259,7.038 -0.223,14.113 -1.197,21.102"
       opacity="1"
       fill="#9c3737"
       id="path385"
       style="fill-rule:nonzero" /><path
       d="m 823.767,211.245 c -0.32,-3.701 5.995,0.427 1.106,2.007 -1.235,0.309 -2.018,-1.069 -2.624,-1.905 -9.049,-22.255 -14.443,-46.032 -22.221,-68.815 3.18,-4.558 4.479,8.916 5.538,8.925 9.876,18.729 14.378,39.549 20.154,59.753 -0.445,0.946 -1.841,1.443 -1.953,0.035"
       opacity="1"
       fill="#9c3737"
       id="path387"
       style="fill-rule:nonzero" /><path
       d="m 812.122,227.709 c 0.285,0.928 -0.912,1.763 -1.684,1.173 -6.257,-15.739 -10.776,-32.587 -13.691,-49.342 0.81,-0.931 -5.21,-11.598 -0.242,-10.298 5.972,19.185 12.876,38.41 15.617,58.467"
       opacity="1"
       fill="#9c3737"
       id="path389"
       style="fill-rule:nonzero" /><path
       d="m 820.677,223.265 c 0.194,0.968 -1.122,1.674 -1.82,0.975 -6.465,-18.63 -15.664,-36.646 -22.38,-55.296 3.162,-4.494 6.07,9.071 7.499,9.003 6.509,14.679 13.257,29.568 16.701,45.318"
       opacity="1"
       fill="#9c3737"
       id="path391"
       style="fill-rule:nonzero" /><path
       d="m 798.875,243.884 c 0.338,1.712 -2.451,1.693 -2.282,-0.02 -4.31,-16.383 -1.558,-33.634 -3.158,-50.377 1.358,-1.145 -4.685,-14.83 0.777,-12.517 3.436,20.782 2.555,42.041 4.663,62.914"
       opacity="1"
       fill="#9c3737"
       id="path393"
       style="fill-rule:nonzero" /><path
       d="m 769.831,252.067 c -0.375,1.204 -2.345,0.722 -2.12,-0.519 4.019,-16.832 9.794,-33.162 14.851,-49.698 1.754,-0.012 1.006,-20.257 5.172,-14.25 -3.273,22.117 -9.785,43.681 -17.903,64.467"
       opacity="1"
       fill="#9c3737"
       id="path395"
       style="fill-rule:nonzero" /><path
       d="m 762.105,241.813 c -0.377,1.2 -2.331,0.923 -2.358,-0.335 2.845,-14.153 10.164,-26.935 15.026,-40.442 1.298,-0.161 2.392,-15.92 5.926,-10.851 -5.677,17.354 -9.729,35.535 -18.594,51.628"
       opacity="1"
       fill="#9c3737"
       id="path397"
       style="fill-rule:nonzero" /><path
       d="m 712.369,239.07 c -0.509,1.257 -2.582,0.632 -2.311,-0.697 8.539,-15.2 19.835,-28.937 29.905,-43.177 5.295,0.066 -4.255,8.288 -3.901,9.01 -7.933,11.581 -16.276,22.979 -23.693,34.864"
       opacity="1"
       fill="#9c3737"
       id="path399"
       style="fill-rule:nonzero" /><path
       d="m 731.098,247.236 c -2.345,1.855 -3.123,-3.158 -0.213,-3.352 0.416,-0.666 0.833,-1.333 1.249,-1.999 4.139,-7.299 7.847,-14.832 11.65,-22.309 4.396,-9.128 8.358,-18.461 12.827,-27.557 -1.669,-1.449 3.819,-7.981 4.294,-3.972 -9.768,19.81 -16.613,41.224 -29.807,59.189"
       opacity="1"
       fill="#9c3737"
       id="path401"
       style="fill-rule:nonzero" /><path
       d="m 817.345,220.597 c 0.288,5.89 -8.351,2.254 -5.984,-2.787 -3.212,-8.498 -6.107,-17.12 -7.949,-26.03 -2.354,-8.805 -5.166,-17.481 -7.831,-26.194 -0.874,-2.656 -1.798,-5.297 -2.854,-7.887 -0.435,-1.091 -0.871,-2.181 -1.331,-3.262 -4.74,-4.188 3.613,-8.537 4.364,-2.201 0.615,1.056 1.236,2.109 1.856,3.162 2.107,3.466 4.003,7.054 5.841,10.668 2.808,5.353 5.105,10.989 6.646,16.839 1.238,4.426 2.308,8.899 3.197,13.408 0.9,4.625 1.565,9.295 2.027,13.983 0.342,3.49 0.737,7.011 2.018,10.301"
       opacity="1"
       fill="#9c3737"
       id="path403"
       style="fill-rule:nonzero" /><path
       d="m 789.518,243.022 c -0.369,3.055 -5.314,2.726 -5.273,-0.351 0.623,-20.3 4.72,-40.205 7.972,-60.15 1.866,-2.203 -4.871,-28.941 4.856,-22.216 0.759,27.725 2.551,56.186 -7.555,82.717"
       opacity="1"
       fill="#9c3737"
       id="path405"
       style="fill-rule:nonzero" /><path
       d="m 777.567,244.309 c -2.945,5.016 -8.299,-2.526 -3.918,-5.683 0.375,-1.209 0.749,-2.418 1.124,-3.627 3.624,-10.205 5.417,-21 9.481,-31.041 0.693,-2.031 1.333,-4.079 1.967,-6.129 2.488,-8.085 4.725,-16.304 5.644,-24.735 0.066,-0.964 0.131,-1.929 0.188,-2.893 -2.253,-3.73 3.864,-7.631 4.857,-3.061 -1.297,26.65 -4.923,54.063 -19.343,77.169"
       opacity="1"
       fill="#9c3737"
       id="path407"
       style="fill-rule:nonzero" /><path
       d="m 799.603,230.073 c -0.798,4.591 -7.279,1.517 -5.333,-2.457 -0.034,-1.494 -0.068,-2.989 -0.102,-4.483 0.023,-1.442 0.045,-2.884 0.068,-4.326 0.129,-4.651 0.316,-9.299 0.512,-13.947 0.391,-8.001 0.777,-16.008 0.79,-24.022 0.173,-3.543 -0.334,-7.05 -0.613,-10.569 -0.11,-1.195 -0.221,-2.39 -0.342,-3.584 -3.12,-5.705 6.526,-6.804 4.753,-0.551 0.272,2.126 0.6,4.244 0.919,6.363 0.512,2.702 0.701,5.442 0.914,8.179 0.274,4.865 0.407,9.736 0.51,14.607 -0.124,11.584 1.055,23.481 -2.076,34.79"
       opacity="1"
       fill="#9c3737"
       id="path409"
       style="fill-rule:nonzero" /><path
       d="m 713.088,234.749 c -1.644,2.105 -5.345,0.199 -4.584,-2.362 9.842,-15.751 25.949,-26.303 38.458,-39.755 0.593,-0.206 13.546,-21.686 15.007,-10.668 -14.353,19.212 -33.062,34.789 -48.881,52.785"
       opacity="1"
       fill="#9c3737"
       id="path411"
       style="fill-rule:nonzero" /><path
       d="m 734.799,235.122 c -2.826,3.351 -7.061,-2.39 -3.173,-4.457 0.753,-0.874 1.507,-1.748 2.261,-2.622 0.752,-0.999 1.504,-1.997 2.255,-2.995 2.51,-3.462 4.958,-6.968 7.399,-10.478 4.795,-6.982 9.606,-13.954 14.368,-20.959 1.901,-2.714 3.58,-5.569 5.274,-8.413 0.65,-1.065 1.298,-2.131 1.931,-3.205 0.894,-6.315 9.16,-1.524 4.124,2.426 -0.859,1.462 -1.752,2.902 -2.625,4.355 -1.484,2.555 -3.048,5.063 -4.726,7.496 -3.072,4.526 -6.175,9.032 -9.27,13.543 -5.901,8.461 -11.553,17.107 -17.818,25.309"
       opacity="1"
       fill="#9c3737"
       id="path413"
       style="fill-rule:nonzero" /><path
       d="m 753.626,241.487 c -3.283,4.885 -9.33,-2.962 -3.602,-5.389 0.441,-0.818 0.882,-1.636 1.323,-2.455 0.634,-1.354 1.268,-2.709 1.903,-4.063 0.827,-1.891 1.655,-3.782 2.483,-5.673 2.6,-6.17 5.196,-12.343 7.735,-18.539 1.272,-3.054 2.459,-6.142 3.658,-9.225 0.774,-1.961 1.492,-3.943 2.196,-5.93 -0.297,-8.522 10.608,-3.16 4.178,2.525 -0.605,1.723 -1.249,3.432 -1.912,5.133 -1.853,4.836 -3.804,9.633 -5.797,14.413 -4.015,9.751 -8.245,19.413 -12.165,29.203"
       opacity="1"
       fill="#9c3737"
       id="path415"
       style="fill-rule:nonzero" /><path
       d="m 745.652,239.9 c -3.155,4.997 -8.34,-3.262 -3.113,-5.882 0.39,-0.832 0.78,-1.664 1.17,-2.495 0.576,-1.26 1.152,-2.519 1.729,-3.778 1.722,-3.796 3.431,-7.599 5.137,-11.403 3.27,-7.342 6.599,-14.661 9.701,-22.077 1.352,-3.42 2.647,-6.862 3.893,-10.322 0.517,-1.451 1.038,-2.901 1.492,-4.374 -0.767,-5.412 7.58,-4.065 4.801,0.595 -0.317,1.201 -0.735,2.372 -1.135,3.547 -0.715,2.048 -1.464,4.085 -2.221,6.118 -1.805,4.932 -3.835,9.777 -5.98,14.57 -2.041,4.633 -4.104,9.256 -6.174,13.876 -3.202,7.164 -6.368,14.345 -9.3,21.625"
       opacity="1"
       fill="#9c3737"
       id="path417"
       style="fill-rule:nonzero" /><path
       d="m 771.97,235.342 c -1.631,4.347 -7.284,-0.486 -3.985,-3.675 0.213,-0.811 0.425,-1.623 0.637,-2.435 0.283,-1.082 0.567,-2.164 0.85,-3.246 1.765,-7.503 2.278,-15.213 2.953,-22.869 0.347,-9.917 -0.789,-19.872 -2.079,-29.697 -0.131,-1.024 -0.256,-2.048 -0.357,-3.075 -2.539,-3.262 2.616,-7.881 4.42,-3.825 3.217,22.823 5.023,46.553 -2.439,68.822"
       opacity="1"
       fill="#9c3737"
       id="path419"
       style="fill-rule:nonzero" /><path
       d="m 762.356,224.262 c -2.617,3.468 -7.154,-1.966 -3.431,-4.24 0.679,-0.871 1.359,-1.742 2.038,-2.613 0.951,-1.235 1.888,-2.48 2.783,-3.757 5.562,-5.02 6.426,-15.68 13.17,-19.183 4.97,0.144 1.415,7.564 -0.815,8.693 -4.439,7.127 -8.965,14.195 -13.745,21.1"
       opacity="1"
       fill="#9c3737"
       id="path421"
       style="fill-rule:nonzero" /><path
       d="m 740.247,229.276 c -3.99,3.243 -6.146,-4.884 -1.16,-5.761 0.778,-0.83 1.555,-1.66 2.332,-2.49 1.862,-1.989 3.725,-3.977 5.592,-5.961 4.672,-4.934 9.48,-9.74 14.081,-14.741 2.111,-2.282 4.204,-4.58 6.24,-6.929 0.641,-6.881 10.477,-3.167 5.232,1.176 -0.894,1.154 -1.866,2.244 -2.827,3.342 -1.688,1.906 -3.399,3.791 -5.131,5.658 -3.437,3.702 -6.938,7.344 -10.46,10.965 -4.711,4.839 -9.264,9.83 -13.899,14.741"
       opacity="1"
       fill="#9c3737"
       id="path423"
       style="fill-rule:nonzero" /><path
       d="m 712.825,224.699 c -5.076,1.811 -4.747,-6.927 0.574,-6.14 0.968,-0.454 1.936,-0.908 2.904,-1.361 1.291,-0.606 2.582,-1.211 3.873,-1.816 2.183,-1.018 4.368,-2.031 6.557,-3.036 7.566,-3.554 15.379,-6.533 23.093,-9.739 2.168,-0.876 4.311,-1.821 6.396,-2.881 1.179,-0.611 2.341,-1.252 3.477,-1.939 3.199,-5.304 9.439,1.75 3.599,3.436 -1.64,0.936 -3.237,1.95 -4.936,2.779 -3.779,1.933 -7.756,3.431 -11.667,5.066 -4.367,1.773 -8.751,3.504 -13.061,5.414 -7.076,3.114 -13.905,6.746 -20.809,10.217"
       opacity="1"
       fill="#9c3737"
       id="path425"
       style="fill-rule:nonzero" /><path
       d="m 698.943,218.833 c -5.147,0.493 -2.406,-7.458 2.231,-5.458 1.457,-0.34 2.908,-0.704 4.352,-1.1 2.677,-0.732 5.296,-1.66 7.872,-2.691 5.527,-2.193 10.988,-4.549 16.44,-6.92 3.415,-1.483 6.805,-3.024 10.21,-4.527 1.324,-0.586 2.648,-1.171 3.975,-1.749 6.106,-5.356 8.407,6.331 0.262,5.108 -1.764,0.777 -3.525,1.56 -5.287,2.343 -3.608,1.62 -7.228,3.214 -10.861,4.78 -9.455,4.135 -19.015,8.223 -29.194,10.214"
       opacity="1"
       fill="#9c3737"
       id="path427"
       style="fill-rule:nonzero" /><path
       d="m 700.496,215.336 c -4.342,1.477 -4.258,-5.819 0.228,-5.347 1.118,-0.518 2.219,-1.073 3.313,-1.64 2.786,-1.45 5.539,-2.963 8.348,-4.369 5.347,-2.728 10.706,-5.433 16.091,-8.085 3.391,-1.665 6.781,-3.331 10.187,-4.967 1.215,-0.575 2.429,-1.154 3.631,-1.756 5.289,-5.73 9.035,5.052 1.108,4.79 -2.271,1.098 -4.553,2.173 -6.816,3.288 -4.198,2.048 -8.39,4.108 -12.565,6.203 -7.947,3.752 -15.52,8.258 -23.525,11.883"
       opacity="1"
       fill="#9c3737"
       id="path429"
       style="fill-rule:nonzero" /><path
       d="m 719.726,227.775 c -0.368,3.209 -5.592,2.655 -5.276,-0.56 5.646,-14.718 19.835,-24.677 27.279,-38.361 4.267,-2.32 5.189,5.54 1.52,6.991 -7.124,10.994 -18.989,19.647 -23.523,31.93"
       opacity="1"
       fill="#9c3737"
       id="path431"
       style="fill-rule:nonzero" /><path
       d="m 734.92367,196.89856 c -17.72792,-4.63766 -22.6226,-32.16122 -10.00516,-51.10557 7.09366,-10.65329 21.66107,-19.62852 36.51008,-16.38562 8.11376,1.57387 21.4929,12.83855 16.41305,39.61922 -9.46832,20.5743 -35.14657,29.90509 -42.91797,27.87197 z"
       opacity="1"
       fill="#0d0303"
       id="path177"
       style="fill-rule:nonzero;stroke-width:1.7335"
       sodipodi:nodetypes="ccccc" /><path
       d="m 678.49099,117.3053 c -17.64855,7.14413 -27.30744,-4.57514 -27.17908,-19.887001 0.0977,-11.677723 12.28675,-40.210999 27.74904,-42.787939 24.7917,-4.132086 38.64703,23.721024 25.58592,41.507722 -7.59231,14.151008 -23.7917,20.792958 -26.15588,21.167218 z"
       opacity="1"
       fill="#0d0303"
       id="path179"
       style="fill-rule:nonzero;stroke-width:1.7335"
       sodipodi:nodetypes="ccccc" /><path
       d="m 676.9409,113.8399 c 7.56975,-2.42219 11.34758,-5.86112 16.16308,-14.811256 7.24559,-13.465172 -12.9953,-29.973196 -24.01301,-20.06942 -9.47761,8.519038 -14.34382,20.33475 -10.62761,29.226886 2.39776,5.7416 10.5421,8.19127 18.47754,5.65379 z"
       opacity="1"
       fill="#ffffff"
       id="path181"
       style="fill-rule:nonzero;stroke-width:1.7335"
       sodipodi:nodetypes="ccccc" /><path
       d="m 737.61564,191.63851 c 4.85924,0.0435 10.7328,-4.02299 14.00325,-7.80762 6.81072,-7.87789 11.2858,-23.76125 4.39673,-30.00328 -10.19925,-6.33518 -17.85401,0.22981 -26.36716,10.63841 -7.88402,9.63976 -5.73734,27.04721 7.96718,27.17249 z"
       opacity="1"
       fill="#ffffff"
       id="path183"
       style="fill-rule:nonzero;stroke-width:1.7335"
       sodipodi:nodetypes="ccccc" /></g></g>
</svg>
