<?xml version="1.0" encoding="UTF-8" standalone="no"?>
<!DOCTYPE svg PUBLIC "-//W3C//DTD SVG 1.1//EN" "http://www.w3.org/Graphics/SVG/1.1/DTD/svg11.dtd">
<!-- Created with Vectornator (http://vectornator.io/) -->
<svg height="100%" stroke-miterlimit="10" style="fill-rule:nonzero;clip-rule:evenodd;stroke-linecap:round;stroke-linejoin:round;" version="1.1" viewBox="0 0 288 216" width="100%" xml:space="preserve" xmlns="http://www.w3.org/2000/svg" xmlns:vectornator="http://vectornator.io" xmlns:xlink="http://www.w3.org/1999/xlink">
<defs>
<filter color-interpolation-filters="sRGB" filterUnits="userSpaceOnUse" height="237.755" id="Filter" width="307.957" x="-10.1354" y="-1.72807">
<feDropShadow dx="-3.67321e-05" dy="10" flood-color="#000000" flood-opacity="0.333" in="SourceGraphic" result="Shadow" stdDeviation="5"/>
</filter>
</defs>
<clipPath id="ArtboardFrame">
<rect height="216" width="288" x="0" y="0"/>
</clipPath>
<g clip-path="url(#ArtboardFrame)" id="backgtound" vectornator:layerName="backgtound" visibility="hidden">
<path d="M-0.135383-1.72807L287.822-1.72807L287.822 216.027L-0.135383 216.027L-0.135383-1.72807Z" fill="#750787" fill-rule="nonzero" filter="url(#Filter)" stroke="none" vectornator:shadowAngle="1.5708" vectornator:shadowColor="#000000" vectornator:shadowOffset="10" vectornator:shadowOpacity="0.333" vectornator:shadowRadius="10"/>
</g>
<g id="Layer-1" vectornator:layerName="Layer 1">
<path d="M24.9437 26.3564C24.9437 25.9493 25.4247 24.8267 25.4247 25.2338C25.4247 27.5131 24.2637 30.2542 23.5004 32.2898C23.2564 32.9405 22.9059 33.5509 22.6986 34.2141C22.6348 34.4182 22.5396 34.9986 22.6986 34.8556C25.3152 32.5007 27.0874 28.4055 29.2735 25.7149C29.5842 25.3324 29.9552 24.5323 30.396 24.7527C30.8845 24.997 28.9318 30.0728 28.7924 30.5258C28.7275 30.7365 28.4349 31.2658 28.632 31.1673C29.4162 30.7752 30.0843 30.1708 30.7167 29.5636C31.4277 28.881 31.9737 28.0439 32.6411 27.3185C33.2041 26.7066 33.7035 26.001 34.4051 25.5546C34.5854 25.4398 34.4623 25.99 34.4051 26.196C34.1924 26.9617 33.8705 27.6927 33.6032 28.4411C32.9403 30.2974 30.4752 35.1073 32.9618 35.8178" fill="none" opacity="1" stroke="#c8c8c8" stroke-linecap="round" stroke-linejoin="round" stroke-width="1.36088"/>
<path d="M40.9799 18.3382C41.2915 17.4034 42.3464 17.1952 42.1025 18.659C41.9383 19.644 41.6317 20.6033 41.3007 21.5455C39.7634 25.9207 37.1004 29.8258 36.0087 34.3745C35.8183 35.1679 37.5432 33.6942 38.0934 33.0916C38.3749 32.7833 40.8401 29.1906 41.1403 28.7618C43.3456 25.6114 38.4689 30.342 41.7817 28.9222C42.5445 28.5953 48.7019 24.2717 46.5926 24.2717" fill="none" opacity="1" stroke="#c8c8c8" stroke-linecap="round" stroke-linejoin="round" stroke-width="1.36088"/>
<path d="M40.4988 32.9312C41.2281 34.7543 43.6931 35.016 45.4701 35.016" fill="none" opacity="1" stroke="#c8c8c8" stroke-linecap="round" stroke-linejoin="round" stroke-width="1.36088"/>
<path d="M60.8649 20.5833C60.2727 22.36 60.7768 25.6127 60.5442 27.3185C60.3742 28.5652 60.0706 29.7923 59.7424 31.0069C59.3918 32.304 58.9277 33.3825 58.2991 34.5349C57.8384 35.3796 58.1155 32.5928 58.2991 31.6483C58.5094 30.5666 58.7435 29.4835 59.1009 28.4411C60.062 25.638 60.8903 25.0809 63.4307 22.9888C64.4827 22.1224 66.0475 20.3828 67.1191 21.2248C68.1824 22.0603 68.0996 26.0346 68.0812 26.6771C67.9912 29.8292 66.4355 32.6421 63.9118 34.5349C59.4622 37.8721 56.7178 35.2699 58.2991 30.5258" fill="none" opacity="1" stroke="#c8c8c8" stroke-linecap="round" stroke-linejoin="round" stroke-width="1.36088"/>
<path d="M71.1281 31.0069C69.4174 31.8623 75.9986 33.5395 77.2219 29.5636C77.3162 29.2571 77.3483 28.8962 77.2219 28.6014C76.9061 27.8645 75.4836 28.1567 74.8165 28.6014C71.6273 30.7276 71.0503 36.018 76.2597 35.497" fill="none" opacity="1" stroke="#c8c8c8" stroke-linecap="round" stroke-linejoin="round" stroke-width="1.36088"/>
<path d="M87.3248 18.659L87.3248 18.0175L87.4851 17.3761L88.2869 16.7346L89.0888 17.0553L89.0888 17.0553" fill="none" opacity="1" stroke="#c8c8c8" stroke-linecap="round" stroke-linejoin="round" stroke-width="1.36088"/>
<path d="M90.3717 25.2338C90.3717 27.429 89.865 29.9042 92.4564 30.8465C92.6573 30.9196 92.9624 31.012 93.0978 30.8465C94.6874 28.9037 94.9126 25.3553 95.3429 22.9888" fill="none" opacity="1" stroke="#c8c8c8" stroke-linecap="round" stroke-linejoin="round" stroke-width="1.36088"/>
<path d="M100.314 28.7618C101.456 23.0506 94.8946 28.9413 96.6258 31.1673C98.2587 33.2667 102.021 28.5737 102.559 27.3185C102.805 26.7456 101.794 28.3308 101.597 28.9222C101.213 30.0735 100.924 31.0712 102.078 31.6483" fill="none" opacity="1" stroke="#c8c8c8" stroke-linecap="round" stroke-linejoin="round" stroke-width="1.36088"/>
<path d="M109.776 16.7346C108.809 18.1838 108.963 20.6623 108.813 22.1869C108.44 25.9951 108.059 29.7116 107.049 33.4123" fill="none" opacity="1" stroke="#c8c8c8" stroke-linecap="round" stroke-linejoin="round" stroke-width="1.36088"/>
<path d="M106.408 22.668C106.871 20.8174 112.852 23.1551 114.426 23.4698" fill="none" opacity="1" stroke="#c8c8c8" stroke-linecap="round" stroke-linejoin="round" stroke-width="1.36088"/>
<path d="M114.907 25.8753C114.433 28.2449 114.426 30.5183 114.426 32.9312" fill="none" opacity="1" stroke="#c8c8c8" stroke-linecap="round" stroke-linejoin="round" stroke-width="1.36088"/>
<path d="M116.671 18.9797C116.303 18.2426 116.35 18.5773 116.35 18.0175" fill="none" opacity="1" stroke="#c8c8c8" stroke-linecap="round" stroke-linejoin="round" stroke-width="1.36088"/>
<path d="M121.642 24.5924C121.521 24.35 121.585 23.2388 121.161 23.3095C119.867 23.5252 119.141 26.1321 119.397 27.1582C120.014 29.6269 122.839 33.4833 125.651 30.8465C127.848 28.7872 125.878 23.0053 123.246 22.3473C122.293 22.109 121.167 22.7303 120.52 23.4698C119.534 24.5968 119.626 27.0658 120.68 28.1204" fill="none" opacity="1" stroke="#c8c8c8" stroke-linecap="round" stroke-linejoin="round" stroke-width="1.36088"/>
<path d="M130.142 25.5546C129.848 26.434 130.143 27.4696 129.981 28.4411C129.909 28.8759 129.739 29.2903 129.661 29.724C129.632 29.8818 129.525 30.2901 129.661 30.2051C131.501 29.0547 133.764 25.3869 134.953 23.9509C135.411 23.3969 136.485 21.7921 136.556 22.5077C136.752 24.471 134.009 31.6483 137.679 31.6483" fill="none" opacity="1" stroke="#c8c8c8" stroke-linecap="round" stroke-linejoin="round" stroke-width="1.36088"/>
<path d="M166.063 11.9237C166.063 11.3357 166.17 11.603 165.261 11.603C164.933 11.603 164.911 11.5552 164.62 11.7634C163.593 12.4966 162.465 13.1164 161.573 14.0084C159.683 15.8986 157.38 19.2183 158.205 22.1869C158.719 24.0354 161.933 22.3871 161.573 22.0266C160.83 21.2834 155.321 24.5082 154.837 25.2338C154.771 25.3333 154.884 25.5168 154.998 25.5546C157.137 26.2677 159.566 24.9338 161.573 24.432C162.255 24.2615 162.968 23.9734 163.657 24.1113C163.823 24.1444 164.185 24.1091 164.139 24.2717C163.672 25.9032 156.576 29.3596 155.158 31.8087C154.643 32.6985 153.977 34.1021 154.677 34.8556C155.782 36.045 157.748 35.9271 159.328 36.2989C160.483 36.5707 161.68 36.6196 162.856 36.78" fill="none" opacity="1" stroke="#c8c8c8" stroke-linecap="round" stroke-linejoin="round" stroke-width="1.36088"/>
<path d="M52.045 53.7784C51.8938 53.476 51.573 52.5138 51.7242 52.8162C52.8288 55.0253 51.7764 62.8078 51.4035 65.3245C51.3389 65.7606 51.3945 66.9191 51.0828 66.6074C50.2369 65.7616 53.0943 58.3775 56.2144 62.2776C56.8722 63.0998 57.2331 64.1449 57.4973 65.1642C58.7082 69.8348 48.3325 69.5132 52.3657 66.2867" fill="none" opacity="1" stroke="#c8c8c8" stroke-linecap="round" stroke-linejoin="round" stroke-width="1.36088"/>
<path d="M59.4217 63.5605C59.3231 63.3634 59.4057 62.7868 59.582 62.9191C60.1867 63.3726 59.9027 65.4818 59.9027 65.966C59.9027 66.6074 59.2613 67.8903 59.9027 67.8903C61.1269 67.8903 62.1827 65.4716 62.7893 64.6831C63.1871 64.1659 63.4986 63.5844 63.9118 63.0794C63.9875 62.9869 64.2539 62.8015 64.2325 62.9191C63.8619 64.9578 61.0398 68.9497 65.5154 65.966" fill="none" opacity="1" stroke="#c8c8c8" stroke-linecap="round" stroke-linejoin="round" stroke-width="1.36088"/>
<path d="M68.7227 61.6362C69.1102 62.7986 68.8831 64.4236 68.8831 65.6452" fill="none" opacity="1" stroke="#c8c8c8" stroke-linecap="round" stroke-linejoin="round" stroke-width="1.36088"/>
<path d="M70.166 56.264C70.2371 54.0823 71.8726 54.2595 72.7318 54.2595C72.9008 54.2595 73.2128 54.2508 73.2128 54.4199C73.2128 56.888 70.0675 59.2828 70.166 56.264Z" fill="none" opacity="1" stroke="#c8c8c8" stroke-linecap="round" stroke-linejoin="round" stroke-width="1.36088"/>
<path d="M73.6939 63.5605C76.4276 63.5605 79.8035 52.8478 78.8255 50.8919C78.7499 50.7407 78.4402 50.9129 78.3445 51.0522C77.8296 51.8011 77.4247 52.6247 77.0616 53.4577C76.0689 55.7348 74.657 59.0135 74.9768 61.6362C75.1079 62.7106 75.1776 64.1158 76.0994 64.6831C76.9751 65.222 78.1436 64.4299 79.1463 64.202C79.3342 64.1593 79.467 63.9882 79.6274 63.8813" fill="none" opacity="1" stroke="#c8c8c8" stroke-linecap="round" stroke-linejoin="round" stroke-width="1.36088"/>
<path d="M85.2401 62.7587C85.2401 61.365 85.6029 60.2011 85.2401 58.7496C84.8916 57.3556 82.9747 56.9459 82.1932 58.2686C81.1895 59.967 80.2348 63.7714 82.5139 65.1642C82.979 65.4484 83.6739 65.1603 84.1175 64.8434C87.2953 62.5736 89.0137 56.4994 89.7302 52.9766C90.0187 51.5584 90.0011 50.0932 90.0509 48.6468C90.0551 48.5273 89.9693 48.2361 89.8906 48.3261C87.9351 50.5608 86.8662 55.4795 86.6833 58.2686C86.5677 60.032 86.4182 61.8932 87.004 63.5605C87.2114 64.1508 88.18 63.9882 88.768 64.202" fill="none" opacity="1" stroke="#c8c8c8" stroke-linecap="round" stroke-linejoin="round" stroke-width="1.36088"/>
<path d="M102.239 53.2973C101.877 51.1312 102.84 51.0981 102.72 53.618C102.64 55.281 102.429 56.9354 102.239 58.5893C102.006 60.6013 101.611 62.8353 101.276 64.8434" fill="none" opacity="1" stroke="#c8c8c8" stroke-linecap="round" stroke-linejoin="round" stroke-width="1.36088"/>
<path d="M96.7862 54.0991C96.277 56.1359 100.452 55.0172 100.956 54.9009C102.49 54.5469 107.383 51.7202 108.493 53.9388" fill="none" opacity="1" stroke="#c8c8c8" stroke-linecap="round" stroke-linejoin="round" stroke-width="1.36088"/>
<path d="M99.0313 65.966C101.343 64.425 103.592 64.6831 106.248 64.6831" fill="none" opacity="1" stroke="#c8c8c8" stroke-linecap="round" stroke-linejoin="round" stroke-width="1.36088"/>
<path d="M108.172 61.3155C106.581 61.3155 107.049 63.6732 107.049 64.8434C107.049 65.2842 107.058 66.438 107.37 66.1263C109.399 64.0974 109.898 60.312 112.502 58.7496C113.191 58.3362 112.776 60.3596 112.662 61.1551C112.468 62.5105 112.021 63.7686 112.021 65.1642" fill="none" opacity="1" stroke="#c8c8c8" stroke-linecap="round" stroke-linejoin="round" stroke-width="1.36088"/>
<path d="M116.912 59.9524C114.574 61.2012 116.655 67.8544 113.945 68.5318C113.829 68.5608 113.757 68.3274 113.785 68.2111C113.978 67.3883 114.265 66.5871 114.586 65.8056C115.014 64.7664 115.527 63.7639 116.03 62.7587C116.65 61.5184 117.178 60.2198 117.954 59.0704C118.804 57.811 120.283 55.251 121.482 56.1838C123.169 57.4956 120.541 62.5033 119.237 63.4002C116.944 64.9765 117.334 59.727 116.912 59.9524Z" fill="none" opacity="1" stroke="#c8c8c8" stroke-linecap="round" stroke-linejoin="round" stroke-width="1.36088"/>
<path d="M125.491 57.9478C126.766 56.6727 124.668 62.7471 124.689 62.9191C124.845 64.1675 128.438 59.9724 128.698 59.7118C128.805 59.6049 128.951 59.2559 129.019 59.3911C129.153 59.6584 126.806 66.2545 129.661 63.4002" fill="none" opacity="1" stroke="#c8c8c8" stroke-linecap="round" stroke-linejoin="round" stroke-width="1.36088"/>
<path d="M133.83 49.2882C132.071 51.0468 132.917 56.5587 132.707 58.5893C132.552 60.0932 132.254 61.5792 132.066 63.0794C132.039 63.2916 132.066 63.5071 132.066 63.7209" fill="none" opacity="1" stroke="#c8c8c8" stroke-linecap="round" stroke-linejoin="round" stroke-width="1.36088"/>
<path d="M130.783 55.8631C132.479 55.015 135.68 55.7406 137.518 55.8631" fill="none" opacity="1" stroke="#c8c8c8" stroke-linecap="round" stroke-linejoin="round" stroke-width="1.36088"/>
<path d="M140.084 56.5046C139.103 54.5419 135.142 56.4274 135.273 58.2686C135.33 59.0702 143.404 61.0138 140.244 62.2776C139.726 62.4849 139.193 62.6769 138.641 62.7587C137.74 62.8921 136.825 62.9191 135.915 62.9191C135.59 62.9191 135.273 62.8122 134.953 62.7587" fill="none" opacity="1" stroke="#c8c8c8" stroke-linecap="round" stroke-linejoin="round" stroke-width="1.36088"/>
<path d="M151.951 55.2217C152.256 55.1345 160.497 53.0428 159.488 55.0613" fill="none" opacity="1" stroke="#c8c8c8" stroke-linecap="round" stroke-linejoin="round" stroke-width="1.36088"/>
<path d="M150.989 60.5136C153.238 59.6141 155.703 58.5411 158.045 59.7118" fill="none" opacity="1" stroke="#c8c8c8" stroke-linecap="round" stroke-linejoin="round" stroke-width="1.36088"/>
<path d="M184.344 46.5621C181.121 47.6365 177.068 45.3089 173.921 46.8828C173.26 47.2131 174.602 48.7075 174.241 49.609C173.664 51.0519 172.335 52.0202 171.836 53.618C171.008 56.2682 171.107 59.5227 170.713 62.2776C170.596 63.0991 169.485 64.0963 170.072 64.6831C170.476 65.0869 172.534 64.5409 172.798 64.5227C175.531 64.3343 177.893 64.2495 180.335 65.6452" fill="none" opacity="1" stroke="#c8c8c8" stroke-linecap="round" stroke-linejoin="round" stroke-width="1.36088"/>
<path d="M50.1235 152.241C49.2616 151.81 52.0473 152.36 53.01 152.402C54.5112 152.467 56.2019 151.917 57.6605 152.241C58.2464 152.371 57.9813 153.879 57.9813 154.326C57.9813 155.716 57.9813 157.105 57.9813 158.495C57.9813 159.446 57.8365 169.705 57.1795 170.362C57.0283 170.513 56.7518 170.362 56.538 170.362C55.5743 170.362 54.6135 170.258 53.6515 170.202C52.9082 170.158 50.9008 170.671 51.5668 171.004" fill="none" opacity="1" stroke="#c8c8c8" stroke-linecap="round" stroke-linejoin="round" stroke-width="1.36088"/>
<path d="M64.6363 157.453C65.1677 156.666 67.2928 156.232 66.1598 158.175C65.6386 159.068 62.759 160.231 64.6363 157.453Z" fill="none" opacity="1" stroke="#c8c8c8" stroke-linecap="round" stroke-linejoin="round" stroke-width="1.36088"/>
<path d="M66.6409 163.948C73.4584 166.22 68.6804 170.823 64.3958 171.966" fill="none" opacity="1" stroke="#c8c8c8" stroke-linecap="round" stroke-linejoin="round" stroke-width="1.36088"/>
<g opacity="1">
<path d="M87.3248 143.421C86.9356 143.421 86.3763 144.09 86.2022 143.742C85.8961 143.13 89.1102 138.663 89.5699 138.29C91.1361 137.017 95.2375 136.104 96.7862 135.563C101.414 133.949 105.301 134.495 110.096 134.601C114.265 134.694 117.203 134.393 118.596 138.771C120.278 144.058 113.974 148.685 109.455 149.355C103.473 150.241 97.962 145.149 93.0978 142.619C91.3485 141.71 90.8238 142.052 89.4095 139.893C87.4085 136.839 89.4334 133.539 91.6546 131.394C95.5534 127.63 103.053 127.523 108.012 128.828C108.962 129.078 110.061 129.238 110.738 129.951C112.907 132.234 108.814 135.808 107.049 136.205C102.946 137.128 95.1657 136.835 92.7771 132.356C92.3738 131.6 92.5812 130.57 92.9375 129.79C93.6148 128.309 94.6937 126.843 96.1447 126.102C98.3593 124.971 100.441 123.378 102.88 122.895C105.712 122.334 108.679 122.663 111.54 123.055C116.665 123.759 119.332 125.2 123.727 127.064C125.316 127.738 133.48 130.985 133.349 133.479C132.983 140.439 127.008 144.375 120.36 144.544C118.347 144.595 116.396 143.834 114.426 143.421C112.866 143.095 109.336 142.878 110.417 140.374C114.301 131.38 123.084 127.033 132.707 129.63C133.985 129.975 135.367 131.052 135.594 132.356C136.295 136.386 134.355 139.616 131.104 142.138C125.104 146.794 118.864 148.28 111.379 148.072C109.209 148.011 102.414 147.471 102.88 143.742C103.02 142.618 103.394 141.49 104.002 140.535C105.661 137.928 107.137 135.003 109.615 133.158C111.934 131.432 114.904 130.373 117.794 130.271C121.241 130.15 124.617 131.445 127.897 132.517C130.055 133.222 132.024 134.427 133.99 135.563C137.558 137.626 143.448 141.377 141.046 146.468C140.179 148.306 139.023 150.074 137.518 151.439C136.065 152.758 134.337 154.107 132.387 154.326C129.329 154.669 126.174 153.988 123.246 153.043C118.331 151.456 113.087 145.877 109.776 142.619C108.454 141.32 106.191 139.742 106.729 137.969C107.125 136.662 107.939 135.49 108.813 134.441C110.096 132.902 111.395 131.25 113.143 130.271C120.113 126.368 129.595 126.643 137.198 127.866C139.22 128.192 141.42 128.342 143.131 129.47C144.035 130.065 144.041 131.455 144.254 132.517C145.984 141.171 137.305 146.567 129.821 147.43C123.171 148.198 115.201 144.257 109.776 141.818C107.919 140.983 106.097 140.012 104.484 138.771C103.953 138.362 103.179 137.582 103.521 137.007C104.565 135.251 106.323 133.986 108.012 132.837C110.799 130.94 113.823 129.039 117.152 128.507C121.467 127.819 125.791 127.152 130.142 126.743C135.473 126.243 140.83 126.065 146.178 125.781C146.872 125.744 147.569 125.733 148.263 125.781C150.619 125.947 153.268 125.251 155.319 126.423C156.251 126.956 155.408 128.637 154.998 129.63C154.364 131.165 153.312 132.505 152.272 133.799C149.886 136.767 147.056 139.404 143.452 140.855C133.492 144.867 124.707 140.713 116.19 135.563C114.854 134.756 113.589 133.798 112.502 132.677C111.851 132.006 110.95 131.2 111.058 130.271C111.252 128.609 112.042 126.881 113.304 125.781C115.923 123.499 119.052 121.764 122.284 120.489C124.966 119.431 127.913 119.157 130.783 118.886C134.723 118.513 138.704 118.264 142.65 118.565C145.755 118.802 148.989 119.13 151.791 120.489C152.931 121.043 153.397 122.6 153.555 123.857C154.276 129.625 147.993 134.394 143.612 136.365C141.329 137.393 138.895 138.295 136.396 138.45C132.754 138.676 128.929 138.712 125.491 137.488C121.664 136.125 118.179 133.705 115.228 130.913C112.144 127.996 109.708 124.384 107.691 120.65C106.483 118.414 108.56 115.139 110.577 113.594C112.863 111.844 115.324 110.273 117.954 109.104C121.136 107.689 124.462 106.474 127.897 105.896C130.585 105.444 133.411 105.474 136.075 106.057C141.423 107.227 145.889 111.465 149.385 115.678C149.627 115.969 149.633 116.433 149.546 116.801C149.144 118.495 148.937 120.344 147.942 121.772C146.407 123.974 144.279 125.727 142.169 127.385C139.767 129.272 137.263 131.116 134.471 132.356C130.47 134.134 126.314 135.879 121.963 136.365C118.009 136.807 113.922 136.175 110.096 135.082C107.061 134.215 104.407 132.308 101.757 130.592C98.7782 128.663 96.1274 126.267 93.2582 124.178C91.2086 122.685 89.2055 121.106 87.004 119.848C85.9766 119.261 83.3612 118.976 83.3157 118.725C82.9838 116.9 85.4899 115.628 87.004 114.556C88.4704 113.517 89.9203 112.3 91.6546 111.83C96.1652 110.607 100.254 113.938 100.795 118.405C101.709 125.942 91.6103 135.328 84.1175 130.913C82.5189 129.971 81.1892 128.436 80.4292 126.743C79.1833 123.968 81.6281 121.005 83.4761 119.527C85.2729 118.09 87.2076 116.667 89.4095 115.999C92.0817 115.188 94.9561 115.169 97.7484 115.197C100.78 115.228 103.965 115.394 106.729 116.641C108.952 117.643 111.483 118.226 113.304 119.848C114.589 120.993 115.521 122.777 115.549 124.498C115.579 126.394 114.424 128.156 113.464 129.79C112.424 131.561 111.172 133.262 109.615 134.601C105.52 138.126 99.4157 142.454 93.5789 142.94C90.8434 143.168 87.9088 143.093 85.4004 141.978C82.8731 140.855 80.9675 138.607 79.1463 136.526C78.2956 135.553 77.7156 134.278 77.5426 132.998C77.2345 130.717 79.3493 128.591 81.0706 127.064C83.3021 125.085 85.4376 122.655 88.2869 121.772C91.7606 120.696 95.5947 120.916 99.1916 121.451C102.187 121.897 105.059 123.16 107.691 124.659C110.552 126.288 112.52 130.877 112.021 134.12C111.626 136.684 108.407 140.066 106.729 141.176C104.633 142.563 102.284 143.669 99.8331 144.223C93.6312 145.626 88.9495 143.035 84.2779 139.091C82.3373 137.453 80.7864 135.382 79.3066 133.318C78.734 132.52 78.0225 131.562 78.1841 130.592C78.6201 127.976 82.7493 125.697 84.5986 124.979C87.6104 123.81 90.6978 122.685 93.8996 122.253C98.2979 121.661 102.773 122.048 107.21 121.933C113.09 121.78 118.971 121.642 124.85 121.451C128.86 121.321 132.871 121.19 136.877 120.97C140.676 120.762 144.459 120.238 148.263 120.169C150.353 120.131 152.478 120.188 154.517 120.65C157.048 121.223 157.947 124.002 159.167 125.781C160.711 128.033 162.887 130.229 161.893 133.318C159.288 141.425 152.155 147.422 143.291 146.949C139.157 146.729 136.639 144.901 134.953 141.176C132.849 136.531 136.439 132.662 140.726 131.234C143.361 130.355 146.127 129.571 148.904 129.63C151.29 129.681 153.589 130.656 155.8 131.554C158.764 132.758 159.818 133.759 159.969 136.846C160.271 143.028 157.635 144.951 152.272 147.27C151.915 147.424 151.537 147.565 151.149 147.591C149.068 147.726 146.921 148.245 144.895 147.751C142.619 147.197 140.243 146.253 138.641 144.544C136.858 142.642 135.764 140.047 135.273 137.488C134.973 135.922 135.891 134.35 136.396 132.837C136.541 132.401 136.855 132.021 137.198 131.715C139.377 129.767 141.349 127.467 143.933 126.102C148.015 123.945 152.443 122.411 156.922 121.291C159.782 120.576 162.801 120.459 165.742 120.65C167.01 120.732 168.428 121.141 169.27 122.093C169.873 122.775 169.593 123.923 169.431 124.819C169.158 126.316 168.648 127.779 167.987 129.149C166.599 132.029 164.293 135.168 161.893 137.327C158.686 140.214 155.415 142.719 150.828 142.94C148.441 143.055 145.967 142.606 143.772 141.657C141.888 140.842 140.274 139.388 138.962 137.808C137.075 135.538 135.332 133.042 134.311 130.271C133.417 127.845 132.842 125.11 133.349 122.574C133.616 121.238 135.336 120.704 136.396 119.848C136.731 119.577 137.117 119.364 137.518 119.206C140.115 118.186 142.656 116.942 145.376 116.32C149.002 115.49 152.751 115.344 156.441 114.877C159.205 114.527 167.021 112.591 167.506 117.122C167.752 119.414 165.381 123.018 164.139 124.178C162.067 126.111 159.594 127.567 157.243 129.149C154.597 130.93 151.106 130.994 147.942 131.394C134.288 133.12 121.786 124.371 120.199 110.547C119.853 107.529 123.312 107.283 125.17 106.858C127.552 106.314 129.947 105.706 132.387 105.576C141.337 105.096 150.383 106.587 158.205 111.188C159.846 112.153 161.257 113.47 162.695 114.716C162.876 114.873 162.995 115.12 163.016 115.358C163.546 121.457 157.699 122.922 152.753 124.498C150.344 125.266 147.888 125.974 145.376 126.262C141.337 126.726 137.236 127.128 133.189 126.743C126.557 126.114 120.503 122.398 114.747 119.046C113.423 118.275 111.821 117.884 110.738 116.801C110.358 116.421 111.813 116.738 112.341 116.641C113.847 116.363 115.328 115.965 116.832 115.678C119.819 115.109 122.814 114.583 125.812 114.075C129.122 113.514 132.419 112.849 135.754 112.471C138.094 112.206 140.462 112.323 142.81 112.15C144.1 112.056 145.377 111.838 146.659 111.669C147.661 111.537 150.326 110.778 151.149 112.15C151.845 113.311 152.285 114.9 151.791 116.16C151 118.173 149.3 119.767 147.621 121.131C140.116 127.229 128.899 126.436 119.878 126.743C117.848 126.813 115.803 126.974 113.785 126.743C109.72 126.279 106.085 123.543 103.04 120.81C102.753 120.553 102.495 120.221 102.399 119.848C102.061 118.537 101.401 117.144 101.757 115.839C102.57 112.859 108.46 110.753 110.417 109.905C113.432 108.599 116.443 107.264 119.558 106.217C126.582 103.855 136.756 100.924 139.763 110.547C141.674 116.659 135.235 122.137 130.783 124.819C124.891 128.369 119.546 130.453 113.624 126.102C112.222 125.072 110.9 123.903 109.776 122.574C108.075 120.565 105.269 117.647 106.568 115.358C108.958 111.148 114.049 109.698 118.275 108.462C125.79 106.264 134.761 105.798 142.49 106.858C144.994 107.202 147.563 107.579 149.866 108.622C151.106 109.184 152.217 110.258 152.753 111.509C153.116 112.357 152.509 113.344 152.272 114.235C152.047 115.076 150.922 116.755 151.791 116.801C154.353 116.936 156.935 116.381 159.488 116.641C162.966 116.994 166.076 118.16 169.591 117.122C171.521 116.552 173.452 115.985 175.364 115.358C175.756 115.229 180.002 112.923 180.496 114.075C181.185 115.684 178.787 117.14 177.769 118.565C176.667 120.108 175.125 121.312 174.081 122.895C172.16 125.806 171.502 129.944 168.789 132.356C168.536 132.581 168.919 131.673 169.11 131.394C170.317 129.629 171.401 127.727 172.958 126.262C174.128 125.163 175.545 124.121 177.128 123.857C178.345 123.654 179.64 124.279 180.656 124.979C182.632 126.343 182.654 131.987 182.099 133.799C180.148 140.174 173.925 143.579 168.629 146.628C163.617 149.514 159.099 149.758 153.394 148.713C151.249 148.32 148.655 148.358 147.14 146.789C145.899 145.504 144.216 144.35 143.772 142.619C143.546 141.738 144.715 140.927 145.536 140.535C147.279 139.701 149.248 139.435 151.149 139.091C159.305 137.617 167.909 136.752 176.166 136.045C177.729 135.91 181.295 135.318 182.26 137.648C183.02 139.485 181.534 142.305 180.496 143.582C179.303 145.047 178.015 146.479 176.486 147.591C172.99 150.134 166.489 153.684 161.893 153.684C159.646 153.684 157.241 154.208 155.158 153.364C153.052 152.51 151.678 150.435 150.027 148.874C149.693 148.558 149.357 148.191 149.225 147.751C148.547 145.491 147.488 143.211 147.621 140.855C147.818 137.386 149.102 134.053 150.187 130.753C150.401 130.102 150.882 129.5 151.47 129.149C153.975 127.655 156.503 126.028 159.328 125.3C163.443 124.239 167.757 124.156 171.996 123.857C175.356 123.62 178.737 123.496 182.099 123.697C183.265 123.766 184.562 123.921 185.467 124.659C188.457 127.095 184.638 132.482 183.382 134.601C180.841 138.889 178.139 141.396 174.081 144.063C173.741 144.286 173.362 144.493 172.958 144.544C171.205 144.763 169.335 145.447 167.667 144.864C165.728 144.187 163.711 142.883 162.856 141.016C161.784 138.679 161.503 135.737 162.375 133.318C163.299 130.754 165.603 128.8 167.827 127.225C169.579 125.984 171.868 125.768 173.921 125.14C174.492 124.965 175.088 124.855 175.685 124.819C178.621 124.641 181.563 124.44 184.505 124.498C189.506 124.597 193.923 124.319 196.211 129.149C197.417 131.695 193.254 135.392 191.881 136.365C188.809 138.544 183.14 140.795 179.533 141.336C177.577 141.63 175.485 141.778 173.6 141.176C172.724 140.896 172.05 139.849 171.996 138.931C171.878 136.922 172.266 134.821 173.119 132.998C174.237 130.605 175.543 128.004 177.769 126.583C180.272 124.985 183.477 124.819 186.429 124.498C188.455 124.278 190.529 124.558 192.523 124.979C194.359 125.367 196.305 125.789 197.815 126.904C198.719 127.571 199.374 128.833 199.258 129.951C199.028 132.172 198.06 134.326 196.853 136.205C192.39 143.147 184.306 144.62 176.807 145.827C174.843 146.143 172.822 146.871 170.874 146.468C169.492 146.182 167.897 145.258 167.506 143.902C166.965 142.028 167.489 139.816 168.468 138.129C169.534 136.294 171.599 135.256 173.279 133.96C174.652 132.9 176.166 132.035 177.609 131.073" fill="none" opacity="1" stroke="#d3e07a" stroke-linecap="round" stroke-linejoin="round" stroke-width="1.36088"/>
<path d="M114.907 107.981C114.907 107.981 113.464 100.909 113.464 100.123C113.464 93.1733 121.437 85.3699 122.765 85.3699" fill="none" opacity="1" stroke="#d3e07a" stroke-linecap="round" stroke-linejoin="round" stroke-width="4.77982"/>
<path d="M187.391 123.697C188.524 124.074 191.075 119.825 192.843 118.084C195.109 115.854 197.549 113.81 199.899 111.669C202.15 109.619 204.449 107.674 206.795 105.736C207.494 105.158 207.812 103.812 208.719 103.812C208.888 103.812 208.439 104.173 208.559 104.293C208.802 104.536 210.036 103.138 210.483 103.01C212.554 102.418 214.008 102.833 216.096 103.17C217.086 103.33 222.248 103.68 222.19 103.651" fill="none" opacity="1" stroke="#d3e07a" stroke-linecap="round" stroke-linejoin="round" stroke-width="4.77982"/>
<path d="M77.0616 125.621C78.1216 128.801 75.9804 122.872 75.7787 122.414C75.2868 121.296 74.8431 120.157 74.3354 119.046C73.2982 116.777 71.7977 112.159 69.2038 111.349C64.8969 110.003 56.2888 112.085 52.045 112.792C50.4207 113.063 48.8189 113.467 47.2341 113.914C46.8193 114.031 45.6806 114.556 46.1115 114.556" fill="none" opacity="1" stroke="#d3e07a" stroke-linecap="round" stroke-linejoin="round" stroke-width="4.77982"/>
<g opacity="1">
<path d="M122.605 79.5968C120.169 75.2124 130.162 73.7745 130.462 80.0779C130.515 81.1871 130.074 82.8163 129.661 83.7662C129.1 85.0554 128.437 85.9271 127.095 86.4924C123.248 88.1121 118.76 77.9565 124.369 76.7103" fill="#c8c8c8" fill-rule="nonzero" stroke="none"/>
<path d="M126.156 73.9062C124.712 73.8873 123.138 74.324 122.031 75.2812C121.351 75.8699 120.609 77.006 120.781 77.9688C120.796 78.0502 120.878 78.1068 120.906 78.1875C120.844 78.3483 120.732 78.5008 120.688 78.6562C119.521 82.7764 123.493 89.9867 128.375 87.2812C129.785 86.5001 130.596 85.1589 131.219 83.7188C132.607 80.5087 132.637 76.6889 129.188 74.7188C128.274 74.1972 127.208 73.9201 126.156 73.9062ZM126.344 77.7812C127.043 77.9035 127.703 78.1828 128.125 78.6562C129.405 80.0924 128.74 83.1807 127.688 84.5C127.375 84.891 127.002 85.1137 126.562 85.3438C125.655 85.8187 124.482 84.298 124.125 83.75C123.342 82.5481 122.692 80.7599 123.094 79.3125C123.169 79.0396 123.319 78.8393 123.469 78.625C123.525 78.5444 123.569 78.4564 123.625 78.375C123.651 78.3364 123.662 78.2896 123.688 78.25C123.696 78.245 123.71 78.255 123.719 78.25C123.945 78.1218 124.177 77.9659 124.344 77.9062C124.916 77.7014 125.645 77.659 126.344 77.7812Z" fill="#c8c8c8" stroke="none"/>
</g>
<path d="M144.414 105.576C144.414 104.111 144.856 102.223 145.055 100.765C145.412 98.1507 145.937 95.9538 146.98 92.9069C148.022 89.86 149.225 88.5771 149.225 88.5771" fill="none" opacity="1" stroke="#d3e07a" stroke-linecap="round" stroke-linejoin="round" stroke-width="4.77982"/>
<path d="M125.689 83.7026L126.404 84.9959" fill="#31322d" fill-rule="nonzero" opacity="1" stroke="none"/>
<g opacity="1">
<path d="M126.268 80.0268C128.65 80.0268 128.941 82.406 128.957 83.3623C128.972 84.3186 128.412 86.7168 126.438 86.9019C124.464 87.087 123.576 86.3708 123.477 84.3833C123.409 83.0219 124.838 80.0268 126.268 80.0268Z" fill="#31322d" fill-rule="nonzero" opacity="1" stroke="none"/>
<path d="M126.943 83.9374C127.534 84.0136 127.591 84.2989 127.591 85.2518C127.591 86.2048 127.184 85.9555 126.633 86.2959C126.081 86.6362 125.674 85.8236 125.648 85.3471C125.622 84.8706 126.398 83.8672 126.943 83.9374Z" fill="#ffffff" fill-rule="nonzero" opacity="1" stroke="none"/>
</g>
<g opacity="1">
<g opacity="1">
<path d="M151.221 82.5057C150.726 80.6925 151.522 77.849 154.107 78.657C157.662 79.7679 160.332 87.765 155.07 89.0806C154.182 89.3025 153.256 89.4622 152.343 89.4013C151.618 89.3529 150.859 89.1704 150.259 88.7598C146.975 86.5129 147.232 79.404 151.542 78.4966C153.246 78.1378 154.781 79.7892 156.353 80.2606" fill="#c8c8c8" fill-rule="nonzero" stroke="none"/>
<path d="M152.656 77.375C152.007 77.2695 151.34 77.3123 150.656 77.5625C145.798 79.3396 145.681 88.2039 150.562 89.9688C151.755 90.3997 153.088 90.3566 154.312 90.125C155.109 89.9744 155.95 89.7574 156.656 89.3438C159.34 87.7722 159.252 84.2881 158.188 81.75C157.39 79.8481 155.512 77.5166 153.219 77.5938C153.027 77.5358 152.852 77.4067 152.656 77.375ZM152.75 79.8125C153.247 79.9881 153.721 80.2571 154.25 80.4688C154.302 80.4894 154.335 80.5225 154.406 80.5312C154.56 80.4221 154.669 80.2783 154.812 80.1562C154.912 80.2295 155 80.3227 155.094 80.4062C154.986 80.4634 154.761 80.5719 154.719 80.5938C154.932 80.6105 155.247 80.5973 155.188 80.75C155.039 81.1327 155.222 81.0018 155.625 80.9375C156.24 81.6945 156.671 82.6214 156.906 83.4375C157.395 85.1309 157.26 87.3519 155.375 88.0938C154.699 88.3597 153.909 88.496 153.188 88.5312C152.607 88.5596 152.049 88.5311 151.5 88.3438C148.848 87.4385 148.31 82.5485 150.219 80.5C150.226 80.8567 150.318 81.2406 150.438 81.5625C150.507 81.7503 150.489 82.1206 150.688 82.0938C151.767 81.9477 150.678 82.1023 150.969 82.5625C150.998 82.7038 151.14 82.7794 151.281 82.75C151.423 82.7206 151.498 82.5788 151.469 82.4375C153.78 81.6553 154.313 81.4755 153.781 81.6562C153.075 81.8965 152.307 82.023 151.562 81.9688C151.403 81.9571 151.655 81.6774 151.719 81.5312C151.838 81.2584 152.041 80.9932 152.156 80.7188C152.312 80.3491 152.488 80.0353 152.75 79.8125ZM154.719 80.5938C154.582 80.583 154.541 80.5478 154.406 80.5312C154.173 80.6973 154.027 80.9566 153.781 81.0938C153.463 81.2717 154.612 80.6492 154.719 80.5938Z" fill="#c8c8c8" stroke="none"/>
</g>
<g opacity="1">
<path d="M153.913 82.3151C156.296 82.3151 156.586 84.6942 156.602 85.6505C156.617 86.6068 156.057 89.005 154.083 89.1901C152.109 89.3752 151.221 88.6591 151.122 86.6715C151.054 85.3101 152.483 82.3151 153.913 82.3151Z" fill="#31322d" fill-rule="nonzero" opacity="1" stroke="none"/>
<path d="M154.588 86.2257C155.179 86.3019 155.236 86.5871 155.236 87.5401C155.236 88.493 154.829 88.2437 154.278 88.5841C153.726 88.9244 153.319 88.1118 153.293 87.6353C153.267 87.1588 154.044 86.1554 154.588 86.2257Z" fill="#ffffff" fill-rule="nonzero" opacity="1" stroke="none"/>
</g>
</g>
</g>
<path d="M81.0746 31.8158C81.0746 32.2158 81.4745 33.0157 81.0746 33.0157C80.3512 33.0157 80.7171 31.6048 80.6746 30.8826C80.4582 27.2043 81.6911 25.6081 83.8742 28.8829" fill="none" opacity="1" stroke="#c8c8c8" stroke-linecap="round" stroke-linejoin="round" stroke-width="1.36088"/>
<path d="M86.4072 26.8831C84.4135 27.88 86.9151 34.1583 88.1403 30.4827" fill="none" opacity="1" stroke="#c8c8c8" stroke-linecap="round" stroke-linejoin="round" stroke-width="1.36088"/>
<path d="M51.4489 189.743C49.9993 187.568 51.1427 192.766 51.0614 194.393C51.029 195.041 50.9215 195.684 50.8676 196.331C50.8569 196.46 50.8676 196.848 50.8676 196.718C50.8676 193.761 53.6362 188.801 55.5181 186.448C55.7765 186.125 56.1505 185.433 56.487 185.673C57.0007 186.04 56.8746 188.72 56.8746 189.161C56.8746 192.539 56.1947 204.105 62.4939 197.106" fill="none" opacity="1" stroke="#c8c8c8" stroke-linecap="round" stroke-linejoin="round" stroke-width="1.36088"/>
<path d="M70.6324 192.649C68.7044 192.649 71.5289 186.977 68.8884 186.448C66.9297 186.057 65.873 189.215 65.4005 190.13C64.5628 191.753 64.0599 197.655 67.3382 196.525C68.7625 196.033 70.0821 195.194 71.2137 194.199C72.252 193.287 73.0038 192.08 73.7327 190.905C74.1755 190.192 74.5635 189.408 74.7016 188.58C74.7782 188.12 74.1457 189.332 73.9265 189.743C73.2646 190.984 72.882 192.007 72.7639 193.424C72.5258 196.281 73.2117 197.653 75.8642 196.137" fill="none" opacity="1" stroke="#c8c8c8" stroke-linecap="round" stroke-linejoin="round" stroke-width="1.36088"/>
<path d="M81.8712 188.967C81.3477 190.538 81.4585 189.935 81.2898 191.874C81.2113 192.777 81.1493 193.682 81.0961 194.587C80.9978 196.257 85.5534 186.891 86.5217 187.03C87.4364 187.16 85.651 193.014 86.1341 193.618C86.3514 193.89 86.868 193.487 87.103 193.23C88.1973 192.037 89.1435 187.611 90.9784 187.611C91.2448 187.611 91.1532 188.121 91.1722 188.386C91.2818 189.921 90.7334 192.814 92.1411 194.006C94.5895 196.077 103.498 189.253 100.861 186.836C95.0061 181.469 93.403 192.579 96.4041 196.331C97.0936 197.193 98.4087 197.626 99.5044 197.493C100.769 197.34 101.701 196.202 102.799 195.556" fill="none" opacity="1" stroke="#c8c8c8" stroke-linecap="round" stroke-linejoin="round" stroke-width="1.36088"/>
<path d="M117.525 187.999C118.474 186.102 126.726 184.263 127.795 185.867" fill="none" opacity="1" stroke="#c8c8c8" stroke-linecap="round" stroke-linejoin="round" stroke-width="1.36088"/>
<path d="M118.3 193.618C119.348 190.475 125.929 192.302 128.376 191.486" fill="none" opacity="1" stroke="#c8c8c8" stroke-linecap="round" stroke-linejoin="round" stroke-width="1.36088"/>
<path d="M153.954 177.535C153.954 176.895 152.962 178.366 152.598 178.891C152.465 179.083 152.319 179.267 152.21 179.473C151.136 181.501 149.143 183.963 151.048 185.867" fill="none" opacity="1" stroke="#c8c8c8" stroke-linecap="round" stroke-linejoin="round" stroke-width="1.36088"/>
<path d="M158.992 178.698C157.329 179.945 152.196 187.616 154.148 188.967C154.742 189.379 155.569 189.226 156.28 189.355" fill="none" opacity="1" stroke="#c8c8c8" stroke-linecap="round" stroke-linejoin="round" stroke-width="1.36088"/>
<path d="M169.456 188.774C168.779 187.42 168.691 191.252 168.681 191.293C168.225 193.117 166.432 194.972 167.131 196.718C167.251 197.018 167.702 196.388 167.906 196.137C168.55 195.344 169.089 194.471 169.65 193.618C171.186 191.283 172.324 188.618 174.3 186.642C174.489 186.454 174.177 187.16 174.107 187.417C173.983 187.871 173.861 188.325 173.719 188.774C173.337 189.984 172.25 191.289 172.75 192.455C172.852 192.693 173.325 192.618 173.525 192.455C174.485 191.675 176.488 188.893 177.788 188.192C178.36 187.885 177.816 189.52 177.595 190.13C176.598 192.87 175.7 194.341 178.757 193.424" fill="none" opacity="1" stroke="#c8c8c8" stroke-linecap="round" stroke-linejoin="round" stroke-width="1.36088"/>
<path d="M183.408 186.836C182.137 187.471 182.318 194.744 184.57 193.618C186.995 192.406 188.461 188.393 190.19 186.448C190.828 185.731 189.65 188.302 189.221 189.161C188.884 189.835 188.387 190.421 188.058 191.099C186.115 195.107 184.665 198.958 183.795 203.307" fill="none" opacity="1" stroke="#c8c8c8" stroke-linecap="round" stroke-linejoin="round" stroke-width="1.36088"/>
<path d="M195.034 189.743C195.034 184.505 190.262 189.525 191.159 194.006C191.223 194.328 191.87 194.405 192.127 194.199C193.271 193.285 194.114 192.044 195.034 190.905C195.383 190.474 196.584 188.858 196.584 187.999C196.584 187.651 196.312 188.639 196.197 188.967C195.925 189.738 195.662 190.512 195.422 191.293C194.993 192.686 193.992 194.173 194.453 195.556C194.537 195.808 195.025 195.922 195.228 195.749C196.413 194.742 197.316 193.443 198.328 192.262C199.405 191.006 200.339 189.631 201.429 188.386C201.524 188.277 201.296 188.643 201.235 188.774C200.844 189.612 200.471 190.458 200.072 191.293C199.05 193.43 197.912 195.513 196.972 197.687C196.591 198.569 196.292 199.484 196.003 200.4C195.904 200.714 195.576 201.602 195.809 201.369C197.404 199.774 197.615 197.234 198.522 195.168C199.966 191.88 200.996 189.624 203.948 187.03C204.608 186.45 205.691 185.841 206.467 186.255C208.013 187.079 206.25 189.911 205.885 190.518C204.71 192.476 203.946 194.006 201.816 194.974C201.159 195.273 200.376 195.569 199.685 195.362C199.131 195.196 200.051 194.22 200.46 193.812" fill="none" opacity="1" stroke="#c8c8c8" stroke-linecap="round" stroke-linejoin="round" stroke-width="1.36088"/>
<path d="M209.373 188.967C208.593 188.47 209.01 190.782 208.792 191.68C208.098 194.531 206.662 198.945 204.916 201.563C204.809 201.724 204.852 201.164 204.916 200.981C205.244 200.054 205.685 199.17 206.079 198.269C207.041 196.069 207.898 193.82 208.986 191.68C209.951 189.781 212.197 185.022 214.993 184.123C215.813 183.859 217.051 183.976 217.512 184.704C219.166 187.325 214.568 192.408 212.667 193.618C212.218 193.904 211.47 194.405 211.117 194.006C210.613 193.434 210.546 189.715 209.373 188.967Z" fill="none" opacity="1" stroke="#c8c8c8" stroke-linecap="round" stroke-linejoin="round" stroke-width="1.36088"/>
<path d="M220.806 188.774C220.25 187.662 226.085 187.745 226.619 187.611" fill="none" opacity="1" stroke="#c8c8c8" stroke-linecap="round" stroke-linejoin="round" stroke-width="1.36088"/>
<path d="M235.436 183.348C234.511 183.093 236.173 178.809 234.176 179.86C231.418 181.312 230.011 185.259 229.332 187.805C228.83 189.686 228.227 191.742 228.75 193.618C229.095 194.853 230.39 195.939 231.657 196.137C232.856 196.324 234.08 195.432 234.951 194.587C237.447 192.165 241.762 185.092 235.436 183.348Z" fill="none" opacity="1" stroke="#c8c8c8" stroke-linecap="round" stroke-linejoin="round" stroke-width="1.36088"/>
<path d="M240.377 194.006C240.872 193.263 240.531 193.424 241.346 193.424" fill="none" opacity="1" stroke="#c8c8c8" stroke-linecap="round" stroke-linejoin="round" stroke-width="1.36088"/>
<path d="M249.678 187.805C250.531 182.685 249.205 181.75 246.577 187.224C245.192 190.111 244.523 191.937 244.834 195.556C244.88 196.102 245.454 196.637 245.996 196.718C249.298 197.214 251.009 193.675 252.391 191.486C254.436 188.247 253.283 184.696 250.647 182.185C248.963 180.582 248.054 183.779 247.74 184.317" fill="none" opacity="1" stroke="#c8c8c8" stroke-linecap="round" stroke-linejoin="round" stroke-width="1.36088"/>
<path d="M254.135 193.424C253.564 193.424 253.656 193.333 254.135 193.812" fill="none" opacity="1" stroke="#c8c8c8" stroke-linecap="round" stroke-linejoin="round" stroke-width="1.36088"/>
<path d="M265.47 183.057C266.988 182.606 267.59 181.41 265.567 181.41C261.182 181.41 258.489 191.841 258.979 194.781C259.098 195.496 260.054 196.319 260.723 196.525C264.58 197.711 268.952 191.774 268.28 188.192C267.951 186.438 266.491 184.734 265.373 183.542C265.176 183.331 264.542 183.438 264.598 183.154C264.656 182.868 265.19 183.141 265.47 183.057Z" fill="none" opacity="1" stroke="#c8c8c8" stroke-linecap="round" stroke-linejoin="round" stroke-width="1.36088"/>
<path d="M270.218 175.21C268.368 173.36 273.476 174.227 272.349 179.86C272.286 180.177 271.962 180.377 271.768 180.635" fill="none" opacity="1" stroke="#c8c8c8" stroke-linecap="round" stroke-linejoin="round" stroke-width="1.36088"/>
<path d="M272.349 174.241C271.656 174.241 274.605 174.649 274.868 175.791C275.352 177.887 274.626 179.569 273.706 181.41" fill="none" opacity="1" stroke="#c8c8c8" stroke-linecap="round" stroke-linejoin="round" stroke-width="1.36088"/>
<path d="M278.647 186.545C279.489 185.818 281.496 185.881 280.294 187.805C279.485 189.1 276.794 188.146 278.647 186.545Z" fill="none" opacity="1" stroke="#c8c8c8" stroke-linecap="round" stroke-linejoin="round" stroke-width="1.36088"/>
<path d="M278.356 192.843C279.482 195.657 281.545 198.078 282.038 201.175C282.61 204.769 278.447 207.466 275.837 204.857" fill="none" opacity="1" stroke="#c8c8c8" stroke-linecap="round" stroke-linejoin="round" stroke-width="1.36088"/>
</g>
</svg>
