<?xml version="1.0" encoding="UTF-8" standalone="no"?>
<!DOCTYPE svg PUBLIC "-//W3C//DTD SVG 1.1//EN" "http://www.w3.org/Graphics/SVG/1.1/DTD/svg11.dtd">
<!-- Created with Vectornator (http://vectornator.io/) -->
<svg height="100%" stroke-miterlimit="10" style="fill-rule:nonzero;clip-rule:evenodd;stroke-linecap:round;stroke-linejoin:round;" version="1.1" viewBox="0 0 288 216" width="100%" xml:space="preserve" xmlns="http://www.w3.org/2000/svg" xmlns:vectornator="http://vectornator.io" xmlns:xlink="http://www.w3.org/1999/xlink">
<defs>
<filter color-interpolation-filters="sRGB" filterUnits="userSpaceOnUse" height="237.755" id="Filter" width="307.957" x="-10.1354" y="-1.72807">
<feDropShadow dx="-3.67321e-05" dy="10" flood-color="#000000" flood-opacity="0.333" in="SourceGraphic" result="Shadow" stdDeviation="5"/>
</filter>
</defs>
<clipPath id="ArtboardFrame">
<rect height="216" width="288" x="0" y="0"/>
</clipPath>
<g clip-path="url(#ArtboardFrame)" id="backgtound" vectornator:layerName="backgtound" visibility="hidden">
<path d="M-0.135383-1.72807L287.822-1.72807L287.822 216.027L-0.135383 216.027L-0.135383-1.72807Z" fill="#750787" fill-rule="nonzero" filter="url(#Filter)" stroke="none" vectornator:shadowAngle="1.5708" vectornator:shadowColor="#000000" vectornator:shadowOffset="10" vectornator:shadowOpacity="0.333" vectornator:shadowRadius="10"/>
</g>
<g id="Layer-1" vectornator:layerName="Layer 1">
<path d="M73.8024 47.8953C73.3152 49.6002 73.0245 51.164 73.345 52.9265C73.3939 53.1958 73.4222 53.8407 73.6499 53.6889C74.3499 53.2222 74.3225 52.1448 74.7171 51.4019C75.9759 49.0324 76.301 48.195 78.0713 46.5231C78.5178 46.1015 79.7161 45.1476 79.7484 45.7608C79.86 47.882 79.394 48.5134 78.8336 50.3347C78.5903 51.1254 77.5489 52.7741 78.3762 52.7741C79.2811 52.7741 79.5675 51.403 80.0533 50.6396C80.7272 49.5807 81.3227 48.4712 82.0354 47.4379C82.4026 46.9054 83.2807 45.4314 83.4075 46.0657C83.7773 47.9145 82.4624 51.1824 85.0846 51.7068" fill="none" opacity="1" stroke="#c8c8c8" stroke-linecap="round" stroke-linejoin="round" stroke-width="1.36088"/>
<path d="M89.0486 47.133C89.0486 47.0281 88.9305 45.3149 89.3536 45.4559C89.7451 45.5864 89.2262 50.8268 89.506 51.5544C89.6043 51.8098 90.0203 51.975 90.2683 51.8593C91.5706 51.2516 92.8847 49.0962 93.6225 48.0477C94.1257 47.3327 94.6721 46.6473 95.1471 45.9133C95.2344 45.7783 95.4333 45.3667 95.2996 45.4559C92.5671 47.2775 91.1482 56.4468 90.5733 59.1775" fill="none" opacity="1" stroke="#c8c8c8" stroke-linecap="round" stroke-linejoin="round" stroke-width="1.36088"/>
<path d="M100.636 48.2002C103.693 46.3661 101.912 43.5388 98.6538 47.2854C98.1728 47.8385 97.7106 48.4362 97.4341 49.115C97.1408 49.8349 96.8489 50.6351 96.9767 51.4019C97.1635 52.5228 99.4015 51.446 100.331 50.7921C101.35 50.075 103.286 47.2199 103.838 46.3706C103.925 46.2359 104.151 45.9133 103.99 45.9133C102.775 45.9133 99.5889 54.2123 102.77 52.6216" fill="none" opacity="1" stroke="#c8c8c8" stroke-linecap="round" stroke-linejoin="round" stroke-width="1.36088"/>
<path d="M106.811 49.2674C106.351 48.1492 105.503 54.4382 105.21 55.6709C105.113 56.0786 104.749 57.2797 104.905 56.8906C106.159 53.7554 106.484 50.2461 108.564 47.4379C109.173 46.616 110.722 45.2278 111.308 46.0657C112.23 47.3831 109.3 55.3244 106.811 49.2674Z" fill="none" opacity="1" stroke="#c8c8c8" stroke-linecap="round" stroke-linejoin="round" stroke-width="1.36088"/>
<path d="M114.815 46.5993C113.461 45.8975 114.298 49.0088 114.205 50.1822C114.071 51.8732 113.611 53.5257 113.443 55.2135C113.407 55.5675 113.443 56.2807 113.443 56.2807C113.443 56.2807 113.427 55.0396 113.595 54.4512C113.914 53.3369 114.192 52.2113 114.51 51.097C114.972 49.4797 116.527 43.1599 118.626 43.3214C120.852 43.4926 120.767 52.3333 116.644 48.5051C115.999 47.9059 115.597 47.0047 114.815 46.5993Z" fill="none" opacity="1" stroke="#c8c8c8" stroke-linecap="round" stroke-linejoin="round" stroke-width="1.36088"/>
<path d="M125.335 47.4379C126.209 47.0009 128.181 47.2295 129.146 47.133" fill="none" opacity="1" stroke="#c8c8c8" stroke-linecap="round" stroke-linejoin="round" stroke-width="1.36088"/>
<path d="M142.029 38.7475C141.931 38.0726 143.229 37.1864 141.953 37.0704C141.548 37.0336 141.076 36.8521 140.733 37.0704C138.646 38.3991 134.79 46.0409 137.837 47.8953C141.391 50.0586 144.555 45.2041 144.85 42.2542C144.917 41.5795 144.819 40.7991 144.393 40.2721C143.803 39.5435 142.165 39.6751 142.029 38.7475Z" fill="none" opacity="1" stroke="#c8c8c8" stroke-linecap="round" stroke-linejoin="round" stroke-width="1.36088"/>
<path d="M148.052 48.6576L147.747 48.5051L147.594 48.2002L147.747 47.5903L148.052 47.133L148.357 46.9805L148.357 46.9805" fill="none" opacity="1" stroke="#c8c8c8" stroke-linecap="round" stroke-linejoin="round" stroke-width="1.36088"/>
<path d="M157.199 41.9492C156.867 40.9516 157.428 38.6157 156.437 37.9852C155.165 37.1756 153.968 39.5679 153.693 40.4246C152.87 42.9858 150.927 47.6953 154.15 49.7248C155.736 50.7234 157.404 49.4172 158.114 48.2002C159.954 45.0468 161.164 40.974 158.724 37.6803C158.386 37.2237 157.606 37.477 157.047 37.3753" fill="none" opacity="1" stroke="#c8c8c8" stroke-linecap="round" stroke-linejoin="round" stroke-width="1.36088"/>
<path d="M162.688 47.2854C163.282 47.4833 163.032 47.5515 163.45 47.133" fill="none" opacity="1" stroke="#c8c8c8" stroke-linecap="round" stroke-linejoin="round" stroke-width="1.36088"/>
<path d="M171.988 37.7565C171.956 37.916 172.293 38.3004 172.293 38.1377C172.293 37.7677 172.358 37.0935 171.988 37.0704C170.54 36.9799 169.257 38.4415 168.634 39.5098C167.161 42.0352 166.002 46.3724 168.329 48.81C169.675 50.2194 171.814 48.6355 172.598 47.7428C173.859 46.3076 175.19 44.0239 175.19 41.9492C175.19 40.1851 173.856 37.5566 172.598 36.613C172.253 36.3538 172.073 37.3329 171.988 37.7565Z" fill="none" opacity="1" stroke="#c8c8c8" stroke-linecap="round" stroke-linejoin="round" stroke-width="1.36088"/>
<path d="M129.077 59.3885C128.179 58.9393 128.928 59.2355 129.288 60.0199C129.918 61.3938 130.61 62.7621 130.972 64.2296C131.738 67.3434 132.278 70.5168 132.656 73.7013C133.609 81.753 132.575 89.6349 133.918 97.6964" fill="none" opacity="1" stroke="#c8c8c8" stroke-linecap="round" stroke-linejoin="round" stroke-width="1.36088"/>
<path d="M124.868 82.5416C124.868 85.7883 126.982 89.8143 128.025 92.6448C128.831 94.8333 129.757 96.9766 130.551 99.1698C131.109 100.714 130.938 102.792 132.235 103.8C134.02 105.189 134.858 101.751 135.181 101.064C135.825 99.6967 136.101 98.1583 136.865 96.8545C138.499 94.0675 140.415 91.452 142.338 88.8561C143.226 87.6575 144.302 86.6109 145.285 85.4884" fill="none" opacity="1" stroke="#c8c8c8" stroke-linecap="round" stroke-linejoin="round" stroke-width="1.36088"/>
<path d="M152.231 70.7546C152.231 66.2887 153.434 78.0008 152.651 79.1739C152.564 79.3044 152.453 78.9093 152.441 78.7529C152.382 77.9834 152.441 77.2094 152.441 76.4376C152.441 75.1747 152.348 73.9084 152.441 72.6489C152.629 70.1145 152.807 67.568 153.283 65.0715C153.378 64.5745 153.645 63.9686 154.125 63.8086C156.993 62.8525 159.778 66.5004 161.071 68.4392" fill="none" opacity="1" stroke="#c8c8c8" stroke-linecap="round" stroke-linejoin="round" stroke-width="1.36088"/>
<path d="M164.018 68.4392C163.224 67.6454 161.57 74.9906 164.649 74.7537C166.656 74.5994 167.234 73.1087 168.017 71.386C168.284 70.7971 168.247 70.1099 168.438 69.4917C168.53 69.1918 168.927 68.3434 168.859 68.6497C168.59 69.8565 166.292 76.4478 168.859 75.8062" fill="none" opacity="1" stroke="#c8c8c8" stroke-linecap="round" stroke-linejoin="round" stroke-width="1.36088"/>
<path d="M173.7 69.7021C174.135 71.0088 172.761 73.2406 173.489 74.3328C173.599 74.4979 173.831 74.0936 173.91 73.9118C174.328 72.9562 174.593 71.9403 174.963 70.965C175.531 69.4663 175.626 67.5711 176.857 66.5449C177.368 66.1188 177.523 67.7746 177.488 68.4392C177.391 70.2836 177.278 72.0591 177.278 73.9118" fill="none" opacity="1" stroke="#c8c8c8" stroke-linecap="round" stroke-linejoin="round" stroke-width="1.36088"/>
<path d="M173.7 69.7021C174.135 71.0088 172.761 73.2406 173.489 74.3328C173.599 74.4979 173.831 74.0936 173.91 73.9118C174.328 72.9562 174.593 71.9403 174.963 70.965C175.531 69.4663 175.626 67.5711 176.857 66.5449C177.368 66.1188 177.523 67.7746 177.488 68.4392C177.391 70.2836 177.278 72.0591 177.278 73.9118" fill="none" opacity="1" stroke="#c8c8c8" stroke-linecap="round" stroke-linejoin="round" stroke-width="1.36088"/>
<path d="M184.645 58.3361C184.575 58.0554 184.693 57.6235 184.434 57.4941C183.17 56.8618 183.382 60.3724 183.382 61.7038C183.382 65.4969 183.592 69.2876 183.592 73.0699" fill="none" opacity="1" stroke="#c8c8c8" stroke-linecap="round" stroke-linejoin="round" stroke-width="1.36088"/>
<path d="M180.856 65.4925C182.423 64.7088 189.023 64.778 189.696 66.9659C190.469 69.4752 188.466 72.5487 188.013 74.9642C187.883 75.6573 187.861 76.3664 187.802 77.0691C187.79 77.2089 187.703 77.5892 187.802 77.49C188.024 77.2682 188.083 76.9287 188.223 76.6481" fill="none" opacity="1" stroke="#c8c8c8" stroke-linecap="round" stroke-linejoin="round" stroke-width="1.36088"/>
<path d="M189.907 59.599C188.936 59.9226 189.058 59.7659 190.328 60.0199" fill="none" opacity="1" stroke="#c8c8c8" stroke-linecap="round" stroke-linejoin="round" stroke-width="1.36088"/>
<path d="M193.275 68.6497C192.882 69.435 192.105 71.1559 192.643 72.0175C193.435 73.284 197.514 67.2455 197.905 66.9659C198.033 66.8747 198.309 67.0204 198.326 67.1764C198.411 67.935 196.943 71.7219 198.958 71.386C202.2 70.8456 202.932 67.0066 205.483 65.9135C205.749 65.7995 205.693 66.4661 205.693 66.7554C205.693 67.321 205.539 67.8764 205.483 68.4392C205.367 69.6007 205.64 71.1305 207.377 70.965C211.23 70.5981 214.503 65.2412 215.375 62.1248C215.509 61.647 215.66 60.6867 215.165 60.6514C212.606 60.4686 209.941 64.9183 209.271 66.1239C208.7 67.152 207.996 68.337 208.219 69.4917C208.467 70.773 209.375 72.0493 210.534 72.6489C211.656 73.2291 213.06 72.6489 214.323 72.6489" fill="none" opacity="1" stroke="#c8c8c8" stroke-linecap="round" stroke-linejoin="round" stroke-width="1.36088"/>
<g opacity="1">
<path d="M86.353 177.125C85.9639 177.125 85.4045 177.794 85.2305 177.445C84.9243 176.833 88.1384 172.367 88.5981 171.993C90.1643 170.721 94.2657 169.807 95.8144 169.267C100.442 167.653 104.329 168.198 109.125 168.305C113.293 168.397 116.231 168.097 117.624 172.474C119.306 177.762 113.002 182.389 108.483 183.058C102.502 183.944 96.9903 178.852 92.1261 176.323C90.3768 175.413 89.852 175.755 88.4377 173.597C86.4367 170.543 88.4617 167.242 90.6828 165.098C94.5816 161.333 102.081 161.227 107.04 162.532C107.99 162.782 109.089 162.942 109.766 163.654C111.935 165.937 107.842 169.511 106.078 169.908C101.974 170.832 94.1939 170.538 91.8054 166.06C91.4021 165.304 91.6094 164.273 91.9657 163.494C92.6431 162.012 93.7219 160.547 95.173 159.806C97.3876 158.675 99.4689 157.081 101.908 156.598C104.74 156.038 107.708 156.366 110.568 156.759C115.693 157.462 118.36 158.903 122.755 160.768C124.344 161.442 132.508 164.689 132.377 167.182C132.011 174.142 126.036 178.079 119.388 178.247C117.376 178.298 115.425 177.537 113.454 177.125C111.894 176.798 108.364 176.581 109.445 174.078C113.329 165.084 122.112 160.737 131.736 163.334C133.013 163.678 134.395 164.756 134.622 166.06C135.323 170.09 133.383 173.32 130.132 175.842C124.132 180.497 117.893 181.983 110.407 181.775C108.238 181.715 101.442 181.175 101.908 177.445C102.049 176.322 102.423 175.194 103.031 174.238C104.69 171.632 106.165 168.706 108.643 166.862C110.963 165.136 113.933 164.076 116.822 163.975C120.27 163.854 123.646 165.149 126.925 166.22C129.084 166.925 131.052 168.13 133.019 169.267C136.587 171.33 142.476 175.08 140.075 180.172C139.208 182.009 138.051 183.777 136.547 185.143C135.093 186.462 133.365 187.81 131.415 188.029C128.357 188.373 125.202 187.692 122.274 186.747C117.359 185.159 112.116 179.581 108.804 176.323C107.483 175.023 105.219 173.446 105.757 171.672C106.153 170.365 106.967 169.194 107.842 168.144C109.124 166.605 110.423 164.954 112.171 163.975C119.142 160.072 128.623 160.346 136.226 161.57C138.249 161.895 140.449 162.046 142.159 163.173C143.063 163.769 143.07 165.159 143.282 166.22C145.013 174.874 136.334 180.27 128.849 181.134C122.199 181.901 114.229 177.96 108.804 175.521C106.947 174.687 105.125 173.715 103.512 172.474C102.981 172.066 102.207 171.286 102.55 170.71C103.594 168.955 105.351 167.69 107.04 166.541C109.827 164.644 112.851 162.742 116.18 162.211C120.495 161.522 124.819 160.856 129.17 160.447C134.501 159.946 139.859 159.769 145.206 159.485C145.9 159.448 146.598 159.436 147.291 159.485C149.647 159.65 152.296 158.955 154.347 160.126C155.28 160.659 154.436 162.341 154.026 163.334C153.392 164.868 152.34 166.209 151.3 167.503C148.914 170.471 146.084 173.107 142.48 174.559C132.52 178.571 123.735 174.417 115.218 169.267C113.882 168.459 112.617 167.501 111.53 166.38C110.879 165.709 109.979 164.904 110.087 163.975C110.28 162.313 111.07 160.584 112.332 159.485C114.951 157.202 118.08 155.468 121.312 154.193C123.994 153.135 126.941 152.86 129.811 152.589C133.751 152.217 137.733 151.967 141.678 152.269C144.783 152.506 148.018 152.833 150.819 154.193C151.959 154.746 152.426 156.303 152.583 157.561C153.304 163.328 147.021 168.098 142.64 170.069C140.357 171.096 137.923 171.999 135.424 172.154C131.782 172.379 127.957 172.415 124.519 171.191C120.692 169.829 117.208 167.408 114.256 164.616C111.173 161.7 108.737 158.088 106.719 154.353C105.511 152.117 107.588 148.842 109.606 147.297C111.891 145.547 114.352 143.976 116.982 142.807C120.165 141.393 123.491 140.177 126.925 139.6C129.614 139.148 132.44 139.178 135.103 139.76C140.451 140.93 144.918 145.169 148.413 149.382C148.655 149.673 148.661 150.137 148.574 150.505C148.172 152.199 147.966 154.047 146.97 155.476C145.436 157.678 143.307 159.43 141.197 161.088C138.795 162.976 136.291 164.819 133.5 166.06C129.499 167.838 125.343 169.582 120.991 170.069C117.037 170.511 112.95 169.879 109.125 168.786C106.089 167.919 103.435 166.012 100.786 164.296C97.8065 162.366 95.1556 159.971 92.2864 157.881C90.2368 156.389 88.2338 154.809 86.0323 153.551C85.0048 152.964 82.3894 152.679 82.344 152.429C82.012 150.603 84.5181 149.332 86.0323 148.259C87.4986 147.221 88.9486 146.004 90.6828 145.533C95.1934 144.31 99.2821 147.642 99.8235 152.108C100.737 159.646 90.6385 169.032 83.1458 164.616C81.5471 163.674 80.2174 162.14 79.4574 160.447C78.2115 157.672 80.6564 154.709 82.5043 153.231C84.3011 151.793 86.2358 150.371 88.4377 149.703C91.1099 148.892 93.9843 148.872 96.7766 148.901C99.8083 148.932 102.993 149.098 105.757 150.344C107.98 151.347 110.511 151.929 112.332 153.551C113.617 154.697 114.549 156.481 114.577 158.202C114.607 160.098 113.452 161.859 112.492 163.494C111.452 165.265 110.2 166.965 108.643 168.305C104.548 171.83 98.4439 176.157 92.6072 176.644C89.8717 176.872 86.9371 176.796 84.4287 175.682C81.9013 174.558 79.9958 172.311 78.1745 170.229C77.3239 169.257 76.7439 167.981 76.5709 166.701C76.2627 164.421 78.3775 162.295 80.0989 160.768C82.3303 158.788 84.4658 156.358 87.3152 155.476C90.7889 154.4 94.623 154.62 98.2199 155.155C101.215 155.601 104.088 156.864 106.719 158.362C109.581 159.992 111.548 164.581 111.049 167.824C110.655 170.387 107.435 173.769 105.757 174.88C103.661 176.266 101.312 177.372 98.8613 177.927C92.6594 179.329 87.9777 176.739 83.3061 172.795C81.3656 171.157 79.8146 169.086 78.3349 167.022C77.7622 166.223 77.0508 165.265 77.2123 164.296C77.6483 161.68 81.7775 159.401 83.6269 158.683C86.6386 157.514 89.7261 156.388 92.9279 155.957C97.3261 155.364 101.802 155.751 106.238 155.636C112.118 155.484 117.999 155.346 123.878 155.155C127.888 155.025 131.899 154.894 135.905 154.674C139.704 154.466 143.487 153.941 147.291 153.872C149.381 153.834 151.506 153.892 153.545 154.353C156.076 154.926 156.975 157.705 158.196 159.485C159.74 161.737 161.915 163.932 160.922 167.022C158.316 175.128 151.183 181.125 142.32 180.653C138.185 180.432 135.668 178.605 133.981 174.88C131.877 170.235 135.467 166.366 139.754 164.937C142.389 164.059 145.155 163.274 147.932 163.334C150.318 163.384 152.617 164.36 154.828 165.258C157.792 166.462 158.847 167.462 158.997 170.55C159.299 176.732 156.663 178.654 151.3 180.973C150.943 181.128 150.566 181.269 150.177 181.294C148.096 181.43 145.949 181.948 143.923 181.455C141.647 180.9 139.271 179.957 137.669 178.247C135.887 176.346 134.792 173.751 134.301 171.191C134.001 169.625 134.92 168.054 135.424 166.541C135.569 166.105 135.883 165.725 136.226 165.418C138.405 163.471 140.377 161.171 142.961 159.806C147.043 157.648 151.471 156.115 155.95 154.995C158.81 154.28 161.829 154.162 164.77 154.353C166.038 154.436 167.457 154.845 168.298 155.797C168.902 156.478 168.622 157.627 168.459 158.523C168.187 160.019 167.676 161.482 167.015 162.852C165.627 165.733 163.321 168.871 160.922 171.031C157.714 173.918 154.443 176.423 149.857 176.644C147.469 176.759 144.995 176.31 142.801 175.361C140.916 174.546 139.302 173.092 137.99 171.512C136.103 169.242 134.36 166.745 133.339 163.975C132.445 161.549 131.87 158.813 132.377 156.278C132.644 154.941 134.364 154.408 135.424 153.551C135.759 153.281 136.145 153.068 136.547 152.91C139.144 151.89 141.684 150.646 144.404 150.023C148.03 149.194 151.779 149.047 155.469 148.58C158.233 148.23 166.049 146.294 166.534 150.825C166.78 153.118 164.409 156.722 163.167 157.881C161.095 159.815 158.622 161.27 156.271 162.852C153.625 164.633 150.134 164.697 146.97 165.098C133.316 166.824 120.814 158.075 119.227 144.25C118.881 141.232 122.34 140.987 124.199 140.562C126.58 140.018 128.975 139.41 131.415 139.279C140.365 138.8 149.411 140.291 157.233 144.892C158.874 145.857 160.285 147.173 161.724 148.42C161.904 148.576 162.024 148.823 162.044 149.061C162.575 155.16 156.727 156.626 151.781 158.202C149.372 158.97 146.916 159.678 144.404 159.966C140.365 160.429 136.264 160.831 132.217 160.447C125.585 159.818 119.532 156.101 113.775 152.75C112.451 151.979 110.849 151.588 109.766 150.505C109.386 150.125 110.841 150.442 111.37 150.344C112.875 150.067 114.356 149.668 115.86 149.382C118.847 148.813 121.842 148.287 124.84 147.778C128.15 147.217 131.447 146.552 134.783 146.175C137.122 145.91 139.49 146.027 141.839 145.854C143.128 145.759 144.405 145.542 145.687 145.373C146.69 145.241 149.354 144.481 150.177 145.854C150.874 147.015 151.314 148.603 150.819 149.863C150.028 151.876 148.328 153.471 146.649 154.834C139.144 160.932 127.928 160.14 118.907 160.447C116.877 160.516 114.831 160.678 112.813 160.447C108.748 159.982 105.113 157.246 102.069 154.514C101.782 154.256 101.523 153.925 101.427 153.551C101.089 152.241 100.43 150.848 100.786 149.542C101.598 146.562 107.488 144.457 109.445 143.609C112.46 142.303 115.472 140.968 118.586 139.921C125.61 137.558 135.785 134.628 138.792 144.25C140.702 150.363 134.263 155.84 129.811 158.523C123.92 162.073 118.574 164.156 112.653 159.806C111.25 158.775 109.928 157.606 108.804 156.278C107.103 154.268 104.297 151.351 105.597 149.061C107.986 144.851 113.077 143.402 117.303 142.166C124.818 139.968 133.789 139.501 141.518 140.562C144.023 140.906 146.592 141.283 148.894 142.326C150.134 142.888 151.245 143.962 151.781 145.213C152.145 146.061 151.538 147.047 151.3 147.939C151.076 148.78 149.95 150.459 150.819 150.505C153.382 150.639 155.963 150.085 158.516 150.344C161.995 150.698 165.104 151.864 168.619 150.825C170.549 150.255 172.48 149.689 174.392 149.061C174.784 148.933 179.03 146.627 179.524 147.778C180.214 149.388 177.815 150.844 176.798 152.269C175.696 153.811 174.154 155.016 173.109 156.598C171.188 159.509 170.531 163.648 167.817 166.06C167.565 166.284 167.947 165.377 168.138 165.098C169.345 163.333 170.429 161.43 171.987 159.966C173.156 158.867 174.573 157.824 176.156 157.561C177.373 157.358 178.668 157.982 179.684 158.683C181.661 160.046 181.682 165.69 181.127 167.503C179.176 173.877 172.954 177.282 167.657 180.332C162.645 183.217 158.127 183.461 152.422 182.417C150.277 182.024 147.683 182.062 146.168 180.492C144.927 179.207 143.244 178.053 142.801 176.323C142.575 175.441 143.743 174.631 144.565 174.238C146.307 173.405 148.276 173.139 150.177 172.795C158.333 171.321 166.937 170.456 175.194 169.748C176.757 169.614 180.323 169.021 181.288 171.352C182.048 173.188 180.563 176.009 179.524 177.285C178.331 178.751 177.043 180.183 175.515 181.294C172.018 183.837 165.518 187.388 160.922 187.388C158.674 187.388 156.269 187.912 154.186 187.067C152.08 186.213 150.706 184.139 149.055 182.577C148.721 182.261 148.385 181.895 148.253 181.455C147.575 179.194 146.516 176.915 146.649 174.559C146.846 171.09 148.13 167.757 149.215 164.456C149.429 163.806 149.91 163.203 150.498 162.852C153.003 161.358 155.532 159.732 158.356 159.004C162.472 157.943 166.785 157.859 171.025 157.561C174.384 157.324 177.765 157.2 181.127 157.4C182.293 157.47 183.59 157.625 184.495 158.362C187.485 160.799 183.666 166.185 182.41 168.305C179.869 172.593 177.168 175.099 173.109 177.766C172.769 177.99 172.391 178.197 171.987 178.247C170.233 178.467 168.363 179.151 166.695 178.568C164.756 177.891 162.74 176.586 161.884 174.719C160.813 172.382 160.531 169.44 161.403 167.022C162.327 164.458 164.631 162.504 166.855 160.928C168.607 159.687 170.896 159.472 172.949 158.843C173.52 158.668 174.116 158.559 174.713 158.523C177.649 158.345 180.592 158.144 183.533 158.202C188.534 158.301 192.952 158.023 195.239 162.852C196.445 165.399 192.282 169.095 190.91 170.069C187.837 172.247 182.168 174.499 178.562 175.04C176.605 175.334 174.513 175.481 172.628 174.88C171.752 174.6 171.079 173.553 171.025 172.635C170.906 170.625 171.295 168.525 172.147 166.701C173.266 164.309 174.572 161.708 176.798 160.287C179.3 158.689 182.506 158.523 185.457 158.202C187.483 157.982 189.557 158.262 191.551 158.683C193.387 159.071 195.333 159.493 196.843 160.607C197.747 161.275 198.402 162.536 198.286 163.654C198.056 165.876 197.089 168.03 195.881 169.908C191.418 176.85 183.334 178.324 175.835 179.53C173.871 179.846 171.85 180.575 169.902 180.172C168.52 179.886 166.926 178.962 166.534 177.606C165.994 175.731 166.517 173.52 167.497 171.833C168.562 169.998 170.628 168.96 172.307 167.663C173.681 166.603 175.194 165.739 176.637 164.777" fill="none" opacity="1" stroke="#d3e07a" stroke-linecap="round" stroke-linejoin="round" stroke-width="1.36088"/>
<path d="M113.935 141.685C113.935 141.685 112.492 134.612 112.492 133.827C112.492 126.877 120.465 119.073 121.793 119.073" fill="none" opacity="1" stroke="#d3e07a" stroke-linecap="round" stroke-linejoin="round" stroke-width="4.77982"/>
<path d="M186.419 157.4C187.553 157.778 190.103 153.529 191.872 151.787C194.137 149.558 196.578 147.513 198.928 145.373C201.179 143.323 203.477 141.378 205.823 139.44C206.523 138.862 206.84 137.515 207.748 137.515C207.917 137.515 207.468 137.877 207.587 137.996C207.831 138.24 209.064 136.841 209.512 136.713C211.582 136.122 213.036 136.537 215.124 136.874C216.115 137.033 221.277 137.384 221.218 137.355" fill="none" opacity="1" stroke="#d3e07a" stroke-linecap="round" stroke-linejoin="round" stroke-width="4.77982"/>
<path d="M76.0898 159.325C77.1499 162.505 75.0087 156.576 74.8069 156.117C74.315 154.999 73.8714 153.86 73.3636 152.75C72.3265 150.481 70.8259 145.863 68.232 145.052C63.9251 143.706 55.3171 145.788 51.0732 146.495C49.4489 146.766 47.8472 147.171 46.2623 147.618C45.8476 147.735 44.7088 148.259 45.1398 148.259" fill="none" opacity="1" stroke="#d3e07a" stroke-linecap="round" stroke-linejoin="round" stroke-width="4.77982"/>
<g opacity="1">
<path d="M121.633 113.3C119.197 108.916 129.19 107.478 129.491 113.781C129.543 114.891 129.102 116.52 128.689 117.47C128.128 118.759 127.466 119.631 126.123 120.196C122.276 121.816 117.789 111.66 123.397 110.414" fill="#c8c8c8" fill-rule="nonzero" stroke="none"/>
<path d="M125.188 107.594C123.743 107.575 122.169 108.011 121.062 108.969C120.382 109.557 119.64 110.725 119.812 111.688C119.826 111.76 119.914 111.803 119.938 111.875C119.872 112.043 119.765 112.213 119.719 112.375C118.552 116.495 122.493 123.705 127.375 121C128.785 120.219 129.627 118.878 130.25 117.438C131.638 114.227 131.669 110.408 128.219 108.438C127.305 107.916 126.24 107.608 125.188 107.594ZM125.375 111.469C126.074 111.591 126.734 111.87 127.156 112.344C128.437 113.78 127.772 116.899 126.719 118.219C126.407 118.61 126.033 118.832 125.594 119.062C124.687 119.537 123.513 117.986 123.156 117.438C122.373 116.236 121.692 114.479 122.094 113.031C122.166 112.77 122.327 112.58 122.469 112.375C122.508 112.314 122.776 111.886 122.719 111.969C122.726 111.957 122.743 111.95 122.75 111.938C122.974 111.811 123.21 111.653 123.375 111.594C123.948 111.389 124.676 111.346 125.375 111.469Z" fill="#c8c8c8" stroke="none"/>
</g>
<path d="M143.442 139.279C143.442 137.814 143.885 135.927 144.084 134.468C144.44 131.854 144.966 129.657 146.008 126.61C147.05 123.564 148.253 122.281 148.253 122.281" fill="none" opacity="1" stroke="#d3e07a" stroke-linecap="round" stroke-linejoin="round" stroke-width="4.77982"/>
<path d="M124.717 117.406L125.432 118.7" fill="#31322d" fill-rule="nonzero" opacity="1" stroke="none"/>
<g opacity="1">
<path d="M125.296 113.73C127.679 113.73 127.969 116.11 127.985 117.066C128 118.022 127.441 120.42 125.466 120.605C123.492 120.791 122.605 120.074 122.505 118.087C122.437 116.725 123.867 113.73 125.296 113.73Z" fill="#31322d" fill-rule="nonzero" opacity="1" stroke="none"/>
<path d="M125.971 117.641C126.562 117.717 126.619 118.002 126.619 118.955C126.619 119.908 126.213 119.659 125.661 119.999C125.109 120.34 124.702 119.527 124.676 119.051C124.65 118.574 125.427 117.571 125.971 117.641Z" fill="#ffffff" fill-rule="nonzero" opacity="1" stroke="none"/>
</g>
<g opacity="1">
<g opacity="1">
<path d="M150.249 116.209C149.755 114.396 150.55 111.553 153.136 112.361C156.691 113.472 159.36 121.469 154.098 122.784C153.21 123.006 152.285 123.166 151.372 123.105C150.646 123.057 149.887 122.874 149.287 122.463C146.003 120.217 146.26 113.108 150.57 112.2C152.274 111.841 153.809 113.493 155.381 113.964" fill="#c8c8c8" fill-rule="nonzero" stroke="none"/>
<path d="M151.688 111.062C151.038 110.957 150.34 111 149.656 111.25C144.798 113.027 144.712 121.891 149.594 123.656C150.786 124.087 152.119 124.044 153.344 123.812C154.14 123.662 154.981 123.476 155.688 123.062C158.371 121.491 158.283 117.976 157.219 115.438C156.425 113.544 154.56 111.227 152.281 111.281C152.08 111.219 151.892 111.096 151.688 111.062ZM151.781 113.531C152.278 113.707 152.752 113.945 153.281 114.156C153.342 114.181 153.382 114.21 153.469 114.219C153.608 114.118 153.713 113.986 153.844 113.875C153.943 113.949 154.032 114.041 154.125 114.125C154.024 114.178 153.825 114.29 153.781 114.312C153.969 114.332 154.273 114.297 154.219 114.438C154.074 114.811 154.246 114.693 154.625 114.625C155.248 115.385 155.7 116.334 155.938 117.156C156.426 118.85 156.291 121.071 154.406 121.812C153.73 122.078 152.94 122.215 152.219 122.25C151.638 122.278 151.08 122.219 150.531 122.031C147.879 121.126 147.341 116.267 149.25 114.219C149.258 114.574 149.35 114.93 149.469 115.25C149.538 115.438 149.489 115.839 149.688 115.812C150.767 115.666 149.71 115.79 150 116.25C150.029 116.391 150.171 116.498 150.312 116.469C150.454 116.439 150.529 116.298 150.5 116.156C152.812 115.374 153.344 115.194 152.812 115.375C152.106 115.615 151.338 115.742 150.594 115.688C150.435 115.676 150.686 115.365 150.75 115.219C150.869 114.946 151.072 114.712 151.188 114.438C151.344 114.066 151.516 113.754 151.781 113.531ZM153.781 114.312C153.647 114.299 153.612 114.233 153.469 114.219C153.226 114.394 153.069 114.669 152.812 114.812C152.486 114.995 153.66 114.376 153.781 114.312Z" fill="#c8c8c8" stroke="none"/>
</g>
<g opacity="1">
<path d="M152.941 116.019C155.324 116.019 155.614 118.398 155.63 119.354C155.645 120.31 155.086 122.709 153.111 122.894C151.137 123.079 150.25 122.363 150.15 120.375C150.082 119.014 151.512 116.019 152.941 116.019Z" fill="#31322d" fill-rule="nonzero" opacity="1" stroke="none"/>
<path d="M153.617 119.929C154.207 120.005 154.264 120.291 154.264 121.244C154.264 122.197 153.858 121.947 153.306 122.288C152.754 122.628 152.347 121.815 152.321 121.339C152.295 120.862 153.072 119.859 153.617 119.929Z" fill="#ffffff" fill-rule="nonzero" opacity="1" stroke="none"/>
</g>
</g>
</g>
<path d="M167.657 90.2347C165.941 89.3764 166.644 85.1091 164.397 85.2589C160.453 85.5219 154.854 95.633 160.623 95.3821C164.299 95.2223 167.877 88.3726 169.202 85.6021C170.02 83.8914 170.574 81.5105 170.574 79.5968C170.574 79.435 170.368 79.1667 170.231 79.2536C166.593 81.5687 165.648 88.5193 165.427 92.1221C165.212 95.6249 167.466 96.3573 170.403 96.5832" fill="none" opacity="1" stroke="#c8c8c8" stroke-linecap="round" stroke-linejoin="round" stroke-width="1.36088"/>
<path d="M172.976 92.98C174.818 92.3662 177.003 90.5567 178.295 89.3768C178.939 88.7894 180.192 87.0614 179.325 86.9747C176.939 86.7361 174.75 89.4022 173.663 91.0926C173.277 91.6934 172.229 94.1608 173.834 94.6958C179.47 96.5743 182.407 90.5848 185.502 87.4894C185.81 87.1815 185.166 88.2933 184.987 88.6905C184.651 89.4373 184.271 90.1644 183.958 90.9211C183.089 93.0195 182.017 96.355 181.384 98.299C181.087 99.2107 180.829 100.135 180.526 101.044C180.377 101.492 179.815 102.712 180.183 102.417C181.128 101.661 182.284 98.3029 182.413 97.9559C183.805 94.2201 184.485 89.1272 187.561 86.2884C188.32 85.5879 191.834 84.8057 192.537 85.4305C194.513 87.1873 190.619 90.6952 189.791 91.2642C187.849 92.5993 184.327 93.0059 182.585 91.2642" fill="none" opacity="1" stroke="#c8c8c8" stroke-linecap="round" stroke-linejoin="round" stroke-width="1.36088"/>
</g>
</svg>
