<?xml version="1.0" encoding="UTF-8" standalone="no"?>
<!DOCTYPE svg PUBLIC "-//W3C//DTD SVG 1.1//EN" "http://www.w3.org/Graphics/SVG/1.1/DTD/svg11.dtd">
<!-- Created with Vectornator (http://vectornator.io/) -->
<svg height="100%" stroke-miterlimit="10" style="fill-rule:nonzero;clip-rule:evenodd;stroke-linecap:round;stroke-linejoin:round;" version="1.1" viewBox="0 0 288 216" width="100%" xml:space="preserve" xmlns="http://www.w3.org/2000/svg" xmlns:vectornator="http://vectornator.io" xmlns:xlink="http://www.w3.org/1999/xlink">
<defs>
<filter color-interpolation-filters="sRGB" filterUnits="userSpaceOnUse" height="237.755" id="Filter" width="307.957" x="-10.1354" y="-1.72807">
<feDropShadow dx="-3.67321e-05" dy="10" flood-color="#000000" flood-opacity="0.333" in="SourceGraphic" result="Shadow" stdDeviation="5"/>
</filter>
<path d="M204.268 154.787L233.79 154.599C233.79 154.599 240.936 87.8446 239.62 80.323C225.479 80.6991 225.479 79.9469 211.978 81.2632C216.867 129.881 204.268 154.787 204.268 154.787Z" id="Fill"/>
<path d="M39.5891 64.6212L180.243 64.6212L180.243 152.966L39.5891 152.966L39.5891 64.6212Z" id="Fill_2"/>
</defs>
<clipPath id="ArtboardFrame">
<rect height="216" width="288" x="0" y="0"/>
</clipPath>
<g clip-path="url(#ArtboardFrame)" id="backgtound" vectornator:layerName="backgtound" visibility="hidden">
<path d="M-0.135383-1.72807L287.822-1.72807L287.822 216.027L-0.135383 216.027L-0.135383-1.72807Z" fill="#750787" fill-rule="nonzero" filter="url(#Filter)" stroke="none" vectornator:shadowAngle="1.5708" vectornator:shadowColor="#000000" vectornator:shadowOffset="10" vectornator:shadowOpacity="0.333" vectornator:shadowRadius="10"/>
</g>
<g id="Layer-1" vectornator:layerName="Layer 1">
<g opacity="1">
<use fill="#363f42" fill-rule="nonzero" opacity="1" stroke="none" xlink:href="#Fill"/>
<clipPath id="ClipPath">
<use xlink:href="#Fill"/>
</clipPath>
<g clip-path="url(#ClipPath)">
<path d="M193.926 114.17L258.424 114.17L258.424 129.881L193.926 129.881L193.926 114.17Z" fill="#aa2416" fill-rule="nonzero" opacity="1" stroke="none"/>
<path d="M200.319 87.4685L260.116 87.4685L260.116 103.076L200.319 103.076L200.319 87.4685Z" fill="#aa2416" fill-rule="nonzero" opacity="1" stroke="none"/>
</g>
</g>
<g opacity="1">
<use fill="#2a4a0d" fill-rule="nonzero" opacity="1" stroke="none" xlink:href="#Fill_2"/>
<clipPath id="ClipPath_2">
<use xlink:href="#Fill_2"/>
</clipPath>
<g clip-path="url(#ClipPath_2)">
<path d="M53.504 61.1567L62.1538 61.1567L62.1538 156.926L53.504 156.926L53.504 61.1567Z" fill="#1f3709" fill-rule="nonzero" opacity="1" stroke="none"/>
<path d="M73.2482 61.1567L81.898 61.1567L81.898 156.926L73.2482 156.926L73.2482 61.1567Z" fill="#1f3709" fill-rule="nonzero" opacity="1" stroke="none"/>
<path d="M94.6847 61.1567L103.335 61.1567L103.335 156.926L94.6847 156.926L94.6847 61.1567Z" fill="#1f3709" fill-rule="nonzero" opacity="1" stroke="none"/>
<path d="M118.942 61.1567L127.592 61.1567L127.592 156.926L118.942 156.926L118.942 61.1567Z" fill="#1f3709" fill-rule="nonzero" opacity="1" stroke="none"/>
<path d="M139.965 61.1567L148.615 61.1567L148.615 156.926L139.965 156.926L139.965 61.1567Z" fill="#1f3709" fill-rule="nonzero" opacity="1" stroke="none"/>
<path d="M161.589 61.1567L170.239 61.1567L170.239 156.926L161.589 156.926L161.589 61.1567Z" fill="#1f3709" fill-rule="nonzero" opacity="1" stroke="none"/>
</g>
</g>
<g opacity="1">
<path d="M101.341 68.5626L170.255 68.5626L170.255 88.4145L101.341 88.4145L101.341 68.5626Z" fill="#ffffff" fill-opacity="0.454955" fill-rule="nonzero" opacity="1" stroke="#ffffff" stroke-dasharray="5.0" stroke-linecap="round" stroke-linejoin="round" stroke-width="1.36088"/>
<g opacity="1">
<path d="M105.168 79.4812C104.882 80.4838 104.711 81.4034 104.899 82.4398C104.928 82.5982 104.945 82.9774 105.078 82.8881C105.49 82.6137 105.474 81.9801 105.706 81.5433C106.446 80.1499 106.637 79.6575 107.678 78.6743C107.941 78.4264 108.646 77.8654 108.665 78.226C108.73 79.4734 108.456 79.8447 108.127 80.9157C107.984 81.3807 107.371 82.3502 107.858 82.3502C108.39 82.3502 108.558 81.5439 108.844 81.095C109.24 80.4723 109.59 79.8199 110.01 79.2122C110.225 78.8991 110.742 78.0323 110.816 78.4053C111.034 79.4925 110.261 81.4142 111.803 81.7226" fill="none" opacity="1" stroke="#c8c8c8" stroke-linecap="round" stroke-linejoin="round" stroke-width="1.36088"/>
<path d="M114.134 79.0329C114.134 78.9713 114.064 77.9638 114.313 78.0467C114.543 78.1235 114.238 81.2051 114.403 81.6329C114.46 81.7831 114.705 81.8803 114.851 81.8122C115.617 81.4549 116.39 80.1874 116.823 79.5709C117.119 79.1504 117.441 78.7474 117.72 78.3157C117.771 78.2363 117.888 77.9943 117.81 78.0467C116.203 79.1179 115.368 84.5099 115.03 86.1157" fill="none" opacity="1" stroke="#c8c8c8" stroke-linecap="round" stroke-linejoin="round" stroke-width="1.36088"/>
<path d="M120.948 79.6605C122.745 78.582 121.698 76.9194 119.782 79.1226C119.499 79.4478 119.227 79.7993 119.065 80.1984C118.892 80.6218 118.721 81.0923 118.796 81.5433C118.906 82.2024 120.222 81.5692 120.768 81.1847C121.367 80.763 122.506 79.084 122.83 78.5846C122.882 78.5054 123.014 78.3157 122.92 78.3157C122.206 78.3157 120.332 83.1959 122.203 82.2605" fill="none" opacity="1" stroke="#c8c8c8" stroke-linecap="round" stroke-linejoin="round" stroke-width="1.36088"/>
<path d="M124.579 80.2881C124.308 79.6305 123.81 83.3287 123.637 84.0536C123.58 84.2934 123.366 84.9997 123.458 84.7709C124.195 82.9272 124.386 80.8636 125.61 79.2122C125.968 78.729 126.879 77.9126 127.223 78.4053C127.766 79.18 126.042 83.8499 124.579 80.2881Z" fill="none" opacity="1" stroke="#c8c8c8" stroke-linecap="round" stroke-linejoin="round" stroke-width="1.36088"/>
<path d="M129.285 78.7191C128.489 78.3064 128.981 80.136 128.927 80.826C128.848 81.8204 128.578 82.7922 128.479 83.7847C128.458 83.9928 128.479 84.4123 128.479 84.4123C128.479 84.4123 128.469 83.6824 128.568 83.3364C128.755 82.6811 128.919 82.0192 129.106 81.364C129.378 80.4129 130.293 76.6966 131.527 76.7915C132.836 76.8922 132.786 82.091 130.361 79.8398C129.982 79.4875 129.745 78.9575 129.285 78.7191Z" fill="none" opacity="1" stroke="#c8c8c8" stroke-linecap="round" stroke-linejoin="round" stroke-width="1.36088"/>
<path d="M135.472 79.2122C135.986 78.9553 137.146 79.0897 137.713 79.0329" fill="none" opacity="1" stroke="#c8c8c8" stroke-linecap="round" stroke-linejoin="round" stroke-width="1.36088"/>
<path d="M145.289 74.1019C145.231 73.705 145.994 73.1839 145.244 73.1156C145.006 73.094 144.729 72.9873 144.527 73.1156C143.299 73.897 141.032 78.3907 142.824 79.4812C144.913 80.7534 146.774 77.8986 146.948 76.1639C146.987 75.7672 146.93 75.3083 146.679 74.9984C146.332 74.57 145.369 74.6473 145.289 74.1019Z" fill="none" opacity="1" stroke="#c8c8c8" stroke-linecap="round" stroke-linejoin="round" stroke-width="1.36088"/>
<path d="M148.83 79.9295L148.651 79.8398L148.561 79.6605L148.651 79.3019L148.83 79.0329L149.01 78.9433L149.01 78.9433" fill="none" opacity="1" stroke="#c8c8c8" stroke-linecap="round" stroke-linejoin="round" stroke-width="1.36088"/>
<path d="M154.21 75.9846C154.014 75.3979 154.344 74.0244 153.761 73.6536C153.013 73.1775 152.31 74.5843 152.148 75.0881C151.664 76.5942 150.521 79.3636 152.417 80.5571C153.349 81.1443 154.33 80.3762 154.748 79.6605C155.829 77.8062 156.541 75.4112 155.106 73.4743C154.907 73.2058 154.449 73.3547 154.12 73.295" fill="none" opacity="1" stroke="#c8c8c8" stroke-linecap="round" stroke-linejoin="round" stroke-width="1.36088"/>
<path d="M157.437 79.1226C157.787 79.239 157.64 79.2791 157.886 79.0329" fill="none" opacity="1" stroke="#c8c8c8" stroke-linecap="round" stroke-linejoin="round" stroke-width="1.36088"/>
<path d="M162.906 73.5191C162.888 73.6129 163.086 73.8389 163.086 73.7432C163.086 73.5257 163.124 73.1292 162.906 73.1156C162.055 73.0624 161.3 73.9219 160.934 74.5501C160.068 76.0352 159.386 78.5857 160.755 80.0191C161.546 80.8479 162.804 79.9165 163.265 79.3915C164.007 78.5476 164.789 77.2046 164.789 75.9846C164.789 74.9472 164.005 73.4015 163.265 72.8467C163.062 72.6943 162.956 73.27 162.906 73.5191Z" fill="none" opacity="1" stroke="#c8c8c8" stroke-linecap="round" stroke-linejoin="round" stroke-width="1.36088"/>
</g>
</g>
<g opacity="1">
<path d="M44.2778 91.8631L173.471 91.8631L173.471 151.995L44.2778 151.995L44.2778 91.8631Z" fill="#ffffff" fill-opacity="0.454955" fill-rule="nonzero" opacity="1" stroke="#ffffff" stroke-dasharray="5.0" stroke-linecap="round" stroke-linejoin="round" stroke-width="1.36088"/>
<g opacity="1">
<path d="M75.4664 142.063C75.2054 142.063 74.8302 142.511 74.7135 142.278C74.5082 141.867 76.6638 138.872 76.9721 138.621C78.0225 137.768 80.7731 137.155 81.8118 136.793C84.9153 135.71 87.5223 136.076 90.7384 136.148C93.534 136.21 95.5044 136.008 96.4385 138.944C97.5669 142.49 93.339 145.593 90.3082 146.042C86.2967 146.636 82.6004 143.221 79.3382 141.525C78.1649 140.915 77.813 141.144 76.8645 139.697C75.5225 137.648 76.8806 135.435 78.3702 133.997C80.985 131.472 86.0148 131.401 89.3402 132.276C89.9776 132.444 90.7146 132.551 91.1686 133.029C92.6231 134.56 89.8783 136.957 88.695 137.223C85.9427 137.842 80.725 137.646 79.1231 134.642C78.8526 134.135 78.9917 133.444 79.2306 132.921C79.6849 131.927 80.4084 130.944 81.3816 130.447C82.8668 129.689 84.2627 128.62 85.8987 128.296C87.798 127.921 89.7881 128.141 91.7063 128.404C95.1439 128.876 96.9324 129.842 99.8801 131.093C100.946 131.545 106.421 133.722 106.333 135.395C106.087 140.063 102.08 142.703 97.6216 142.816C96.272 142.85 94.9636 142.339 93.6422 142.063C92.5957 141.844 90.2284 141.698 90.9535 140.019C93.5583 133.987 99.4489 131.072 105.903 132.814C106.76 133.045 107.687 133.767 107.839 134.642C108.309 137.345 107.007 139.511 104.827 141.202C100.803 144.324 96.6189 145.321 91.5988 145.182C90.1436 145.141 85.586 144.779 85.8987 142.278C85.9929 141.524 86.2437 140.768 86.6515 140.127C87.764 138.379 88.7534 136.417 90.4157 135.18C91.9712 134.022 93.9631 133.312 95.9008 133.244C98.213 133.163 100.477 134.031 102.676 134.749C104.124 135.222 105.445 136.031 106.763 136.793C109.156 138.176 113.106 140.692 111.495 144.106C110.914 145.339 110.139 146.524 109.129 147.44C108.155 148.325 106.996 149.229 105.688 149.376C103.637 149.607 101.521 149.15 99.5574 148.516C96.2611 147.451 92.7445 143.71 90.5233 141.525C89.6372 140.653 88.1194 139.596 88.4799 138.406C88.7455 137.529 89.2915 136.744 89.878 136.04C90.7383 135.008 91.6094 133.9 92.7818 133.244C97.4564 130.626 103.815 130.81 108.914 131.63C110.271 131.849 111.746 131.95 112.894 132.706C113.5 133.105 113.504 134.038 113.646 134.749C114.807 140.553 108.987 144.172 103.967 144.752C99.5069 145.266 94.1621 142.623 90.5233 140.987C89.2782 140.428 88.0562 139.776 86.9742 138.944C86.6181 138.67 86.0993 138.147 86.3289 137.761C87.0289 136.583 88.2078 135.735 89.3402 134.965C91.2095 133.692 93.2377 132.417 95.4706 132.061C98.3644 131.599 101.264 131.152 104.182 130.878C107.758 130.542 111.351 130.423 114.937 130.232C115.402 130.208 115.87 130.2 116.335 130.232C117.915 130.343 119.692 129.877 121.067 130.663C121.693 131.02 121.127 132.148 120.852 132.814C120.427 133.843 119.722 134.742 119.024 135.61C117.424 137.6 115.526 139.368 113.109 140.342C106.429 143.032 100.537 140.247 94.8253 136.793C93.9293 136.251 93.0805 135.609 92.3516 134.857C91.9151 134.407 91.3113 133.867 91.3837 133.244C91.5133 132.129 92.0433 130.97 92.8894 130.232C94.6462 128.701 96.7445 127.538 98.9121 126.683C100.711 125.974 102.687 125.79 104.612 125.608C107.254 125.358 109.925 125.191 112.571 125.393C114.653 125.552 116.823 125.771 118.701 126.683C119.466 127.054 119.779 128.098 119.884 128.942C120.368 132.81 116.154 136.009 113.216 137.331C111.685 138.02 110.052 138.625 108.376 138.729C105.934 138.88 103.369 138.904 101.063 138.083C98.4962 137.169 96.1595 135.546 94.18 133.674C92.112 131.718 90.4782 129.295 89.1251 126.791C88.3151 125.291 89.7078 123.095 91.061 122.059C92.5939 120.885 94.2441 119.831 96.0083 119.047C98.1425 118.099 100.373 117.283 102.676 116.896C104.48 116.593 106.375 116.613 108.161 117.004C111.748 117.788 114.743 120.631 117.088 123.457C117.25 123.652 117.254 123.963 117.196 124.21C116.926 125.346 116.788 126.586 116.12 127.544C115.091 129.02 113.664 130.196 112.248 131.308C110.638 132.573 108.958 133.81 107.086 134.642C104.403 135.834 101.615 137.004 98.697 137.331C96.0452 137.627 93.3041 137.203 90.7384 136.47C88.7026 135.889 86.923 134.61 85.1458 133.459C83.1478 132.165 81.3699 130.558 79.4457 129.157C78.0711 128.156 76.7277 127.097 75.2513 126.253C74.5622 125.859 72.8082 125.668 72.7776 125.5C72.555 124.276 74.2358 123.423 75.2513 122.704C76.2347 122.007 77.2071 121.191 78.3702 120.876C81.3953 120.055 84.1375 122.29 84.5005 125.285C85.1133 130.34 78.3405 136.635 73.3154 133.674C72.2432 133.042 71.3515 132.013 70.8417 130.878C70.0062 129.017 71.6458 127.029 72.8852 126.038C74.0902 125.074 75.3878 124.12 76.8645 123.672C78.6567 123.128 80.5844 123.115 82.4571 123.134C84.4903 123.155 86.6263 123.266 88.4799 124.102C89.9707 124.774 91.6683 125.165 92.8894 126.253C93.7514 127.021 94.3765 128.218 94.3951 129.372C94.4156 130.643 93.6409 131.825 92.9969 132.921C92.2994 134.109 91.4596 135.249 90.4157 136.148C87.669 138.512 83.5753 141.414 79.6608 141.74C77.8262 141.893 75.8581 141.843 74.1758 141.095C72.4808 140.342 71.2028 138.834 69.9814 137.438C69.4109 136.786 69.0219 135.931 68.9059 135.072C68.6992 133.543 70.1175 132.117 71.2719 131.093C72.7685 129.765 74.2007 128.136 76.1117 127.544C78.4413 126.822 81.0127 126.97 83.425 127.329C85.4337 127.627 87.3604 128.475 89.1251 129.479C91.0443 130.572 92.3636 133.65 92.029 135.825C91.7645 137.544 89.6052 139.812 88.4799 140.557C87.0744 141.487 85.499 142.229 83.8552 142.601C79.6959 143.541 76.556 141.804 73.4229 139.159C72.1215 138.06 71.0813 136.671 70.0889 135.287C69.7049 134.752 69.2277 134.109 69.3361 133.459C69.6284 131.704 72.3978 130.176 73.638 129.695C75.6579 128.91 77.7285 128.156 79.8759 127.866C82.8256 127.469 85.8271 127.728 88.8025 127.651C92.7461 127.549 96.6901 127.456 100.633 127.329C103.322 127.241 106.012 127.153 108.699 127.006C111.247 126.866 113.784 126.515 116.335 126.468C117.737 126.443 119.162 126.481 120.53 126.791C122.227 127.175 122.83 129.039 123.649 130.232C124.684 131.742 126.143 133.215 125.477 135.287C123.729 140.724 118.945 144.746 113.001 144.429C110.228 144.281 108.54 143.055 107.409 140.557C105.998 137.442 108.406 134.847 111.28 133.889C113.048 133.3 114.903 132.774 116.765 132.814C118.365 132.848 119.907 133.502 121.39 134.104C123.378 134.912 124.085 135.582 124.186 137.653C124.389 141.799 122.621 143.089 119.024 144.644C118.784 144.748 118.531 144.842 118.271 144.859C116.875 144.95 115.435 145.298 114.077 144.967C112.55 144.595 110.957 143.962 109.882 142.816C108.687 141.541 107.953 139.8 107.624 138.083C107.422 137.033 108.038 135.979 108.376 134.965C108.474 134.672 108.684 134.417 108.914 134.212C110.376 132.906 111.698 131.363 113.431 130.447C116.169 129.001 119.139 127.972 122.143 127.221C124.061 126.741 126.085 126.663 128.058 126.791C128.908 126.846 129.86 127.12 130.424 127.759C130.829 128.216 130.641 128.986 130.532 129.587C130.349 130.591 130.007 131.572 129.564 132.491C128.632 134.423 127.086 136.527 125.477 137.976C123.326 139.912 121.132 141.592 118.056 141.74C116.455 141.817 114.795 141.516 113.324 140.88C112.06 140.333 110.978 139.358 110.097 138.299C108.832 136.776 107.663 135.102 106.978 133.244C106.379 131.616 105.993 129.782 106.333 128.081C106.512 127.185 107.665 126.827 108.376 126.253C108.601 126.071 108.86 125.929 109.129 125.823C110.871 125.139 112.575 124.304 114.399 123.887C116.831 123.331 119.345 123.232 121.82 122.919C123.674 122.684 128.915 121.386 129.241 124.425C129.406 125.962 127.816 128.379 126.983 129.157C125.593 130.454 123.934 131.43 122.358 132.491C120.583 133.685 118.242 133.728 116.12 133.997C106.963 135.154 98.578 129.287 97.514 120.015C97.2817 117.991 99.6014 117.826 100.848 117.542C102.445 117.176 104.052 116.769 105.688 116.681C111.69 116.36 117.757 117.359 123.003 120.445C124.104 121.093 125.05 121.975 126.015 122.811C126.136 122.916 126.216 123.082 126.23 123.242C126.585 127.332 122.664 128.315 119.347 129.372C117.731 129.887 116.084 130.362 114.399 130.555C111.69 130.866 108.94 131.135 106.226 130.878C101.778 130.456 97.718 127.963 93.8573 125.715C92.9696 125.198 91.8949 124.936 91.1686 124.21C90.9138 123.955 91.8898 124.167 92.2441 124.102C93.2537 123.916 94.247 123.649 95.2555 123.457C97.2588 123.075 99.2676 122.722 101.278 122.381C103.498 122.005 105.709 121.559 107.946 121.306C109.515 121.128 111.104 121.206 112.678 121.091C113.543 121.027 114.4 120.881 115.26 120.768C115.932 120.68 117.719 120.17 118.271 121.091C118.738 121.869 119.033 122.935 118.701 123.779C118.171 125.129 117.031 126.199 115.905 127.113C110.871 131.203 103.349 130.671 97.2989 130.878C95.9374 130.924 94.5655 131.032 93.212 130.878C90.4859 130.566 88.0483 128.731 86.0062 126.898C85.8138 126.726 85.6406 126.503 85.576 126.253C85.3492 125.374 84.907 124.44 85.1458 123.564C85.6909 121.566 89.6409 120.154 90.9535 119.585C92.9753 118.709 94.9952 117.814 97.0838 117.111C101.795 115.527 108.618 113.562 110.635 120.015C111.916 124.114 107.598 127.788 104.612 129.587C100.661 131.968 97.0761 133.365 93.1045 130.447C92.1639 129.756 91.2772 128.972 90.5233 128.081C89.3829 126.734 87.5009 124.777 88.3723 123.242C89.9749 120.418 93.389 119.446 96.2234 118.617C101.264 117.143 107.28 116.83 112.463 117.542C114.143 117.772 115.866 118.025 117.411 118.725C118.242 119.101 118.987 119.822 119.347 120.66C119.59 121.229 119.183 121.891 119.024 122.489C118.874 123.053 118.118 124.179 118.701 124.21C120.42 124.3 122.151 123.928 123.864 124.102C126.196 124.339 128.282 125.121 130.639 124.425C131.933 124.042 133.229 123.662 134.511 123.242C134.774 123.155 137.622 121.609 137.953 122.381C138.415 123.461 136.807 124.437 136.124 125.393C135.385 126.427 134.351 127.235 133.651 128.296C132.362 130.249 131.921 133.024 130.101 134.642C129.932 134.793 130.189 134.184 130.317 133.997C131.126 132.813 131.853 131.537 132.898 130.555C133.682 129.818 134.633 129.119 135.694 128.942C136.51 128.806 137.379 129.225 138.06 129.695C139.386 130.609 139.4 134.394 139.028 135.61C137.719 139.885 133.546 142.169 129.994 144.214C126.633 146.149 123.603 146.312 119.777 145.612C118.338 145.348 116.598 145.374 115.582 144.321C114.75 143.459 113.621 142.686 113.324 141.525C113.172 140.934 113.956 140.39 114.507 140.127C115.676 139.568 116.996 139.389 118.271 139.159C123.741 138.17 129.511 137.59 135.049 137.116C136.097 137.026 138.489 136.628 139.136 138.191C139.645 139.423 138.649 141.314 137.953 142.17C137.152 143.153 136.289 144.114 135.264 144.859C132.919 146.565 128.559 148.946 125.477 148.946C123.969 148.946 122.357 149.297 120.96 148.731C119.547 148.158 118.626 146.767 117.518 145.719C117.294 145.508 117.069 145.262 116.98 144.967C116.526 143.451 115.816 141.922 115.905 140.342C116.037 138.015 116.898 135.78 117.626 133.566C117.769 133.13 118.092 132.726 118.486 132.491C120.166 131.489 121.862 130.398 123.756 129.91C126.516 129.198 129.409 129.142 132.252 128.942C134.506 128.783 136.773 128.7 139.028 128.834C139.81 128.881 140.68 128.985 141.287 129.479C143.292 131.113 140.731 134.726 139.888 136.148C138.184 139.023 136.372 140.704 133.651 142.493C133.422 142.643 133.169 142.782 132.898 142.816C131.722 142.963 130.468 143.421 129.349 143.031C128.048 142.577 126.696 141.702 126.122 140.45C125.404 138.882 125.215 136.909 125.8 135.287C126.419 133.567 127.964 132.257 129.456 131.2C130.631 130.368 132.166 130.224 133.543 129.802C133.926 129.685 134.326 129.611 134.726 129.587C136.696 129.468 138.669 129.333 140.641 129.372C143.995 129.438 146.958 129.252 148.492 132.491C149.301 134.199 146.509 136.678 145.589 137.331C143.528 138.792 139.726 140.302 137.307 140.665C135.995 140.861 134.592 140.961 133.328 140.557C132.74 140.37 132.289 139.667 132.252 139.051C132.173 137.704 132.434 136.295 133.005 135.072C133.755 133.468 134.631 131.723 136.124 130.77C137.802 129.698 139.952 129.587 141.932 129.372C143.29 129.224 144.682 129.412 146.019 129.695C147.25 129.955 148.555 130.238 149.568 130.985C150.174 131.433 150.613 132.279 150.536 133.029C150.382 134.519 149.733 135.963 148.923 137.223C145.93 141.879 140.508 142.867 135.479 143.676C134.162 143.888 132.806 144.377 131.5 144.106C130.573 143.914 129.503 143.295 129.241 142.385C128.878 141.128 129.229 139.645 129.886 138.514C130.601 137.283 131.986 136.587 133.113 135.717C134.034 135.007 135.049 134.427 136.017 133.781" fill="none" opacity="1" stroke="#d3e07a" stroke-linecap="round" stroke-linejoin="round" stroke-width="1.36088"/>
<path d="M93.9649 118.294C93.9649 118.294 92.9969 113.551 92.9969 113.024C92.9969 108.363 98.3444 103.13 99.2348 103.13" fill="none" opacity="1" stroke="#d3e07a" stroke-linecap="round" stroke-linejoin="round" stroke-width="4.77982"/>
<path d="M142.577 128.834C143.337 129.088 145.048 126.238 146.234 125.07C147.753 123.574 149.39 122.203 150.966 120.768C152.476 119.393 154.017 118.089 155.591 116.789C156.06 116.401 156.273 115.498 156.881 115.498C156.995 115.498 156.694 115.741 156.774 115.821C156.937 115.984 157.764 115.046 158.064 114.96C159.453 114.564 160.428 114.842 161.829 115.068C162.493 115.175 165.955 115.41 165.915 115.391" fill="none" opacity="1" stroke="#d3e07a" stroke-linecap="round" stroke-linejoin="round" stroke-width="4.77982"/>
<path d="M68.5832 130.125C69.2942 132.258 67.8581 128.281 67.7228 127.974C67.3929 127.224 67.0954 126.46 66.7549 125.715C66.0593 124.194 65.0529 121.097 63.3133 120.553C60.4248 119.65 54.6517 121.046 51.8055 121.521C50.7161 121.702 49.6419 121.974 48.579 122.274C48.3008 122.352 47.5371 122.704 47.8262 122.704" fill="none" opacity="1" stroke="#d3e07a" stroke-linecap="round" stroke-linejoin="round" stroke-width="4.77982"/>
<g opacity="1">
<path d="M99.1272 99.2581C97.4937 96.3177 104.196 95.3533 104.397 99.5808C104.433 100.325 104.136 101.417 103.859 102.054C103.483 102.919 103.039 103.504 102.139 103.883C99.5587 104.969 96.5491 98.158 100.31 97.3222" fill="#c8c8c8" fill-rule="nonzero" stroke="none"/>
<path d="M102.062 94.875C100.113 94.6465 97.8917 95.4596 97.4688 97.5C97.3959 97.8515 97.5414 98.0351 97.625 98.25C97.5879 98.3517 97.497 98.4319 97.4688 98.5312C96.573 101.686 99.5343 106.747 103.188 104.781C104.236 104.217 104.857 103.238 105.344 102.188C106.463 99.7729 106.391 96.9135 103.844 95.4375C103.334 95.1421 102.712 94.9512 102.062 94.875ZM100.344 98.375C100.472 98.3863 100.382 98.5974 100.5 98.625C101.134 98.7731 101.919 98.5381 102.438 99.0938C103.177 99.8859 102.657 102.372 101.594 102.75C101.198 102.891 100.652 102.047 100.5 101.812C100.071 101.151 99.6857 100.214 99.7812 99.4062C99.8085 99.1757 100.063 98.7088 100.094 98.4062C100.175 98.386 100.26 98.3676 100.344 98.375Z" fill="#c8c8c8" stroke="none"/>
</g>
<path d="M113.754 116.681C113.754 115.699 114.051 114.433 114.184 113.455C114.423 111.702 114.776 110.228 115.475 108.185C116.174 106.141 116.98 105.281 116.98 105.281" fill="none" opacity="1" stroke="#d3e07a" stroke-linecap="round" stroke-linejoin="round" stroke-width="4.77982"/>
<path d="M101.196 102.012L101.675 102.879" fill="#31322d" fill-rule="nonzero" opacity="1" stroke="none"/>
<g opacity="1">
<path d="M101.584 99.5465C103.182 99.5465 103.377 101.142 103.387 101.783C103.398 102.425 103.022 104.033 101.698 104.157C100.374 104.281 99.7789 103.801 99.7123 102.468C99.6666 101.555 100.625 99.5465 101.584 99.5465Z" fill="#31322d" fill-rule="nonzero" opacity="1" stroke="none"/>
<path d="M102.037 102.169C102.433 102.22 102.471 102.412 102.471 103.051C102.471 103.69 102.199 103.523 101.829 103.751C101.459 103.979 101.186 103.434 101.168 103.115C101.151 102.795 101.672 102.122 102.037 102.169Z" fill="#ffffff" fill-rule="nonzero" opacity="1" stroke="none"/>
</g>
<g opacity="1">
<g opacity="1">
<path d="M118.319 101.209C117.988 99.9929 118.521 98.0859 120.255 98.6278C122.639 99.3729 124.43 104.736 120.9 105.619C120.305 105.767 119.684 105.874 119.072 105.834C118.585 105.801 118.076 105.679 117.674 105.403C115.471 103.896 115.644 99.1288 118.534 98.5203C119.677 98.2796 120.707 99.3872 121.761 99.7033" fill="#c8c8c8" fill-rule="nonzero" stroke="none"/>
<path d="M119.312 97.375C118.824 97.299 118.32 97.3427 117.812 97.5312C114.27 98.8466 114.154 105.217 117.75 106.5C118.602 106.804 119.564 106.764 120.438 106.594C121.002 106.484 121.592 106.325 122.094 106.031C124.186 104.806 123.983 102.06 123.062 100.156C122.457 98.9051 121.209 97.5887 119.75 97.5625C119.6 97.5166 119.466 97.3989 119.312 97.375ZM119.469 99.8438C119.665 99.9328 119.877 100.01 120.094 100.094C120.2 100.028 120.272 99.9169 120.375 99.8438C120.425 99.8756 120.443 99.8357 120.5 99.875C120.505 99.871 119.968 100.2 120.094 100.125C120.126 100.137 120.155 100.145 120.188 100.156C120.373 100.218 120.67 100.144 120.75 100.25C121.78 101.257 122.668 103.437 121.469 104.438C120.985 104.841 120.229 104.944 119.625 104.969C119.311 104.981 119.078 104.959 118.781 104.875C117.33 104.466 116.909 102.061 117.625 100.656C117.666 100.79 117.7 100.987 117.812 100.969C118.591 100.841 117.805 100.945 118.062 101.25C118.092 101.391 118.234 101.498 118.375 101.469C118.516 101.439 118.592 101.298 118.562 101.156C120.029 100.744 120.334 100.674 120.031 100.75C119.597 100.859 119.129 100.92 118.688 100.844C118.577 100.825 118.81 100.622 118.875 100.531C118.992 100.37 119.149 100.265 119.25 100.094C119.334 99.9525 119.399 99.9312 119.469 99.8438Z" fill="#c8c8c8" stroke="none"/>
</g>
<g opacity="1">
<path d="M120.125 101.081C121.723 101.081 121.917 102.677 121.928 103.318C121.938 103.959 121.563 105.568 120.239 105.692C118.915 105.816 118.319 105.336 118.253 104.003C118.207 103.09 119.166 101.081 120.125 101.081Z" fill="#31322d" fill-rule="nonzero" opacity="1" stroke="none"/>
<path d="M120.578 103.704C120.974 103.755 121.012 103.946 121.012 104.585C121.012 105.224 120.739 105.057 120.369 105.286C119.999 105.514 119.726 104.969 119.709 104.649C119.691 104.33 120.212 103.657 120.578 103.704Z" fill="#ffffff" fill-rule="nonzero" opacity="1" stroke="none"/>
</g>
</g>
</g>
</g>
<path d="M22.6327 130.695C9.46021 130.695 30.0115 190.956 30.0115 190.956L213.991 190.956C213.991 190.956 239.585 174.513 248.957 164.298C258.329 154.084 270.809 142.256 254.083 137.336C241.813 133.728 251.066 150.452 234.796 150.743C194.259 151.467 41.1399 152.462 32.6697 146.109" fill="#0685b1" fill-rule="nonzero" opacity="1" stroke="none"/>
</g>
</svg>
